<svg xmlns="http://www.w3.org/2000/svg" width="367" height="153" viewBox="0 0 367 153"><path fill="#D1A40B" d="M95.333 72.764l.274-50.994c0-4.091-3.433-5.603-5.737-3.823-1.481 1.137-7.012 6.419-7.012 6.419C28.37 75.37 33.782 69.521 19.055 83.233c-14.151 12.364-7.992 37.988 11.054 37.988 7.138.012 15.058.074 15.058.074l23.766-23.929s-26.109 0-30.288-.143c-7.332-.263-7.875-9.893-1.387-15.087 2.335-2.34 34.058-31.663 34.058-31.663l.003 57.655c0 5.745-1.764 13.183 5.891 13.183 2.126-4.143 18.123-48.547 18.123-48.547m19.728 37.038c-1.007 2.917-3.171 4.438-6.219 4.438h-4.189l12.604-34.866c.508-1.524 1.647-2.283 3.045-2.283h6.604l-11.845 32.711zm-4.162-37.038c-2.415 0-4.94 1.273-7.612 3.685-2.669 2.42-4.324 4.958-5.209 7.366l-20.195 55.25c0 .382-1.59 4.315-1.59 4.315h8.836c2.794 0 5.329-.634 7.483-2.161 1.909-1.264 3.428-3.553 4.575-6.607l5.591-15.486h19.942c2.917 0 5.714-1.398 8.379-4.062 2.029-2.161 3.551-4.444 4.444-6.99l12.952-35.311h-37.596zm110.428 38.447c-1.139-1.778-1.787-3.933-1.787-6.476 0-1.393.26-2.666.648-3.807l7.892-21.554c.514-1.527 1.523-2.286 3.048-2.286h22.094l1.529-4.324h-33.145c-2.032 0-4.697 1.016-7.871 3.054-3.682 2.283-5.971 4.949-7.124 7.997l-8.123 22.102c-.631 1.644-.885 3.048-.885 4.447 0 2.794 1.011 4.949 3.174 6.473 2.161 1.527 4.955 2.289 8.38 2.289h28.698l1.949-4.863h-13.397c-2.035 0-3.684-1.016-5.08-3.052m82.464-31.206c0-4.821-2.421-7.241-7.235-7.241h-15.501l14.474-39.872h-8.76c-3.168 0-6.222 1.143-9.136 3.296-2.929 2.167-4.955 4.831-5.977 7.755l-27.3 75.183h11.046c2.794 0 5.206-.765 7.363-2.158 2.032-1.279 3.808-4.315 5.463-8.894l11.308-30.987c2.023 0 3.677.508 4.946 1.521 1.145 1.016 1.781 2.158 1.781 3.562 0 .502-.135 1.008-.386 1.644l-12.82 35.311h17.652l12.062-33.145c.634-1.908 1.02-3.809 1.02-5.975m38.707-.631l-4.821 13.214h-11.028c2.495-6.85 4.247-11.65 5.688-15.498h8.763c1.523.001 1.909.76 1.398 2.284m10.668-6.61h-39.118L301.1 108.075c-1.022 2.923-1.527 5.081-1.527 6.479 0 3.042 2.163 4.572 6.345 4.572h35.439l1.77-4.869h-22.094c-.64 0-1.547-1.861-.64-4.453 1.775-4.875 3.294-9.082 4.646-12.778h28.764l4.823-13.211c.38-1.142.634-2.535.634-4.062 0-4.7-2.03-6.989-6.094-6.989m-184.289 41.43h-8.733c-1.147 0-1.39-1.518-.634-4.435l4.649-12.832h11.045a2932.012 2932.012 0 01-6.327 17.267m32.203-36.042c0-3.55-2.023-5.317-6.076-5.317h-35.203l-1.649 4.301h16.822v.006h5.2c.06 0 .511.043.659.077a1.434 1.434 0 01.597.265c.423.351.451 1.005.14 1.952l-1.795 4.915h.006a2505.334 2505.334 0 01-3.003 8.266h-28.695l-5.634 15.417c-1.27 3.425-1.897 5.954-1.897 7.347 0 2.409 1.515 3.67 4.561 3.67h41.912l12.789-35.203c.886-2.276 1.266-4.171 1.266-5.696"/></svg>