<svg xmlns="http://www.w3.org/2000/svg" width="63" height="65" viewBox="0 0 63 65"><g fill="none"><path fill="#FFD12D" d="M56.295 0h-33.59C19.008 0 16 3.048 16 6.794v22.97c0 3.747 3.008 6.795 6.705 6.795h2.631l.052 5.998c.004.552.318 1.055.808 1.297a1.42 1.42 0 001.506-.157l9.127-7.138h19.466c3.697 0 6.705-3.048 6.705-6.794V6.794C63 3.048 59.992 0 56.295 0z"/><path fill="#282828" d="M18 49c-.552 0-1-.44-1-.984v-2.032A.992.992 0 0118 45c.552 0 1 .44 1 .984v2.032A.992.992 0 0118 49zm-8 0c-.552 0-1-.44-1-.984v-2.032A.992.992 0 0110 45c.552 0 1 .44 1 .984v2.032A.992.992 0 0110 49zm4.169 6h-.338c-1.461 0-2.816-.563-3.624-1.505-.38-.444-.223-1.041.35-1.335.574-.293 1.347-.172 1.727.271.345.403.923.643 1.547.643h.338c.624 0 1.202-.24 1.547-.643.38-.443 1.153-.564 1.726-.27.574.293.73.89.35 1.334C16.986 54.437 15.63 55 14.17 55zM38 12c-.42 0-.801-.271-.942-.665a1.01 1.01 0 01.293-1.1 1.01 1.01 0 011.176-.086c.35.216.535.64.454 1.045-.092.462-.51.806-.982.806z"/><path fill="#282828" d="M51.596 10h-9.1a1.074 1.074 0 000 2.148h9.1a1.25 1.25 0 011.256 1.242v16.467a1.25 1.25 0 01-1.256 1.242H37.532c-.176 0-.349.043-.504.125l-7.067 3.756v-2.807c0-.593-.481-1.074-1.074-1.074h-4.231a1.25 1.25 0 01-1.256-1.242V13.39a1.25 1.25 0 011.256-1.242h8.127a1.074 1.074 0 100-2.148h-8.127a3.401 3.401 0 00-3.405 3.39v16.467c0 .163.012.324.035.481a8.93 8.93 0 00-2.666-.455c-3.315-2.652-5.978-2.432-7.648-1.762-1.405.565-2.42 1.565-3.023 2.305-.187.23-.464.602-.698.986a6.898 6.898 0 00-6.78 4.801l-.036.11c-.466 1.46-.442 2.263.109 3.738l1.522 4.105v1.11a2.968 2.968 0 00-1.231 4.892c.405.42.91.705 1.463.833l.106 1.713c.012 2.651 1.365 4.802 3.915 6.22 1.268.706 2.585 1.085 3.455 1.278v3.714c0 .593.48 1.074 1.074 1.074h5.579c.593 0 1.074-.481 1.074-1.074v-3.714c2.224-.493 7.348-2.203 7.37-7.498l.105-1.699a2.95 2.95 0 001.53-.847 2.969 2.969 0 00-1.296-4.913l-.001-.94c2.283-6.123 1.84-7.63 1.694-8.127a10.05 10.05 0 00-.154-.479 8.644 8.644 0 00-1.34-2.462h2.403v3.52a1.074 1.074 0 001.579.95l8.409-4.47h13.796A3.401 3.401 0 0055 29.857V13.39A3.4 3.4 0 0051.596 10zM2.48 36.977l.035-.109a4.753 4.753 0 015.211-3.262 1.074 1.074 0 001.184-.762c.196-.44 1.401-2.409 3.396-2.902 1.571-.388 3.333.23 5.237 1.837.202.17.456.262.722.253 2.915-.079 5.511 1.684 6.455 4.386a8.35 8.35 0 01.12.375c.127.429.004 1.608-.598 3.662a1.099 1.099 0 00-.108-.006 6.266 6.266 0 01-4.964-2.464l-.835-1.099a1.075 1.075 0 00-1.8.137 6.545 6.545 0 01-5.756 3.426H3.14a1.08 1.08 0 00-.157.012l-.426-1.15c-.38-1.018-.391-1.346-.076-2.334zm22.478 11.7a.821.821 0 01-.596.252h-.4c-.568 0-1.038.442-1.073 1.008l-.165 2.676a1.054 1.054 0 00-.002.066c0 4.58-5.78 5.486-6.439 5.574a1.074 1.074 0 00-.931 1.065v3.534h-3.431v-3.534c0-.538-.398-.994-.932-1.065-.659-.088-6.438-.995-6.438-5.574 0-.022 0-.044-.002-.066l-.166-2.676a1.074 1.074 0 00-1.072-1.008h-.336a.821.821 0 01-.596-.253.822.822 0 01-.231-.606c.015-.439.407-.796.873-.796h.118c.593 0 1.074-.481 1.074-1.074v-3.602h6.565a8.69 8.69 0 006.755-3.217 8.437 8.437 0 005.526 3.146V46.2c0 .593.481 1.074 1.075 1.074h.183c.465 0 .857.357.872.796a.82.82 0 01-.23.606z"/><path fill="#282828" d="M44.722 17.321a1 1 0 00-1.432-.038l-6.467 6.24L33.74 20.3a1 1 0 00-1.433-.019c-.4.397-.409 1.05-.019 1.457l3.782 3.95a1.001 1.001 0 001.423.03l7.192-6.94a1.043 1.043 0 00.038-1.457z"/></g></svg>