<svg xmlns="http://www.w3.org/2000/svg" width="49" height="63" viewBox="0 0 49 63"><g fill="none" fill-rule="evenodd"><path fill="#FFD12D" d="M26.789 1.578l21.04 42.08A3 3 0 0145.146 48H4.854a3 3 0 01-2.683-4.342L12.5 23 23.211 1.578a2 2 0 013.578 0z"/><path fill="#282828" fill-rule="nonzero" d="M28.877 60.773H27.69V50.261c0-.614-.502-1.113-1.123-1.113H23.67v-2.652c0-.614-.503-1.113-1.123-1.113h-1.025c-1.823-4.329-3-12.164-3.223-21.414l1.676.777a1.13 1.13 0 001.136-.108 1.11 1.11 0 00.455-1.037l-.677-5.402 3.75-3.975c.28-.296.375-.72.248-1.105a1.12 1.12 0 00-.855-.749l-5.392-1.031-2.656-4.764A1.125 1.125 0 0015 6c-.409 0-.785.22-.983.575l-2.656 4.764L5.97 12.37a1.12 1.12 0 00-.856.75c-.126.385-.031.808.248 1.104l3.75 3.975-.676 5.402c-.05.402.123.8.454 1.038.33.238.766.28 1.136.107l1.676-.777c-.05 2.08-.149 4.106-.295 6.042a1.116 1.116 0 001.12 1.196 1.12 1.12 0 001.12-1.03c.175-2.314.283-4.754.323-7.26L15 22.44l1.03.478c.15 9.402 1.28 17.564 3.082 22.466H10.89c.626-1.696 1.173-3.79 1.633-6.25a1.114 1.114 0 00-.9-1.298 1.123 1.123 0 00-1.309.892c-.505 2.703-1.135 4.984-1.835 6.657H7.454c-.62 0-1.123.498-1.123 1.113v2.651H3.432c-.62 0-1.123.499-1.123 1.114v10.511H1.123c-.62 0-1.123.499-1.123 1.114A1.12 1.12 0 001.123 63h27.754c.62 0 1.123-.499 1.123-1.113 0-.615-.503-1.114-1.123-1.114zM15 20.097c-.162 0-.325.035-.476.105l-3.609 1.674.492-3.92a1.107 1.107 0 00-.295-.897l-2.72-2.884 3.911-.749c.327-.062.61-.265.77-.554L15 9.415l1.927 3.457c.161.289.443.492.77.554l3.912.749-2.72 2.884c-.228.241-.336.57-.295.898l.491 3.919-3.609-1.674a1.13 1.13 0 00-.476-.105zM8.577 47.61h12.846v1.538H8.577V47.61zM4.555 60.773v-9.398h20.89v9.398H4.555z"/><path fill="#282828" fill-rule="nonzero" d="M15 53c-2.804 0-5 1.537-5 3.5s2.196 3.5 5 3.5 5-1.537 5-3.5-2.196-3.5-5-3.5zm0 5c-1.861 0-3-.971-3-1.5s1.139-1.5 3-1.5 3 .971 3 1.5-1.139 1.5-3 1.5zm-2-24c0-.55-.45-1-1-1s-1 .45-1 1 .45 1 1 1 1-.45 1-1z"/></g></svg>