<svg xmlns="http://www.w3.org/2000/svg" width="50" height="65" viewBox="0 0 50 65"><g fill="none" fill-rule="evenodd"><path fill="#FFD12D" d="M.78 20.39l10.137 9.818-2.332 13.8a2.55 2.55 0 001.043 2.501c.801.572 1.863.65 2.742.202L25 40.264l12.63 6.447a2.652 2.652 0 002.742-.202 2.55 2.55 0 001.043-2.502l-2.333-13.799L49.22 20.39a2.54 2.54 0 00.652-2.626 2.605 2.605 0 00-2.099-1.748l-14.068-2.081L27.339 1.42A2.62 2.62 0 0025 0c-.99 0-1.896.55-2.34 1.421l-6.365 12.514-14.068 2.081a2.604 2.604 0 00-2.099 1.748A2.54 2.54 0 00.78 20.39z"/><g fill="#282828" fill-rule="nonzero"><path d="M4 33.5C4 41.495 10.505 48 18.5 48S33 41.495 33 33.5 26.495 19 18.5 19 4 25.505 4 33.5zm14.5-12.567c6.93 0 12.567 5.638 12.567 12.567 0 6.93-5.638 12.567-12.567 12.567-6.93 0-12.567-5.638-12.567-12.567 0-6.93 5.638-12.567 12.567-12.567z"/><path d="M9.296 31.809l3.853 3.76-.887 5.285a.98.98 0 00.397.958 1 1 0 001.042.077l4.8-2.469 4.798 2.47c.332.17.735.143 1.042-.078a.98.98 0 00.397-.958l-.887-5.285 3.853-3.76a.978.978 0 00.247-1.006.992.992 0 00-.797-.669l-5.346-.797-2.42-4.793A.995.995 0 0018.5 24c-.376 0-.72.21-.889.544l-2.419 4.793-5.346.797a.991.991 0 00-.797.67.978.978 0 00.247 1.005zM16 31.208a.994.994 0 00.74-.533l1.761-3.489 1.76 3.489a.994.994 0 00.742.533l3.89.58-2.803 2.737a.98.98 0 00-.283.863l.645 3.846-3.493-1.797a.999.999 0 00-.916 0l-3.493 1.797.645-3.846a.978.978 0 00-.283-.863l-2.804-2.737 3.892-.58zM20 16a1 1 0 11-2 0 1 1 0 012 0z"/><path d="M13.911 16.03C5.721 18.108 0 25.433 0 33.844c0 5.224 2.21 10.146 6.09 13.632L.224 57.749a.963.963 0 00.06 1.047c.225.308.61.456.985.378L7.93 57.8l2.341 6.557a.974.974 0 101.764.155L18.5 53.216l6.464 11.293a.975.975 0 001.764-.154l2.341-6.557 6.662 1.375c.374.077.76-.07.985-.378a.962.962 0 00.06-1.047L30.91 47.476A18.275 18.275 0 0037 33.844c0-8.41-5.72-15.736-13.91-17.814a.967.967 0 10-.482 1.875c7.327 1.86 12.445 8.413 12.445 15.939 0 9.16-7.486 16.449-16.553 16.449-9.073 0-16.553-7.296-16.553-16.449 0-7.526 5.118-14.08 12.446-15.939a.968.968 0 10-.482-1.875zm-2.515 45.685l-1.914-5.358a.975.975 0 00-1.115-.624L2.98 56.845l4.642-8.131a18.61 18.61 0 009.245 3.442l-5.471 9.56zm17.237-5.982a.975.975 0 00-1.115.624l-1.913 5.358-5.472-9.56a18.612 18.612 0 009.245-3.441l4.643 8.13-5.388-1.11z"/></g></g></svg>