<svg xmlns="http://www.w3.org/2000/svg" width="450" height="450" viewBox="0 0 450 450"><g fill="#E6E8E9"><path d="M441.215 176.587c4.85 0 8.785-3.931 8.785-8.778V80.477c0-8.675-3.379-16.83-9.518-22.964-6.138-6.135-14.3-9.513-22.99-9.513-17.92 0-32.499 14.569-32.499 32.476v71.21a32.309 32.309 0 00-14.932-3.645c-17.919 0-32.498 14.57-32.498 32.476v59.917a28.649 28.649 0 01-10.104 21.857l-31.924 27.155C269.775 311.36 255 343.316 255 377.124v64.098c0 4.847 3.932 8.778 8.784 8.778H377.66a8.786 8.786 0 007.488-4.189l44.857-73.107a135.247 135.247 0 0019.983-70.764l.003-69.616c0-4.847-3.932-8.778-8.783-8.778-4.85 0-8.784 3.931-8.784 8.778l-.003 69.616a117.72 117.72 0 01-17.39 61.588l-42.288 68.919H272.567v-55.322c0-28.653 12.522-55.738 34.355-74.311l31.924-27.156a46.169 46.169 0 0016.283-35.224v-59.917c0-8.228 6.699-14.922 14.932-14.922 8.234 0 14.932 6.694 14.932 14.922v94.835c0 6.21-1.79 12.245-5.132 17.38l-23.508 35.362a8.773 8.773 0 002.456 12.167 8.783 8.783 0 0012.176-2.454l23.555-35.433a49.418 49.418 0 008.02-27.022V80.476c0-8.228 6.699-14.922 14.944-14.922 3.988 0 7.739 1.553 10.558 4.37a14.822 14.822 0 014.374 10.552l-.002 87.333c-.002 4.847 3.93 8.778 8.78 8.778z"/><path d="M441.516 192h-.016c-4.687 0-8.491 3.745-8.5 8.371v.228c-.008 4.63 3.79 8.393 8.484 8.401h.016c4.687 0 8.491-3.745 8.5-8.371v-.228c.008-4.632-3.79-8.393-8.484-8.401zm-287.05 97.447l-31.924-27.156a28.653 28.653 0 01-10.105-21.856v-59.917c0-17.907-14.579-32.476-32.498-32.476a32.311 32.311 0 00-14.932 3.645V80.476C65.007 62.569 50.428 48 32.497 48c-8.68 0-16.841 3.378-22.98 9.513C3.38 63.647 0 71.803 0 80.478l.004 62.61c0 4.847 3.933 8.777 8.783 8.777 4.851 0 8.784-3.93 8.784-8.779l-.004-62.61c0-3.985 1.553-7.733 4.373-10.55a14.85 14.85 0 0110.57-4.37c8.234 0 14.933 6.693 14.933 14.92v194.876c0 9.618 2.773 18.962 8.066 27.093l23.509 35.362a8.786 8.786 0 0012.176 2.454c4.04-2.682 5.14-8.13 2.456-12.167l-23.46-35.292a31.92 31.92 0 01-5.18-17.45v-94.835c0-8.228 6.699-14.922 14.933-14.922 8.233 0 14.932 6.694 14.932 14.922v59.917a46.172 46.172 0 0016.283 35.224l31.924 27.156c21.833 18.572 34.355 45.659 34.355 74.311v55.32H77.257L34.97 363.528a117.711 117.711 0 01-17.391-61.587l-.005-93.535c0-4.848-3.933-8.777-8.783-8.777s-8.784 3.93-8.784 8.777L.01 301.94c0 24.99 6.911 49.46 19.982 70.764l44.859 73.107A8.784 8.784 0 0072.339 450h113.877c4.852 0 8.784-3.93 8.784-8.778v-64.097c0-33.807-14.774-65.765-40.534-87.678zM310.473 56.265H284.69a36.654 36.654 0 005.494-19.336c0-20.362-16.597-36.929-37-36.929C241.903 0 231.792 5.073 225 13.045 218.207 5.072 208.096 0 196.814 0c-20.402 0-37 16.566-37 36.93a36.636 36.636 0 005.494 19.335h-25.782C129.31 56.265 121 64.56 121 74.757v43.95c0 8.672 6.02 15.948 14.102 17.935v65.249c0 17.704 14.432 32.109 32.17 32.109h115.457c17.737 0 32.169-14.405 32.169-32.11v-65.248c8.082-1.988 14.102-9.264 14.102-17.935v-43.95c0-10.196-8.312-18.492-18.527-18.492zM190.168 216.406H167.27c-8.02 0-14.543-6.511-14.543-14.515v-64.694h37.44v79.21zm0-96.802h-50.644a.899.899 0 01-.898-.898v-43.95a.9.9 0 01.899-.897h50.642v45.745zM177.44 36.928c0-10.661 8.69-19.334 19.372-19.334s19.371 8.674 19.371 19.334v19.336h-19.37c-10.682 0-19.373-8.673-19.373-19.336zm64.762 179.478h-34.408v-79.209h34.409v79.21h-.001zm0-96.802h-34.408V73.859h34.409v45.745h-.001zm-8.39-63.34V36.928c0-10.662 8.691-19.335 19.372-19.335 10.682 0 19.372 8.674 19.372 19.335 0 10.662-8.69 19.335-19.372 19.335h-19.372zM297.27 201.89c0 8.004-6.524 14.515-14.542 14.515H259.83v-79.209h37.44v64.694zm14.102-83.184a.9.9 0 01-.9.897H259.83V73.86h50.643c.496 0 .899.402.899.898v43.95z"/><path d="M8.518 167H8.5c-4.685 0-8.489 3.924-8.5 8.771v.421c-.01 4.855 3.787 8.797 8.482 8.808H8.5c4.685 0 8.489-3.924 8.5-8.771v-.421c.008-4.854-3.788-8.797-8.482-8.808z"/></g></svg>