<svg xmlns="http://www.w3.org/2000/svg" width="450" height="450" viewBox="0 0 450 450"><g fill="#F9C200"><path d="M447.425 189.265a8.8 8.8 0 00-7.95-2.4l-75.754 15.243a8.79 8.79 0 00-4.482 14.83l10.249 10.247-40.224 40.218-31.14-31.134a8.793 8.793 0 00-12.43 0l-38.21 38.204 14.333-51.491c3.485-12.518.974-25.63-6.886-35.976-4.815-6.337-11.172-11.009-18.359-13.686l11.458-32.724c3.161.278 6.315.419 9.433.419 25.382 0 50.129-8.945 69.683-25.185l2.095-1.74c10.31-8.563 12.071-23.447 4.013-33.88-4.087-5.292-9.992-8.61-16.628-9.343-6.64-.734-13.126 1.214-18.263 5.48l-2.38 1.977a60.526 60.526 0 01-11.395 7.47c-13.554 6.837-30.48 3.792-41.727-7.336 16.36-5.067 28.277-20.336 28.277-38.336C271.14 17.999 253.137 0 231.01 0c-22.128 0-40.13 17.999-40.13 40.123a39.89 39.89 0 007.684 23.572 45.793 45.793 0 00-23.632 13.325 8.78 8.78 0 00-1.036 1.061c-15.496 19.03-36.153 32.68-59.74 39.473-6.385 1.84-11.44 6.08-14.473 11.455l-18.015-18.012c-7.883-7.881-20.708-7.88-28.591 0L29.499 134.57 5.922 158.144A20.075 20.075 0 000 172.437c0 5.4 2.103 10.475 5.92 14.294l64.962 64.95a20.088 20.088 0 0014.296 5.92 20.088 20.088 0 0014.296-5.92l24.412-24.408-11.575 30.348a8.788 8.788 0 005.08 11.343c1.031.393 2.09.58 3.131.58a8.795 8.795 0 008.215-5.66l28.83-75.58h64.546c7.453 0 14.311 3.402 18.82 9.336 4.508 5.933 5.948 13.452 3.949 20.63l-19.973 71.753a7.517 7.517 0 01-7.22 5.484c-3.008 0-4.863-1.647-5.7-2.629-.838-.981-2.174-3.072-1.702-6.04l10.628-66.803a8.786 8.786 0 00-8.681-10.17h-20.84a8.79 8.79 0 00-7.843 4.822c-.514 1.014-51.513 101.836-68.7 135.903-1.72 3.412-5.46 5.358-9.294 4.834l-.417-.057a8.55 8.55 0 01-6.24-4.127 8.543 8.543 0 01-.64-7.453l5.416-14.2a8.789 8.789 0 00-5.08-11.343c-4.535-1.73-9.614.546-11.345 5.08l-5.417 14.2c-2.864 7.51-2.152 15.78 1.954 22.692 4.105 6.91 11.03 11.493 18.99 12.57l.416.055c1.205.165 2.406.243 3.598.243 9.952 0 19.208-5.56 23.757-14.578 15.011-29.758 55.837-110.476 66.25-131.063h5.137l-9.01 56.633a25.03 25.03 0 005.692 20.213 25.037 25.037 0 0011.445 7.601l-97.917 97.9a8.79 8.79 0 000 12.429l25.212 25.207a8.766 8.766 0 006.216 2.574 8.769 8.769 0 006.215-2.574l48.468-48.46a8.789 8.789 0 10-12.431-12.43l-42.252 42.246-12.78-12.778L291.91 254.91l31.14 31.134a8.793 8.793 0 0012.43 0l52.654-52.646a8.789 8.789 0 000-12.43l-4.868-4.867 46.717-9.4-9.401 46.71-7.235-7.234a8.794 8.794 0 00-12.432 0l-71.651 71.64-31.14-31.134a8.794 8.794 0 00-12.43 0l-50.148 50.138a8.789 8.789 0 1012.432 12.43l43.93-43.924 31.14 31.134a8.794 8.794 0 0012.431 0l71.651-71.64 12.617 12.615a8.788 8.788 0 008.758 2.198 8.788 8.788 0 006.075-6.679l15.246-75.743a8.79 8.79 0 00-2.402-7.948zM231.01 17.577c12.434 0 22.55 10.114 22.55 22.546 0 12.432-10.117 22.546-22.55 22.546-12.434 0-22.55-10.114-22.55-22.546 0-12.432 10.116-22.546 22.55-22.546zM144.032 173.35l-10.698-10.695a169.912 169.912 0 0014.956-5.674l-4.258 16.37zm-29.665-30.485c-1.04-3.605 1.05-7.382 4.656-8.421a137.118 137.118 0 0040.07-18.98l-4.965 19.08a151.608 151.608 0 01-31.342 12.975 7.372 7.372 0 01-.625.15 6.75 6.75 0 01-4.607-.791l-2.575-2.574a6.687 6.687 0 01-.612-1.44zm-48.861-19.44a2.63 2.63 0 011.865-.772c.675 0 1.35.257 1.864.771l32.04 32.036a24.16 24.16 0 005.255 5.253l27.667 27.663a2.638 2.638 0 010 3.728l-17.361 17.358-19.309-19.305 3.678-3.677a8.789 8.789 0 000-12.43l-19.786-19.78a8.794 8.794 0 00-12.432 0l-3.677 3.677-17.166-17.163 17.362-17.358zm12.031 61.861a3.288 3.288 0 01-2.334.968 3.29 3.29 0 01-2.332-.967l-2.69-2.688a3.289 3.289 0 01-.966-2.332c0-.511.126-1.493.968-2.334l5.02-5.02 7.355 7.354-5.02 5.02zm9.505 53.966a2.588 2.588 0 01-1.864.771 2.586 2.586 0 01-1.864-.772l-64.962-64.95a2.586 2.586 0 01-.772-1.865c0-.498.133-1.226.772-1.864l17.361-17.359 17.988 17.984a20.797 20.797 0 00-2.066 9.07 20.736 20.736 0 006.116 14.761l2.688 2.687a20.747 20.747 0 0014.764 6.116 20.81 20.81 0 009.072-2.065l20.13 20.127-17.363 17.359zM212.6 170.727h-49.72l18.058-69.405c3.23-12.409 14.44-21.075 27.265-21.075 7.922 0 15.25 3.194 20.634 8.993 16.515 17.791 42.699 22.828 63.67 12.25a78.045 78.045 0 0014.713-9.645l2.38-1.977a6.733 6.733 0 015.098-1.529 6.755 6.755 0 014.644 2.615c2.209 2.859 1.61 7.174-1.333 9.618l-2.093 1.739c-16.406 13.625-37.164 21.129-58.451 21.129a91.75 91.75 0 01-14.044-1.1 8.782 8.782 0 00-9.647 5.78l-14.919 42.607H212.6z"/><path d="M217 359a9.064 9.064 0 00-6.363 2.637A9.065 9.065 0 00208 368c0 2.376.962 4.689 2.637 6.362A9.03 9.03 0 00217 377a9.027 9.027 0 006.362-2.638A9.05 9.05 0 00226 368c0-2.368-.963-4.69-2.638-6.363A9.06 9.06 0 00217 359zm-109-56a9.065 9.065 0 006.363-2.638A9.068 9.068 0 00117 294a9.068 9.068 0 00-2.637-6.363A9.084 9.084 0 00108 285a9.101 9.101 0 00-6.372 2.637A9.063 9.063 0 0099 294a9.06 9.06 0 002.628 6.362A9.09 9.09 0 00108 303z"/></g></svg>