<svg xmlns="http://www.w3.org/2000/svg" width="59" height="65" viewBox="0 0 59 65"><g fill="none"><path fill="#FFD12D" d="M18.075 20.945a.98.98 0 00.903.605h10.708v24.471c0 .54.437.979.977.979h15.634c.54 0 .977-.439.977-.979v-24.47h10.749a.98.98 0 00.692-1.67L39.22.287a.977.977 0 00-1.384-.002l-19.55 19.592a.978.978 0 00-.212 1.067z"/><path fill="#282828" d="M49.827 27.51l-3.132-4.543-3.135-4.542a.986.986 0 00-1.623 0l-3.132 4.542-3.135 4.542a.98.98 0 00.812 1.537h1.449v4.758l-.56-.812a.986.986 0 00-1.623 0l-3.135 4.542-3.132 4.541a.98.98 0 00.812 1.537h1.446v9.594c-.969-1.177-2.156-2.21-3.554-3.09-1.49-.938-3.194-1.67-5.024-2.167 2.173-1.468 3.626-3.575 4.081-5.838.877-.26 1.638-.873 2.12-1.74.656-1.176.676-2.58.052-3.664a.985.985 0 00-.854-.493h-1.113c.047-2.866-.786-5.306-2.436-7.102-1.78-1.937-4.495-3.048-7.447-3.048-2.565 0-5.106.845-6.97 2.318-2.116 1.671-3.281 4.068-3.281 6.748v1.086H6.239a.986.986 0 00-.854.493c-.64 1.112-.627 2.539.033 3.724.464.833 1.197 1.424 2.045 1.68.367 1.852 1.402 3.583 3.005 4.987.368.322.758.617 1.164.886-2.676.715-4.828 1.771-6.53 3.198C1.967 53.814.06 57.657 0 61.462a.982.982 0 00.663.943c4.386 1.51 9.45 2.398 14.644 2.566.587.02 1.203.029 1.83.029h.51c.629 0 1.244-.01 1.828-.029 4.688-.15 9.315-.898 13.395-2.16h13.714c.544 0 .985-.44.985-.981V29.046h1.446a.985.985 0 00.872-.524.978.978 0 00-.06-1.013zM31.739 56.88v4.223c-.7.205-1.418.395-2.147.57v-2.816a.983.983 0 00-.985-.981.983.983 0 00-.985.981v3.24c-2.179.423-4.45.707-6.753.844l.546-1.508a.979.979 0 00.04-.517l-1.68-8.731 1.011-2.75c5.128.862 9.174 3.603 10.953 7.444zm-15.55-7.188c.386.049.773.075 1.159.078h.055c.395 0 .793-.027 1.19-.078l-.525 1.43h-1.354l-.525-1.43zM27.64 39.419c-.048.087-.13.214-.245.345v-1.588h.481c.065.4-.015.848-.236 1.243zM9.282 35.13c0-4.614 4.267-7.103 8.282-7.103 2.401 0 4.586.878 5.994 2.41 1.307 1.423 1.964 3.407 1.92 5.777h-6.25c-2.902 0-5.168-.858-6.929-2.623a.987.987 0 00-1.683.701c.006.648-.145 1.132-.45 1.438-.244.247-.58.374-.884.439V35.13zm-2.367 3.05h.398v1.558a1.972 1.972 0 01-.398-1.558zm2.367 2.415v-2.437c.694-.086 1.586-.343 2.284-1.046.285-.286.51-.617.676-.99 1.912 1.38 4.214 2.055 6.985 2.055h6.198v2.418c0 .195-.01.389-.03.582l-.004.035c-.215 1.967-1.446 3.857-3.386 5.149-1.403.934-3.036 1.447-4.601 1.447h-.044a8.2 8.2 0 01-2.336-.361l-.051-.021-.051-.015-.04-.012-.026-.005c-3.13-1.025-5.574-3.814-5.574-6.799zM6.371 52.686c1.843-1.546 4.347-2.603 7.635-3.225l1.002 2.724-1.682 8.73a.979.979 0 00.041.518l.546 1.508a51.58 51.58 0 01-7.023-.895v-3.197a.983.983 0 00-.985-.981.983.983 0 00-.985.981v2.758a42.177 42.177 0 01-2.914-.823c.26-3.01 1.857-5.994 4.365-8.098zm11.017 10.35c-.456.002-.91 0-1.35-.01l-.726-2.005 1.528-7.937h1.102l1.528 7.937-.726 2.006a57.782 57.782 0 01-1.356.01zm29.196-35.953a.983.983 0 00-.985.982v32.784h-4.222V58.56a.983.983 0 00-.985-.981.983.983 0 00-.985.981v2.289h-5.699V42.631a.983.983 0 00-.984-.981h-.56l4.395-6.37 4.394 6.37h-.561a.983.983 0 00-.985.981v8.618c0 .542.441.982.985.982s.985-.44.985-.982v-7.637h1.449a.985.985 0 00.871-.524.978.978 0 00-.06-1.013l-3.134-4.541-.603-.874v-8.595a.983.983 0 00-.984-.982h-.562l4.395-6.37 4.395 6.37h-.56z"/><path fill="#000" d="M41 54c-.552 0-1 .444-1 .992v.016c0 .548.448.992 1 .992s1-.444 1-.992v-.016A.996.996 0 0041 54z"/></g></svg>