<svg xmlns="http://www.w3.org/2000/svg" width="55" height="65" viewBox="0 0 55 65"><g fill="none" fill-rule="evenodd"><path fill="#FFD12D" d="M3 31.2C3 42.688 12.253 52 23.667 52 35.08 52 55 41.373 55 29.885 55 18.398 35.08 0 23.667 0 12.253 0 3 19.712 3 31.2z"/><g fill="#282828" fill-rule="nonzero"><path d="M10.842 63.467L9.554 61.41c-.274-.437-.808-.54-1.194-.23-.385.31-.476.916-.202 1.354l1.288 2.058a.828.828 0 00.699.409.785.785 0 00.495-.18c.385-.31.476-.915.202-1.353zm11.137.346l-1.599-7.687a14.502 14.502 0 00-6.079-9.1l-3.414-2.316a3.412 3.412 0 00-4.353.448V33.296a3.27 3.27 0 00-2.559-3.217 3.23 3.23 0 00-2.753.647A3.29 3.29 0 000 33.296V48.56c0 2 .607 3.918 1.754 5.549l1.74 2.473a.972.972 0 001.361.232.99.99 0 00.231-1.372l-1.74-2.473a7.622 7.622 0 01-1.394-4.41V33.296c0-.404.18-.781.492-1.034a1.3 1.3 0 011.108-.26c.607.135 1.03.668 1.03 1.294v12.11a6.91 6.91 0 001.76 4.618c.048.059.098.117.15.173.649.693 1.41 1.51 2.128 2.279l1.005 1.078.01.01 1.507 1.617a.97.97 0 001.38.044.99.99 0 00.043-1.392c-.018-.019-1.16-1.246-2.465-2.644l-2.238-2.403-.017-.018a1.672 1.672 0 01.032-2.177 1.467 1.467 0 011.921-.248l3.414 2.316a12.542 12.542 0 015.258 7.872l1.599 7.687a.978.978 0 001.155.76.984.984 0 00.755-1.165z"/><path d="M7.815 58.426l-.007-.009a.998.998 0 00-1.39-.232.995.995 0 00-.233 1.389l.007.009a.996.996 0 001.623-1.157zm40.962-27.7a3.231 3.231 0 00-2.752-.647 3.27 3.27 0 00-2.56 3.217v11.862a3.412 3.412 0 00-4.353-.448l-3.414 2.315a14.502 14.502 0 00-6.078 9.101l-1.599 7.687A.984.984 0 0028.977 65a.978.978 0 00.954-.782l1.6-7.688a12.543 12.543 0 015.257-7.871l3.413-2.316a1.466 1.466 0 011.922.248c.549.625.556 1.541.034 2.174l-.019.021-4.703 5.047a.99.99 0 00.044 1.392.97.97 0 001.38-.044c.012-.014 4-4.29 4.649-4.984.052-.056.102-.114.15-.173a6.912 6.912 0 001.76-4.618v-12.11a1.316 1.316 0 012.138-1.035c.313.254.492.63.492 1.035V48.56a7.622 7.622 0 01-1.394 4.41l-7.373 10.477a.99.99 0 00.23 1.372.973.973 0 001.36-.233l7.375-10.476A9.592 9.592 0 0050 48.559V33.297a3.291 3.291 0 00-1.223-2.57z"/><path d="M37.562 33.678l-1.695-.422v-.317a4.502 4.502 0 001.824-3.644v-2.298c0-2.452-1.913-4.447-4.264-4.447a4.144 4.144 0 00-2.767 1.067C29.83 21.497 27.833 20 25.506 20c-2.33 0-4.33 1.502-5.157 3.625a4.144 4.144 0 00-2.776-1.075c-2.351 0-4.264 1.995-4.264 4.447v2.298c0 1.506.722 2.839 1.824 3.644v.317l-1.695.422C11.414 34.182 10 36.05 10 38.22v1.856c0 .549.427.994.953.994h4.378c-.006.12-.011.241-.011.363v3.573c0 .549.427.994.953.994H22c.526 0 .953-.445.953-.994 0-.549-.427-.993-.953-.993h-.984v-2.054c0-.549-.427-.993-.953-.993s-.953.444-.953.993v2.054h-1.884v-2.58c0-1.916 1.248-3.566 3.035-4.013l2.614-.653 1.75 4.151a.953.953 0 00.872.594c.378 0 .72-.233.873-.594l1.748-4.145 2.606.65c1.789.445 3.038 2.096 3.038 4.013v2.577h-1.884v-2.054c0-.549-.427-.993-.953-.993s-.953.444-.953.993v2.054h-1.08c-.526 0-.953.445-.953.993 0 .55.427.994.953.994h5.823c.526 0 .953-.445.953-.994v-3.57c0-.123-.005-.245-.012-.366h4.391c.526 0 .953-.445.953-.994V38.22c0-2.17-1.414-4.038-3.438-4.542zm-4.135-9.14c1.248 0 2.273 1.016 2.353 2.297h-1.324a6.72 6.72 0 01-3.195-.812c.362-.874 1.197-1.486 2.166-1.486zm-2.359 4.612c.001-.048.004-.097.004-.145v-.885a8.537 8.537 0 003.384.702h1.33v.473c0 1.357-1.058 2.46-2.36 2.46-1.3 0-2.358-1.103-2.358-2.46v-.145zm-9.222-3.346c0-2.105 1.642-3.817 3.66-3.817 1.82 0 3.334 1.393 3.614 3.21l-1.604-.983a.926.926 0 00-1.213.22 4.04 4.04 0 01-3.154 1.534h-1.303v-.164zm-4.273-1.267c.97 0 1.804.613 2.166 1.486a6.717 6.717 0 01-3.195.812H15.22c.08-1.281 1.105-2.298 2.353-2.298zm-2.359 4.285h1.33a8.537 8.537 0 003.388-.704v1.177c0 1.356-1.058 2.46-2.359 2.46-1.3 0-2.359-1.103-2.359-2.46v-.473zm4.603 6.666c-1.875.468-3.348 1.831-4.05 3.594h-3.861v-.862c0-1.246.812-2.32 1.974-2.609l2.427-.605a.986.986 0 00.732-.966v-.334a4.106 4.106 0 001.065 0v.284l-.001.044c0 .326.153.646.436.836a.926.926 0 00.338.142l1.421.355-.481.12zm2.658-1.543a4.345 4.345 0 00-.763-.268l-1.703-.426v-.31a4.33 4.33 0 00.826-.786 5.736 5.736 0 001.64 1.713v.077zm4.138 1.46l-1.115 2.645-1.118-2.652v-.709a5.35 5.35 0 002.233.004v.712zm-1.107-2.584c-2.018 0-3.66-1.712-3.66-3.816v-1.05h1.303a5.868 5.868 0 004.048-1.63l1.965 1.203v1.622c-.073 2.037-1.685 3.671-3.656 3.671zm3.013 1.127v-.067a5.732 5.732 0 001.652-1.718c.24.295.515.557.82.779v.31l-1.703.425a4.361 4.361 0 00-.77.271zm10.575 5.134H35.22c-.702-1.763-2.176-3.125-4.052-3.593l-.478-.119 1.429-.357a.93.93 0 00.343-.143 1.004 1.004 0 00.435-.859v-.304a4.107 4.107 0 001.065-.001v.334c0 .46.303.86.732.966l2.426.605c1.163.29 1.975 1.363 1.975 2.61v.861zM25.5 15c-.276 0-.5.384-.5.858v1.284c0 .474.224.858.5.858s.5-.384.5-.858v-1.284c0-.474-.224-.858-.5-.858zm-3.788 2.32l-1.033-1.032a.984.984 0 10-1.39 1.393l1.032 1.031a.98.98 0 001.391 0 .985.985 0 000-1.393zm8.998-1.031a.987.987 0 00-1.394 0l-1.027 1.028a.986.986 0 101.395 1.394l1.027-1.028a.986.986 0 000-1.394z"/></g></g></svg>