<svg xmlns="http://www.w3.org/2000/svg" width="56" height="65" viewBox="0 0 56 65"><g fill="none" fill-rule="evenodd"><path fill="#FFD12D" d="M38.227 0C34.555 0 30.973 2.145 28 4.214 25.026 2.144 21.445 0 17.773 0 7.973 0 0 7.902 0 17.615c0 5.669 4.394 12.108 13.433 19.684 6.212 5.207 12.333 8.986 12.59 9.145A3.77 3.77 0 0028 47a3.77 3.77 0 001.975-.556c.258-.159 6.38-3.939 12.591-9.145C51.606 29.723 56 23.284 56 17.615 56 7.902 48.027 0 38.227 0z"/><g fill="#282828" fill-rule="nonzero"><path d="M12.707 62.293a1.003 1.003 0 00-1.414 0A1.005 1.005 0 0011 63c0 .263.107.521.293.707.186.186.444.293.707.293.263 0 .521-.107.707-.293A1.01 1.01 0 0013 63c0-.264-.107-.521-.293-.707zM4.735 51.32a.996.996 0 00-1.407-.055l-.009.008a.996.996 0 001.353 1.462l.009-.008a.996.996 0 00.054-1.408zm38.645-.587c-1.098-1.622-3.302-2.196-5.129-1.334l-9.448 4.46c-.46.217-.647.744-.416 1.178.23.434.79.61 1.252.392l9.448-4.459c.968-.457 2.137-.153 2.719.707a1.87 1.87 0 01.263 1.56c-.147.537-.513.98-1.03 1.245l-12.702 6.529a11.262 11.262 0 01-5.128 1.232h-8.276c-.515 0-.933.393-.933.878 0 .486.418.879.933.879h8.276c2.098 0 4.18-.5 6.022-1.447l12.702-6.529c.961-.494 1.67-1.35 1.942-2.35a3.56 3.56 0 00-.496-2.94z"/><path d="M25.706 54.109l-3.805-2.902a11.53 11.53 0 00-6.957-2.33H8.42c0-.485-.407-.877-.91-.877H.91c-.503 0-.911.392-.911.876s.408.877.91.877H6.6v13.494H.91c-.502 0-.91.393-.91.877S.408 65 .91 65h6.601c.503 0 .91-.392.91-.876V50.629h6.523c2.106 0 4.175.693 5.826 1.952l3.805 2.901c.448.342.668.871.587 1.416-.08.544-.444.993-.974 1.201a1.642 1.642 0 01-1.48-.142l-4.86-3.107a.932.932 0 00-1.263.245.856.856 0 00.255 1.215l4.86 3.107a3.527 3.527 0 003.175.305c1.136-.446 1.917-1.41 2.09-2.577.172-1.169-.298-2.304-1.259-3.036zM46.09 33.247H40.4V19.753h5.69c.502 0 .91-.393.91-.877S46.592 18 46.09 18h-6.601c-.503 0-.91.392-.91.876v13.495h-6.523a9.655 9.655 0 01-5.826-1.952l-3.805-2.901a1.489 1.489 0 01-.587-1.416c.08-.544.444-.993.974-1.201a1.642 1.642 0 011.48.142l4.86 3.107a.932.932 0 001.263-.245.856.856 0 00-.255-1.215l-4.86-3.107a3.522 3.522 0 00-3.176-.305c-1.135.446-1.916 1.41-2.089 2.577-.172 1.169.298 2.304 1.259 3.036l3.805 2.902a11.53 11.53 0 006.957 2.33h6.523c0 .485.407.877.91.877h6.6c.503 0 .911-.392.911-.876s-.408-.877-.91-.877z"/><path d="M35.707 19.293A1.007 1.007 0 0035 19c-.263 0-.521.107-.707.293A1.008 1.008 0 0034 20c0 .264.107.521.293.708.186.186.444.292.707.292.263 0 .521-.106.707-.292.186-.187.293-.445.293-.708 0-.263-.107-.521-.293-.707zM32.071 19h-8.374c-2.089 0-4.162.5-5.995 1.447L5.058 26.976c-.957.494-1.662 1.35-1.934 2.35a3.578 3.578 0 00.494 2.94C4.368 33.381 5.638 34 6.948 34c.598 0 1.205-.13 1.775-.4l9.405-4.458c.459-.217.644-.745.414-1.18-.23-.433-.787-.608-1.246-.39L7.89 32.03c-.963.457-2.126.153-2.706-.707a1.873 1.873 0 01-.261-1.56 1.98 1.98 0 011.025-1.245l12.644-6.529a11.17 11.17 0 015.105-1.232h8.374c.513 0 .929-.393.929-.878 0-.486-.416-.879-.929-.879zm11.668 11.323a.995.995 0 00-1.407-.062l-.009.008a.996.996 0 001.345 1.47l.009-.008a.996.996 0 00.062-1.408zM26.24 35c-.984 0-1.944.317-2.74.889A4.705 4.705 0 0020.76 35C18.137 35 16 37.186 16 39.872c0 1.568 1.177 3.35 3.598 5.445a31.807 31.807 0 003.373 2.53.986.986 0 001.058 0 31.823 31.823 0 003.373-2.53C29.823 43.22 31 41.44 31 39.872 31 37.186 28.864 35 26.24 35zM23.5 46c-2.442-1.685-5.5-4.453-5.5-6.06 0-1.62 1.243-2.94 2.771-2.94.764 0 1.476.323 2.005.91a.971.971 0 00.724.326.975.975 0 00.724-.325A2.674 2.674 0 0126.23 37c1.527 0 2.77 1.32 2.77 2.94 0 1.604-3.059 4.373-5.5 6.06z"/></g></g></svg>