<svg width="367" height="153" viewBox="0 0 154 31" xmlns="http://www.w3.org/2000/svg"><defs><radialGradient cx="68.455%" cy="119.81%" fx="68.455%" fy="119.81%" r="476.759%" gradientTransform="matrix(.19138 0 0 1 .554 0)" id="a"><stop stop-color="#4957AE" offset="0%"/><stop stop-color="#191935" offset="60%"/><stop stop-color="#191935" offset="100%"/></radialGradient></defs><path d="M103.54 29.22c-2.271-1.444-3.22-4.073-2.085-5.77 1.135-1.688 3.856-1.814 6.194-.37 2.271 1.496 3.16 4.066 2.093 5.763-.618.94-1.711 1.411-2.94 1.411-1.05 0-2.212-.336-3.262-1.033m-28.947-2.823c-2.398-.067-3.22-.067-3.22-.067l-1.27-5.628h-3.407s1.008-.63 1.576-1.764c.44-1.058.636-2.503.314-4.2a151.345 151.345 0 00-1.255-6.258c-1.211-5.451 1-7.199 6.186-7.199 1.33 0 3.22.118 4.55.37l1.077 5.14a18.7 18.7 0 00-2.907-.251c-1.076 0-1.711.689-1.644 1.495 0 .689.187 1.445.314 2.075l1.271 5.762h4.923l1.136 4.83h-5.178l1.33 5.821s-1.135-.067-3.796-.126M.203 10.044C.203 5.91 1.973.896 10.566.896c5.06 0 9.796 3.074 10.94 8.467h-7.27c-.577-1.638-1.83-3.452-3.67-3.452-2.211 0-2.78 1.63-2.593 4.326.127 1.377.95 6.258 4.305 6.258 2.398 0 2.593-2.436 2.593-3.377h7.262c.06 5.452-3.915 8.392-9.61 8.392-7.575 0-12.32-5.889-12.32-11.466m22.752-.311c0-5.074 3.033-8.711 10.117-8.711 7.27 0 9.728 5.074 10.237 6.325h-7.084c-.5-1-1.263-1.688-2.84-1.688-1.389 0-2.151.689-2.533 1.377-.373.748-.567 1.63-.5 2.697h13.72c.245.94.372 2.007.372 3.259 0 5.762-4.296 8.4-9.423 8.4-5.558 0-12.066-3.452-12.066-11.66m11.82 7.2c2.085 0 3.093-1.185 2.72-3.444H30.98c.517 1.94 1.83 3.444 3.797 3.444m94.87-7.83c0-3.443 1.382-7.895 7.017-7.895 2.525 0 5.05 1.319 6.127 2.763v-.067c0-.747.059-1.63.38-2.251h7.33c-.38 1-.38 2.696.06 4.696.381 1.688 3.042 14.355 3.042 14.355h-7.33l-.576-2.453c-.881 1.764-2.77 2.949-5.686 2.949-6.77 0-10.363-6.519-10.363-12.096m7.703.563c0 3.015 1.711 6.585 4.304 6.585 2.144 0 2.907-1.445 2.907-3.385 0-4.015-1.958-6.518-4.364-6.518-1.704 0-2.847.94-2.847 3.318m-30.396.31c.06-4.065 1.958-8.77 10.423-8.77 5 0 9.745 2.764 10.94 8.157h-7.27c-.569-1.638-1.831-3.141-3.73-3.141-2.075 0-2.71 1.318-2.524 4.015.059 1.436.89 6.014 4.296 6.014 2.406 0 2.593-2.26 2.533-3.133h7.262c.068 5.452-3.855 8.08-9.609 8.08-7.516 0-12.32-5.577-12.32-11.222M54.3 17.998l.763 2.705h-7.084L44.003 1.652h7.33l2.152 10.088c.441 2.008 1.204 3.63 3.542 3.63 1.195 0 2.085-.63 2.085-1.815 0-.756-.381-2.067-.576-3.2l-1.89-8.703h7.203l2.339 10.777c.313 1.378.508 2.755.508 3.637 0 3.948-3.17 5.133-5.686 5.133-3.17 0-5.186-1.504-6.711-3.2m36.098-.622v.067l.754 3.26h-7.076l-3.99-19.052h7.338l1.711 7.955c.754 3.511 2.271 4.889 4.61 4.889 1.135 0 1.83-.068 3.034-.504l1.39 6.518c-.569.252-1.204.31-2.077.31-2.347 0-4.559-1.629-5.694-3.443m9.66 3.326L96.09 1.652h7.321l3.983 19.051h-7.338z" transform="matrix(1 0 0 -1 0 31)" fill="url(#a)"/></svg>