<svg xmlns="http://www.w3.org/2000/svg" width="53" height="50" viewBox="0 0 53 50"><g fill="none" fill-rule="evenodd"><path fill="#FFD12D" d="M36 17L2 34V0z"/><path fill="#282828" fill-rule="nonzero" d="M31.707 31.293A1.006 1.006 0 0031 31c-.263 0-.521.107-.707.293A1.008 1.008 0 0030 32c0 .263.107.521.293.707.186.186.444.293.707.293.263 0 .521-.107.707-.293.186-.186.293-.444.293-.707 0-.263-.107-.521-.293-.707z"/><path fill="#282828" fill-rule="nonzero" d="M51.965 27.001H47.41v-.948c0-.581-.463-1.053-1.035-1.053-.572 0-1.035.472-1.035 1.053v.948h-4.555c-.572 0-1.035.472-1.035 1.053 0 .582.463 1.053 1.035 1.053h4.555v3.623h-8.281v-1.16c0-.224-.07-.442-.201-.623l-2.159-2.99a3.718 3.718 0 00-3.002-1.547H21.303a3.717 3.717 0 00-3.002 1.547l-2.159 2.99c-.13.18-.2.399-.2.623v1.159H7.66v-3.623h4.555c.572 0 1.035-.472 1.035-1.053 0-.582-.463-1.053-1.035-1.053H7.66v-.948c0-.581-.463-1.053-1.035-1.053-.572 0-1.035.472-1.035 1.053V27H1.035C.464 27 0 27.472 0 28.054c0 .581.464 1.053 1.035 1.053H5.59v3.623H4.348a1.03 1.03 0 00-.822.412c-.195.26-.262.597-.178.913l.805 3.063a2.57 2.57 0 002.472 1.93 2.57 2.57 0 002.472-1.93l.6-2.282h6.244v1.683a3.16 3.16 0 002.048 2.97l-4.661 3.758a1.06 1.06 0 00-.393.825v4.875c0 .581.464 1.053 1.035 1.053.572 0 1.036-.472 1.036-1.053v-4.365l4.956-3.995a7.343 7.343 0 005.473 2.46h2.13c2.096 0 4.06-.9 5.444-2.428l4.77 3.954v4.374c0 .581.464 1.053 1.035 1.053.572 0 1.036-.472 1.036-1.053v-4.875c0-.316-.14-.616-.382-.816L34.95 39.51a3.16 3.16 0 002.109-2.992v-1.683h6.244l.6 2.282a2.57 2.57 0 002.472 1.93 2.57 2.57 0 002.472-1.93l.805-3.063a1.067 1.067 0 00-.178-.914 1.03 1.03 0 00-.822-.411H47.41v-3.623h4.555c.571 0 1.035-.472 1.035-1.053 0-.582-.463-1.053-1.035-1.053zM7.097 36.574a.49.49 0 01-.472.368.49.49 0 01-.472-.368l-.457-1.738h1.858l-.457 1.738zm20.468 4.367h-2.13a5.275 5.275 0 01-3.42-1.263h8.97a5.276 5.276 0 01-3.42 1.263zm7.423-4.422c0 .581-.464 1.053-1.035 1.053H19.047c-.57 0-1.035-.472-1.035-1.053v-3.895h9.385c.572 0 1.035-.471 1.035-1.053 0-.581-.463-1.053-1.035-1.053h-8.376l.949-1.314a1.65 1.65 0 011.333-.687h10.394c.525 0 1.023.257 1.334.687l1.957 2.712v4.603zm11.859.055a.49.49 0 01-.472.368.49.49 0 01-.472-.368l-.457-1.738h1.858l-.457 1.738z"/></g></svg>