<svg xmlns="http://www.w3.org/2000/svg" width="50" height="50" viewBox="0 0 50 50"><g fill="none"><path fill="#FFD12D" d="M18 0C8.059 0 0 8.059 0 18s8.059 18 18 18 18-8.059 18-18S27.941 0 18 0z"/><path fill="#FFF" d="M24.28 11l-8.55 8.999-4.38-4.545L9 17.88 15.907 25 27 13.884z"/><path d="M49.88 45.528a3.596 3.596 0 00-3.48-2.658 3.54 3.54 0 00-3.487 2.69H41.9c-.992 0-1.8-.835-1.8-1.817v-7.178h2.176c3.855.004 6.983-3.085 6.987-6.899a6.891 6.891 0 00-3.334-5.898 9.37 9.37 0 00.039-.82c.002-5.492-4.496-9.946-10.047-9.948-1.956 0-3.87.564-5.507 1.624a10.113 10.113 0 00-3.34 3.59 9.073 9.073 0 00-.955-.05 8.033 8.033 0 00-4.877 1.637 8.285 8.285 0 00-2.769 3.739 7.046 7.046 0 00-1.686 1.225 6.86 6.86 0 00-.007 9.772 7.02 7.02 0 004.945 2.028H23.9v7.178c0 .982-.807 1.817-1.8 1.817h-1.014a3.54 3.54 0 00-3.486-2.69c-1.99.001-3.601 1.598-3.6 3.567.001 1.968 1.615 3.563 3.604 3.562a3.596 3.596 0 003.482-2.658H22.1c1.985 0 3.6-1.634 3.6-3.598v-7.178h5.4v6.4c-1.925.491-3.083 2.434-2.586 4.34.497 1.904 2.46 3.05 4.386 2.558 1.925-.492 3.082-2.435 2.585-4.34a3.581 3.581 0 00-2.585-2.558v-6.4h5.4v7.178a3.616 3.616 0 003.6 3.598h1.013c.506 1.904 2.476 3.042 4.4 2.541 1.924-.5 3.073-2.45 2.568-4.354zM17.6 48.196a1.79 1.79 0 01-1.8-1.781 1.79 1.79 0 011.8-1.782c.994 0 1.8.798 1.8 1.782a1.793 1.793 0 01-1.8 1.78zm16.2-1.781a1.79 1.79 0 01-1.8 1.78 1.79 1.79 0 01-1.8-1.78 1.79 1.79 0 011.8-1.782 1.793 1.793 0 011.8 1.782zM21.724 34.783c-2.863-.002-5.184-2.298-5.187-5.132a5.07 5.07 0 011.521-3.627 5.347 5.347 0 011.53-1.045l.362-.167.117-.378c.822-2.643 3.31-4.49 6.051-4.49.432-.001.864.039 1.288.12l.695.137.299-.636a8.331 8.331 0 013.002-3.452c3.814-2.468 8.927-1.41 11.42 2.365a8.103 8.103 0 011.345 4.471 10.69 10.69 0 01-.075 1.111l-.074.725.555.274c2.565 1.257 3.615 4.333 2.346 6.87a5.187 5.187 0 01-4.644 2.854h-20.55zM46.4 48.196a1.79 1.79 0 01-1.8-1.781 1.79 1.79 0 011.8-1.782c.994 0 1.8.798 1.8 1.782a1.793 1.793 0 01-1.8 1.78z" fill="#282828"/></g></svg>