<svg xmlns="http://www.w3.org/2000/svg" width="50" height="50" viewBox="0 0 50 50"><g fill="none"><path fill="#FFD12D" d="M18 0C8.059 0 0 8.059 0 18s8.059 18 18 18 18-8.059 18-18S27.941 0 18 0z"/><path fill="#FFF" d="M24.28 11l-8.55 8.999-4.38-4.545L9 17.88 15.907 25 27 13.884z"/><path fill="#000" d="M36 38a1 1 0 100 2 1 1 0 000-2zm-7-15a1 1 0 10-2 0 1 1 0 002 0zm-9 17a1 1 0 100-2 1 1 0 000 2z"/><path fill="#282828" d="M49.49 43.737l-4.647-2.075v-18.97a.869.869 0 00-.527-.798L28.859 15.21V8.864A.862.862 0 0028 8a.862.862 0 00-.86.864v6.345l-15.456 6.685a.87.87 0 00-.527.798v18.97L6.51 43.737a.866.866 0 00-.437 1.141.857.857 0 001.135.439l4.812-2.15 15.64 6.764c.206.09.46.095.679 0l15.639-6.764 4.812 2.15a.857.857 0 001.135-.439.866.866 0 00-.437-1.14zM27.14 17.091v2.144c0 .477.385.864.86.864.474 0 .86-.387.86-.864v-2.144l12.95 5.601L28 28.665l-13.81-5.973 12.95-5.601zM17.395 39.82a.858.858 0 00-1.134-.44l-3.385 1.514v-16.89l14.266 6.17v17.65L14.16 42.21l2.797-1.25a.867.867 0 00.436-1.14zm11.465 8.005v-17.65l14.266-6.17v16.889L39.74 39.38a.857.857 0 00-1.134.439.866.866 0 00.436 1.14l2.797 1.25-12.98 5.615z"/></g></svg>