<svg xmlns="http://www.w3.org/2000/svg" width="50" height="50" viewBox="0 0 50 50"><g fill="none"><path fill="#FFD12D" d="M18 0C8.059 0 0 8.059 0 18s8.059 18 18 18 18-8.059 18-18S27.941 0 18 0z"/><path fill="#FFF" d="M24.28 11l-8.55 8.999-4.38-4.545L9 17.88 15.907 25 27 13.884z"/><g fill="#282828"><path d="M36.445 30.501l-.643.429A3.005 3.005 0 0033 29c-1.277 0-2.37.803-2.802 1.93l-.643-.429a1 1 0 10-1.11 1.664l1.931 1.288A3.003 3.003 0 0033 35c1.127 0 2.11-.626 2.624-1.547l1.93-1.288a1 1 0 10-1.109-1.664zM33 33a1.001 1.001 0 010-2 1.001 1.001 0 010 2z"/><path d="M50 32.303c0-2.094-1.355-3.934-3.373-4.578-3.123-.996-6.178-2.444-8.602-4.078C36.425 22.57 34.515 22 32.5 22c-2.015 0-3.925.57-5.525 1.647-2.424 1.634-5.48 3.082-8.602 4.078C16.355 28.37 15 30.21 15 32.303c0 .967.29 1.9.84 2.7l3.33 4.85v3.737c0 1.866 1.496 3.55 4.213 4.742C25.835 49.408 29.073 50 32.5 50c3.427 0 6.665-.592 9.117-1.668 2.717-1.192 4.213-2.876 4.213-4.742v-3.737l3.33-4.85c.55-.8.84-1.733.84-2.7zm-6.22 8.057v1.983a58.23 58.23 0 00-11.28-1.108c-3.767 0-7.534.37-11.28 1.108V40.36a55.954 55.954 0 0122.56 0zm-2.996 6.122c-2.195.963-5.138 1.494-8.284 1.494-3.146 0-6.089-.53-8.284-1.494-1.393-.61-2.369-1.364-2.779-2.117a55.94 55.94 0 0122.125 0c-.41.753-1.385 1.506-2.778 2.117zm6.679-12.614l-3.119 4.541a58.02 58.02 0 00-23.688 0l-3.119-4.541a2.753 2.753 0 01-.486-1.565c0-1.213.785-2.279 1.953-2.651 3.304-1.054 6.546-2.593 9.128-4.333 1.257-.847 2.767-1.295 4.368-1.295 1.6 0 3.111.448 4.368 1.295 2.582 1.74 5.824 3.279 9.128 4.333a2.782 2.782 0 011.953 2.651c0 .56-.168 1.101-.486 1.565z"/></g></g></svg>