<svg width="400" height="400" viewBox="0 0 400 400" xmlns="http://www.w3.org/2000/svg"><path d="M221.8 206.8l-4 .2 2.4.474c1.32.261 3.39.588 4.6.726 1.21.138 3.46.595 5 1.015 1.54.421 3.79 1.025 5 1.343 4.885 1.284 11.335 3.438 13.8 4.609 6.125 2.91 11.102 5.436 12.885 6.541 2.832 1.754 7.701 5.094 8.871 6.083 12.084 10.223 17.235 17.811 22.406 33.009 2.405 7.066 2.423 24.357.034 32.2-1.246 4.092-3.246 9.848-3.821 11-.275.55-1.16 2.39-1.967 4.09-1.332 2.805-3.673 6.803-6.758 11.543-.633.972-2.167 3.027-3.41 4.567-1.242 1.54-2.728 3.43-3.302 4.2-1.452 1.95-10.118 10.591-12.538 12.502-1.1.868-2.72 2.236-3.6 3.039-.88.803-2.466 2.089-3.525 2.859-1.059.77-2.409 1.777-3 2.237-1.101.857-6.366 4.408-8.875 5.986-3.919 2.463-16.225 8.977-16.961 8.977-.258 0-1.183.368-2.054.818-2.208 1.139-7.083 3.182-7.593 3.182-.232 0-1.136.365-2.007.812-.872.446-2.657 1.091-3.967 1.432-1.311.341-2.841.844-3.4 1.117-.56.273-2.908 1-5.218 1.616-2.31.616-5.73 1.536-7.6 2.045-1.87.509-4.39 1.042-5.6 1.185-1.21.142-3.19.518-4.4.835-4.381 1.149-20.493 2.544-29.456 2.551-7.669.006-8.542.077-9.383.758-.924.749-.914.752 3.256 1.012 2.301.144 7.216.463 10.922.708 9.335.617 31.15-.297 35.232-1.476 1.116-.323 3.792-.768 5.947-.99 2.154-.221 4.458-.682 5.119-1.024.661-.342 2.734-.795 4.607-1.008 1.873-.213 3.823-.661 4.333-.995.51-.334 2.011-.782 3.337-.995 1.326-.214 3.192-.743 4.148-1.177.956-.434 2.188-.794 2.738-.801.55-.007 1.9-.455 3-.996 1.1-.541 2.434-.99 2.965-.996.531-.007 1.701-.439 2.6-.959s2.346-1.075 3.215-1.233c.868-.158 1.948-.547 2.4-.864.451-.317 1.54-.769 2.42-1.004.88-.235 1.87-.658 2.2-.94.33-.281 1.32-.741 2.2-1.021.88-.279 2.003-.822 2.497-1.205.493-.383 1.503-.811 2.245-.95.741-.139 1.668-.606 2.058-1.037.39-.431 1.303-.896 2.027-1.031.725-.136 1.407-.482 1.517-.768.11-.286.888-.747 1.728-1.024s1.978-.807 2.528-1.178c3.041-2.05 4.285-2.799 4.65-2.799.224 0 1.115-.535 1.979-1.189.864-.654 1.768-1.194 2.009-1.2.241-.006.764-.371 1.162-.811.398-.44.938-.8 1.2-.8s.818-.378 1.237-.841c.419-.462 1.302-1.117 1.962-1.454.661-.337 1.345-.859 1.521-1.159.176-.3.559-.546.851-.546.292 0 .757-.272 1.032-.604.457-.551 5.646-4.644 7.093-5.596.335-.22 1.375-1.165 2.312-2.1.937-.935 1.815-1.7 1.951-1.7.4 0 7.441-7.214 7.441-7.625 0-.206.27-.375.6-.375.33 0 .6-.174.6-.386 0-.213.495-.93 1.1-1.595 1.61-1.77 4.082-4.824 6.328-7.819.33-.44 1.133-1.5 1.786-2.355.652-.855 1.186-1.769 1.186-2.03 0-.262.45-.898 1-1.415s1-1.197 1-1.512c0-.315.45-1.107 1-1.761.55-.654 1-1.42 1-1.704 0-.283.334-.944.742-1.469.408-.525.957-1.615 1.22-2.422.264-.807.731-1.677 1.039-1.933.308-.255.679-1.262.826-2.236.146-.975.608-2.209 1.028-2.742.419-.533.952-2.016 1.185-3.295.232-1.279.67-2.714.975-3.187.304-.474.749-2.454.988-4.4.24-1.947.697-4.555 1.016-5.797.754-2.932.753-9.81-.002-12.48-.32-1.134-.782-3.572-1.026-5.417-.244-1.845-.693-3.735-.997-4.2-.305-.465-.673-1.655-.82-2.645-.146-.99-.678-2.43-1.182-3.2-.504-.77-1.034-1.966-1.177-2.659-.143-.692-.61-1.575-1.038-1.962-.427-.386-.777-1.007-.777-1.379 0-.372-.344-.987-.763-1.367-.42-.38-.996-1.263-1.28-1.962-.284-.699-.841-1.506-1.237-1.794-.396-.287-.72-.788-.72-1.112 0-.325-.255-.688-.567-.808-.311-.119-1.018-.879-1.569-1.687-1.274-1.866-4.98-5.686-8.025-8.27-1.297-1.1-2.789-2.405-3.316-2.9-.528-.495-1.139-.9-1.359-.9-.22 0-.809-.405-1.308-.9s-1.571-1.212-2.382-1.594c-.811-.381-1.474-.862-1.474-1.068 0-.206-.521-.489-1.159-.629-.637-.14-1.465-.594-1.841-1.009-.376-.415-1.18-.864-1.787-.997-.608-.134-1.474-.587-1.925-1.007-.451-.42-1.33-.887-1.954-1.038-.624-.151-1.584-.586-2.134-.967-.55-.38-1.577-.816-2.281-.969-.705-.152-1.695-.6-2.2-.993-.506-.394-1.761-.841-2.791-.993-1.029-.152-2.289-.598-2.8-.991-.51-.392-2.164-.914-3.674-1.159-1.51-.244-3.04-.697-3.4-1.006-.36-.309-2.117-.761-3.906-1.004-1.788-.244-3.858-.708-4.6-1.033-.741-.325-3.351-.775-5.799-1.001-2.449-.225-5.149-.673-6-.995-1.708-.645-12.467-1.001-19.549-.647m-87.4 172c-.406.262.758.372 3.6.34 3.557-.04 3.894-.095 2.2-.358-2.831-.441-5.1-.434-5.8.018" fill="#2a2520" fill-rule="evenodd"/><path d="M212.2 205.663c-15.441.558-18.324 1.397-8 2.33 5.776.521 17.657 3.382 21.711 5.228.941.428 1.916.779 2.168.779.936 0 9.004 3.98 10.675 5.266.525.404 1.134.734 1.354.734 1.297 0 13.492 10.541 13.492 11.662 0 .17.518.901 1.15 1.624 6.819 7.789 10.247 26.625 6.623 36.388-.352.949-.953 2.806-1.334 4.126-.382 1.32-.894 2.76-1.138 3.2-.244.44-1.11 2.199-1.924 3.908-.815 1.71-1.632 3.203-1.817 3.317-.186.114-.703.966-1.15 1.892-.447.925-1.221 2.223-1.72 2.883-.499.66-1.449 1.938-2.112 2.84-10.08 13.724-34.242 31.566-49.472 36.531-.822.268-1.591.642-1.708.832-.117.189-1.244.643-2.505 1.009-1.261.365-2.473.798-2.693.961-.446.332-5.815 2.163-11 3.751-13.752 4.212-36.148 7.45-47.8 6.91-8.72-.404-27.342-3.357-30-4.757-.44-.232-1.7-.645-2.8-.919-18.896-4.707-35.289-20.537-38.788-37.455-1.431-6.921-2.325-8.124-3.021-4.068a306.804 306.804 0 01-1.076 5.765c-.903 4.583-.919 12.832-.033 16.8.369 1.65.789 3.774.933 4.721.466 3.054 3.756 12.051 5.295 14.479.488.77.888 1.526.889 1.68.001.357 1.961 3.289 4.76 7.12 4.057 5.553 12.161 12.914 19.441 17.659 3.75 2.444 13.758 7.541 14.807 7.541.168 0 1.045.342 1.949.76.904.418 3.174 1.324 5.044 2.013 1.87.689 3.85 1.498 4.4 1.797.55.299 2.126.829 3.502 1.179 1.377.35 2.907.893 3.4 1.207.494.314 1.95.784 3.236 1.044 1.286.26 2.906.704 3.6.987.694.283 2.162.637 3.262.788 1.1.15 3.26.616 4.8 1.036 1.54.42 5.23.952 8.2 1.182 2.97.23 6.39.64 7.6.912 2.979.67 23.753.669 26.8-.001 1.21-.266 4.9-.678 8.2-.915 3.3-.238 6.9-.682 8-.988 1.1-.306 3.62-.832 5.6-1.17 1.98-.338 4.584-.888 5.787-1.223 1.203-.334 2.61-.608 3.126-.608s1.782-.353 2.813-.784c1.031-.431 3.044-.984 4.474-1.229 1.43-.245 2.994-.699 3.475-1.009.481-.31 1.741-.753 2.8-.985 1.925-.421 4.387-1.292 8.525-3.016 1.21-.504 2.869-1.039 3.686-1.189.817-.149 1.693-.522 1.946-.827.254-.305 1.205-.753 2.115-.995.909-.242 1.923-.671 2.253-.953.33-.281 1.32-.737 2.2-1.013.88-.276 1.87-.718 2.2-.983.33-.265 1.455-.797 2.5-1.182 1.045-.386 1.9-.847 1.9-1.025 0-.178.495-.445 1.1-.594.605-.148 1.508-.534 2.006-.856.498-.323 2.298-1.317 4-2.21s3.364-1.855 3.694-2.139c.33-.283 1.213-.825 1.962-1.205.75-.38 1.56-.859 1.8-1.063.241-.205 1.585-1.131 2.986-2.058 6.513-4.307 7.703-5.118 8.452-5.762.33-.283 2.4-1.986 4.6-3.784 8.613-7.041 23-22.142 23-24.142 0-.164 1.242-1.905 3.41-4.778.325-.43.59-.956.59-1.169 0-.213.25-.671.557-1.019.753-.854 5.443-9.903 5.443-10.502 0-.262.347-1.208.771-2.103 1.096-2.312 2.771-7.5 3.071-9.515.14-.941.62-3.061 1.066-4.711 1.076-3.983 1.169-17.082.141-20.038-.351-1.012-.896-3.172-1.21-4.8-.314-1.629-.856-3.502-1.203-4.162-.347-.66-.632-1.4-.634-1.644-.005-.91-3.816-8.403-5.914-11.628-4.896-7.526-19.685-21.328-22.854-21.328-.179 0-.799-.372-1.378-.827-1.186-.933-9.374-5.166-10.03-5.186-.234-.006-1.501-.546-2.816-1.2-1.314-.653-2.704-1.187-3.089-1.187-.385 0-1.469-.343-2.41-.762-2.007-.894-7.504-2.649-9.511-3.037-.77-.149-2.48-.592-3.8-.985-1.32-.393-3.66-.844-5.2-1.002-1.54-.158-4.24-.622-6-1.029-2.975-.689-5.375-.852-19.6-1.333-2.2-.074-8.32.021-13.6.211m29.149 1.784c.851.322 3.551.77 6 .995 2.448.226 5.058.676 5.799 1.001.742.325 2.812.789 4.6 1.033 1.789.243 3.546.695 3.906 1.004.36.309 1.89.762 3.4 1.006 1.51.245 3.164.767 3.674 1.159.511.393 1.771.839 2.8.991 1.03.152 2.285.599 2.791.993.505.393 1.495.841 2.2.993.704.153 1.731.589 2.281.969.55.381 1.51.816 2.134.967.624.151 1.503.618 1.954 1.038.451.42 1.317.873 1.925 1.007.607.133 1.411.582 1.787.997.376.415 1.204.869 1.841 1.009.638.14 1.159.423 1.159.629 0 .206.663.687 1.474 1.068.811.382 1.883 1.099 2.382 1.594.499.495 1.088.9 1.308.9.22 0 .831.405 1.359.9.527.495 2.019 1.8 3.316 2.9 3.045 2.584 6.751 6.404 8.025 8.27.551.808 1.258 1.568 1.569 1.687.312.12.567.483.567.808 0 .324.324.825.72 1.112.396.288.953 1.095 1.237 1.794.284.699.86 1.582 1.28 1.962.419.38.763.995.763 1.367s.35.993.777 1.379c.428.387.895 1.27 1.038 1.962.143.693.673 1.889 1.177 2.659.504.77 1.036 2.21 1.182 3.2.147.99.515 2.18.82 2.645.304.465.753 2.355.997 4.2.244 1.845.706 4.283 1.026 5.417.755 2.67.756 9.548.002 12.48-.319 1.242-.776 3.85-1.016 5.797-.239 1.946-.684 3.926-.988 4.4-.305.473-.743 1.908-.975 3.187-.233 1.279-.766 2.762-1.185 3.295-.42.533-.882 1.767-1.028 2.742-.147.974-.518 1.981-.826 2.236-.308.256-.775 1.126-1.039 1.933-.263.807-.812 1.897-1.22 2.422-.408.525-.742 1.186-.742 1.469 0 .284-.45 1.05-1 1.704-.55.654-1 1.446-1 1.761 0 .315-.45.995-1 1.512s-1 1.153-1 1.415c0 .261-.534 1.175-1.186 2.03-.653.855-1.456 1.915-1.786 2.355-2.246 2.995-4.718 6.049-6.328 7.819-.605.665-1.1 1.382-1.1 1.595 0 .212-.27.386-.6.386-.33 0-.6.169-.6.375 0 .411-7.041 7.625-7.441 7.625-.136 0-1.014.765-1.951 1.7-.937.935-1.977 1.88-2.312 2.1-1.447.952-6.636 5.045-7.093 5.596-.275.332-.74.604-1.032.604-.292 0-.675.246-.851.546-.176.3-.86.822-1.521 1.159-.66.337-1.543.992-1.962 1.454-.419.463-.975.841-1.237.841-.262 0-.802.36-1.2.8-.398.44-.921.805-1.162.811-.241.006-1.145.546-2.009 1.2-.864.654-1.755 1.189-1.979 1.189-.365 0-1.609.749-4.65 2.799-.55.371-1.688.901-2.528 1.178-.84.277-1.618.738-1.728 1.024-.11.286-.792.632-1.517.768-.724.135-1.637.6-2.027 1.031-.39.431-1.317.898-2.058 1.037-.742.139-1.752.567-2.245.95-.494.383-1.617.926-2.497 1.205-.88.28-1.87.74-2.2 1.021-.33.282-1.32.705-2.2.94-.88.235-1.969.687-2.42 1.004-.452.317-1.532.706-2.4.864-.869.158-2.316.713-3.215 1.233-.899.52-2.069.952-2.6.959-.531.006-1.865.455-2.965.996-1.1.541-2.45.989-3 .996-.55.007-1.782.367-2.738.801-.956.434-2.822.963-4.148 1.177-1.326.213-2.827.661-3.337.995-.51.334-2.46.782-4.333.995-1.873.213-3.946.666-4.607 1.008-.661.342-2.965.803-5.119 1.024-2.155.222-4.831.667-5.947.99-4.082 1.179-25.897 2.093-35.232 1.476-3.706-.245-8.621-.564-10.922-.708-4.17-.26-4.18-.263-3.256-1.012.841-.681 1.714-.752 9.383-.758 8.963-.007 25.075-1.402 29.456-2.551 1.21-.317 3.19-.693 4.4-.835 1.21-.143 3.73-.676 5.6-1.185 1.87-.509 5.29-1.429 7.6-2.045 2.31-.616 4.658-1.343 5.218-1.616.559-.273 2.089-.776 3.4-1.117 1.31-.341 3.095-.986 3.967-1.432.871-.447 1.775-.812 2.007-.812.51 0 5.385-2.043 7.593-3.182.871-.45 1.796-.818 2.054-.818.736 0 13.042-6.514 16.961-8.977 2.509-1.578 7.774-5.129 8.875-5.986.591-.46 1.941-1.467 3-2.237s2.645-2.056 3.525-2.859c.88-.803 2.5-2.171 3.6-3.039 2.42-1.911 11.086-10.552 12.538-12.502.574-.77 2.06-2.66 3.302-4.2 1.243-1.54 2.777-3.595 3.41-4.567 3.085-4.74 5.426-8.738 6.758-11.543.807-1.7 1.692-3.54 1.967-4.09.575-1.152 2.575-6.908 3.821-11 2.389-7.843 2.371-25.134-.034-32.2-5.171-15.198-10.322-22.786-22.406-33.009-1.17-.989-6.039-4.329-8.871-6.083-1.783-1.105-6.76-3.631-12.885-6.541-2.465-1.171-8.915-3.325-13.8-4.609-1.21-.318-3.46-.922-5-1.343-1.54-.42-3.79-.877-5-1.015a69.269 69.269 0 01-4.6-.726l-2.4-.474 4-.2c7.082-.354 17.841.002 19.549.647M140.2 378.782c1.694.263 1.357.318-2.2.358-2.842.032-4.006-.078-3.6-.34.7-.452 2.969-.459 5.8-.018" fill="#29853b" fill-rule="evenodd"/><path d="M176.41 12.588c-.397.479-.357 1.576.2 5.484 1.613 11.307-1.684 26.588-8.356 38.728-.665 1.21-1.579 2.92-2.032 3.8-.452.88-1.169 2.14-1.594 2.8-2.7 4.2-6.21 9.322-8.633 12.6-2.607 3.527-3.693 5.032-5.484 7.6-.384.55-1.514 2.08-2.513 3.4-.998 1.32-2.171 2.92-2.607 3.556a104.04 104.04 0 01-1.591 2.248c-3.043 4.15-10.1 14.881-11.44 17.396-.469.88-1.078 1.87-1.353 2.2-1.422 1.704-9.004 16.945-9.009 18.109-.002.27-.287 1.031-.634 1.691-.347.66-.966 2.46-1.376 4-.41 1.54-1.003 3.61-1.318 4.6-.51 1.603-1.1 4.235-2.244 10-2.586 13.037-2.312 35.21.478 38.758 2.205 2.804 4.212 1.523 8.096-5.169 2.033-3.504 5.816-9.12 9.009-13.378.994-1.326 2.112-2.861 2.483-3.411 1.321-1.958 6.77-8.778 22.691-28.4 9.232-11.379 16.777-21.662 18.488-25.2.266-.55.764-1.333 1.106-1.74.713-.847 1.263-1.877 4.723-8.846 1.375-2.769 2.5-5.232 2.5-5.474s.434-1.452.964-2.69c3.889-9.083 5.792-21.766 5.272-35.135-.355-9.137-.877-12.841-2.89-20.515-.318-1.21-.836-3.35-1.153-4.756-.316-1.406-.825-2.939-1.131-3.406-.307-.467-.681-1.477-.832-2.244-.399-2.019-2.754-7.293-5.825-13.043-1.554-2.911-3.268-4.439-3.995-3.563m21.758 43.197c-.263 1.047-.199 2 .649 9.682.438 3.965.445 5.633.039 9a599.083 599.083 0 00-.874 7.733c-.401 3.846-1.623 9.653-2.651 12.6-.345.99-.883 2.848-1.194 4.129-.311 1.281-.92 2.988-1.352 3.794-.432.806-.785 1.686-.785 1.956 0 .408-3.518 7.781-5.562 11.656-1.758 3.335-9.158 13.749-15.392 21.663a1622.587 1622.587 0 00-2.515 3.2c-.257.331-2.237 2.799-4.4 5.485-2.162 2.685-5.911 7.347-8.331 10.359-2.42 3.013-6.11 7.602-8.2 10.199-6.144 7.636-11.257 14.854-16.546 23.36-2.824 4.543-7.238 13.816-9.899 20.799l-1.981 5.2c-.419 1.1-.932 2.9-1.139 4-.207 1.1-.746 3.44-1.196 5.2-1.908 7.455-1.675 22.672.487 31.8.339 1.43.794 3.41 1.011 4.4.217.99.707 2.7 1.088 3.8 1.833 5.293 3.078 8.528 3.792 9.854.431.8.783 1.704.783 2.008 0 .304.425 1.179.944 1.945.518.766 1.073 1.804 1.231 2.306.471 1.496 4.564 7.189 5.802 8.07 3.758 2.677 6.059-.523 4.844-6.738-1.103-5.643.165-16.78 2.76-24.245 4.649-13.369 17.685-30.241 35.723-46.235l6.45-5.721c1.515-1.344 2.886-2.534 3.048-2.644.393-.268 5.883-5.176 9.38-8.386 7.873-7.225 17.002-18.012 20.197-23.864.465-.853 1.464-2.54 2.218-3.75.755-1.21 1.379-2.435 1.387-2.721.009-.287.466-1.184 1.016-1.993.55-.809 1-1.733 1-2.053 0-.319.355-1.313.788-2.208 5.353-11.058 8.609-33.661 6.63-46.025-.317-1.98-.861-5.4-1.209-7.6-.793-5.006-2.554-10.898-5.919-19.8-1.035-2.74-6.074-12.739-7.391-14.667a170.597 170.597 0 01-1.936-2.932c-3.38-5.231-10.861-13.601-12.157-13.601-.215 0-.502.443-.638.985" fill="#d2372c" fill-rule="evenodd"/><path d="M0 200v200h400V0H0v200M178.966 13.951c.425.523 1.072 1.513 1.439 2.2 3.071 5.75 5.426 11.024 5.825 13.043.151.767.525 1.777.832 2.244.306.467.815 2 1.131 3.406.317 1.406.835 3.546 1.153 4.756 4.792 18.263 3.81 41.188-2.382 55.65-.53 1.238-.964 2.448-.964 2.69s-1.125 2.705-2.5 5.474c-3.46 6.969-4.01 7.999-4.723 8.846-.342.407-.84 1.19-1.106 1.74-1.711 3.538-9.256 13.821-18.488 25.2-15.921 19.622-21.37 26.442-22.691 28.4-.371.55-1.489 2.085-2.483 3.411-3.193 4.258-6.976 9.874-9.009 13.378-3.884 6.692-5.891 7.973-8.096 5.169-2.79-3.548-3.064-25.721-.478-38.758 1.144-5.765 1.734-8.397 2.244-10 .315-.99.908-3.06 1.318-4.6.41-1.54 1.029-3.34 1.376-4 .347-.66.632-1.421.634-1.691.005-1.164 7.587-16.405 9.009-18.109.275-.33.884-1.32 1.353-2.2 1.34-2.515 8.397-13.246 11.44-17.396a104.04 104.04 0 001.591-2.248c.436-.636 1.609-2.236 2.607-3.556.999-1.32 2.129-2.85 2.513-3.4 1.791-2.568 2.877-4.073 5.484-7.6 2.423-3.278 5.933-8.4 8.633-12.6.425-.66 1.142-1.92 1.594-2.8.453-.88 1.367-2.59 2.032-3.8 6.672-12.14 9.969-27.421 8.356-38.728-.911-6.391-.322-7.421 2.356-4.121m23.203 43.671c2.857 2.714 6.347 6.992 8.794 10.779.639.989 1.51 2.309 1.936 2.932 1.317 1.928 6.356 11.927 7.391 14.667 3.365 8.902 5.126 14.794 5.919 19.8.348 2.2.892 5.62 1.209 7.6 1.979 12.364-1.277 34.967-6.63 46.025-.433.895-.788 1.889-.788 2.208 0 .32-.45 1.244-1 2.053-.55.809-1.007 1.706-1.016 1.993-.008.286-.632 1.511-1.387 2.721-.754 1.21-1.753 2.897-2.218 3.75-3.195 5.852-12.324 16.639-20.197 23.864-3.497 3.21-8.987 8.118-9.38 8.386-.162.11-1.533 1.3-3.048 2.644l-6.45 5.721c-18.038 15.994-31.074 32.866-35.723 46.235-2.595 7.465-3.863 18.602-2.76 24.245 1.215 6.215-1.086 9.415-4.844 6.738-1.238-.881-5.331-6.574-5.802-8.07-.158-.502-.713-1.54-1.231-2.306-.519-.766-.944-1.641-.944-1.945 0-.304-.352-1.208-.783-2.008-.714-1.326-1.959-4.561-3.792-9.854-.381-1.1-.871-2.81-1.088-3.8-.217-.99-.672-2.97-1.011-4.4-2.162-9.128-2.395-24.345-.487-31.8.45-1.76.989-4.1 1.196-5.2.207-1.1.72-2.9 1.139-4l1.981-5.2c2.661-6.983 7.075-16.256 9.899-20.799 5.289-8.506 10.402-15.724 16.546-23.36 2.09-2.597 5.78-7.186 8.2-10.199 2.42-3.012 6.169-7.674 8.331-10.359 2.163-2.686 4.143-5.154 4.4-5.485.258-.331 1.39-1.771 2.515-3.2 6.234-7.914 13.634-18.328 15.392-21.663 2.044-3.875 5.562-11.248 5.562-11.656 0-.27.353-1.15.785-1.956.432-.806 1.041-2.513 1.352-3.794.311-1.281.849-3.139 1.194-4.129 1.028-2.947 2.25-8.754 2.651-12.6.207-1.98.6-5.46.874-7.733.406-3.367.399-5.035-.039-9-1.348-12.216-1.32-12.282 3.352-7.845M236 205.816c3.829.141 7.424.511 9.4.969 1.76.407 4.46.871 6 1.029 1.54.158 3.88.609 5.2 1.002 1.32.393 3.03.836 3.8.985 2.007.388 7.504 2.143 9.511 3.037.941.419 2.025.762 2.41.762.385 0 1.775.534 3.089 1.187 1.315.654 2.582 1.194 2.816 1.2.656.02 8.844 4.253 10.03 5.186.579.455 1.199.827 1.378.827 3.169 0 17.958 13.802 22.854 21.328 2.098 3.225 5.909 10.718 5.914 11.628.002.244.287.984.634 1.644.347.66.889 2.533 1.203 4.162.314 1.628.859 3.788 1.21 4.8 1.028 2.956.935 16.055-.141 20.038-.446 1.65-.926 3.77-1.066 4.711-.3 2.015-1.975 7.203-3.071 9.515-.424.895-.771 1.841-.771 2.103 0 .599-4.69 9.648-5.443 10.502-.307.348-.557.806-.557 1.019 0 .213-.265.739-.59 1.169-2.168 2.873-3.41 4.614-3.41 4.778 0 2-14.387 17.101-23 24.142-2.2 1.798-4.27 3.501-4.6 3.784-.749.644-1.939 1.455-8.452 5.762-1.401.927-2.745 1.853-2.986 2.058-.24.204-1.05.683-1.8 1.063-.749.38-1.632.922-1.962 1.205-.33.284-1.992 1.246-3.694 2.139-1.702.893-3.502 1.887-4 2.21-.498.322-1.401.708-2.006.856-.605.149-1.1.416-1.1.594s-.855.639-1.9 1.025c-1.045.385-2.17.917-2.5 1.182-.33.265-1.32.707-2.2.983-.88.276-1.87.732-2.2 1.013-.33.282-1.344.711-2.253.953-.91.242-1.861.69-2.115.995-.253.305-1.129.678-1.946.827-.817.15-2.476.685-3.686 1.189-4.138 1.724-6.6 2.595-8.525 3.016-1.059.232-2.319.675-2.8.985-.481.31-2.045.764-3.475 1.009-1.43.245-3.443.798-4.474 1.229-1.031.431-2.297.784-2.813.784s-1.923.274-3.126.608c-1.203.335-3.807.885-5.787 1.223-1.98.338-4.5.864-5.6 1.17-1.1.306-4.7.75-8 .988-3.3.237-6.99.649-8.2.915-3.047.67-23.821.671-26.8.001-1.21-.272-4.63-.682-7.6-.912-2.97-.23-6.66-.762-8.2-1.182-1.54-.42-3.7-.886-4.8-1.036-1.1-.151-2.568-.505-3.262-.788-.694-.283-2.314-.727-3.6-.987s-2.742-.73-3.236-1.044c-.493-.314-2.023-.857-3.4-1.207-1.376-.35-2.952-.88-3.502-1.179-.55-.299-2.53-1.108-4.4-1.797-1.87-.689-4.14-1.595-5.044-2.013-.904-.418-1.781-.76-1.949-.76-1.049 0-11.057-5.097-14.807-7.541-7.28-4.745-15.384-12.106-19.441-17.659-2.799-3.831-4.759-6.763-4.76-7.12-.001-.154-.401-.91-.889-1.68-1.539-2.428-4.829-11.425-5.295-14.479-.144-.947-.564-3.071-.933-4.721-.886-3.968-.87-12.217.033-16.8.368-1.87.852-4.464 1.076-5.765.696-4.056 1.59-2.853 3.021 4.068 3.499 16.918 19.892 32.748 38.788 37.455 1.1.274 2.36.687 2.8.919 2.658 1.4 21.28 4.353 30 4.757 11.652.54 34.048-2.698 47.8-6.91 5.185-1.588 10.554-3.419 11-3.751.22-.163 1.432-.596 2.693-.961 1.261-.366 2.388-.82 2.505-1.009.117-.19.886-.564 1.708-.832 15.23-4.965 39.392-22.807 49.472-36.531.663-.902 1.613-2.18 2.112-2.84.499-.66 1.273-1.958 1.72-2.883.447-.926.964-1.778 1.15-1.892.185-.114 1.002-1.607 1.817-3.317.814-1.709 1.68-3.468 1.924-3.908.244-.44.756-1.88 1.138-3.2.381-1.32.982-3.177 1.334-4.126 3.624-9.763.196-28.599-6.623-36.388-.632-.723-1.15-1.454-1.15-1.624 0-1.121-12.195-11.662-13.492-11.662-.22 0-.829-.33-1.354-.734-1.671-1.286-9.739-5.266-10.675-5.266-.252 0-1.227-.351-2.168-.779-4.054-1.846-15.935-4.707-21.711-5.228-7.003-.633-7.836-.918-4.4-1.505 3.268-.558 20.19-1.232 26-1.036 2.2.074 6.79.238 10.2.364" fill="none"/></svg>