<svg xmlns="http://www.w3.org/2000/svg" width="403" height="314" viewBox="0 0 403 314"><g fill="#FAC300"><path d="M400.489 2.107a7.905 7.905 0 00-6.297-2.053c-59.107 6.929-86.56 32.688-99.225 53.469C262.302 27.6 221.27 12.879 180.925 12.879c-48.328 0-93.762 18.757-127.933 52.816C21.335 97.246 2.866 138.435.317 182.619c-.016.26-.034.518-.046.778-.028.521-.056 1.042-.077 1.563-.071 1.456-.13 2.914-.166 4.376-.003.141.012.279.015.417-.021 1.149-.043 2.298-.043 3.45 0 22.696 4.182 44.75 12.176 65.292.092.475.212.95.393 1.41 13.187 33.264 35.808 61.656 65.416 82.099C108.302 362.934 143.888 374 180.897 374c14.75 0 29.452-1.787 43.7-5.31a7.822 7.822 0 002.358-1.03c30.71-7.996 58.868-23.989 81.9-46.948a188.008 188.008 0 004.421-4.578 7.616 7.616 0 001.292-1.125c30.494-33.283 47.285-76.452 47.285-121.548 0-2.047-.043-4.088-.111-6.126-.01-.264-.015-.527-.025-.79-.66-17.496-3.834-34.678-9.463-51.174a7.311 7.311 0 00-.311-.77 186.008 186.008 0 00-14.983-32.936c11.656-3.993 22.018-10.011 31.014-18.04C400.49 54.6 402.905 10.102 402.991 8.22a7.844 7.844 0 00-2.502-6.114zM289.675 223.685c4.357 0 7.89-3.52 7.89-7.86V165.25c1.95-.86 3.99-1.75 6.134-2.666 14.05-6.015 27.76-11.31 35.985-14.406 3.635 12.755 5.765 25.88 6.27 38.968a161.916 161.916 0 01.117 6.058c0 41.849-15.758 80.09-41.659 109.165l-.11.013c-6.977-.956-37.462-12.32-43.273-19.267-6.343-7.587-11.198-28.496-4.062-42.721 5.642-11.25 3.192-22.852 1.027-33.084-1.565-7.41-3.044-14.409-.9-19.294.402-.68 3.689-5.157 24.692-15.46v43.267c.003 4.342 3.532 7.863 7.89 7.863zM287.83 68.002c-3.8 9.803-5.233 18.491-5.743 24.304-12.16-15.978-35.19-33.317-78.668-38.416a7.905 7.905 0 00-6.297 2.053 7.85 7.85 0 00-2.503 6.117c.071 1.578 2.1 38.94 29.419 63.324 14.952 13.346 34.35 20.097 57.75 20.121v9.607c-29.95 13.922-36.73 21.185-39.081 26.462-4.252 9.536-2.07 19.864-.145 28.974 1.79 8.47 3.48 16.469.295 22.812-9.712 19.367-4.602 47.07 6.058 59.818 4.568 5.467 14.549 11.293 29.658 17.317 2.435.969 7.686 3.007 13.076 4.729-19.069 17.207-42.178 30.038-67.72 36.908-8.799-6.57-26.17-19.027-45.968-30.494-10.432-6.037-19.14-25.083-27.558-43.503-3.653-7.986-7.429-16.245-11.509-23.885-4.858-9.089-14.743-14.773-29.381-16.89-10.39-1.503-23.466-1.254-38.873.74-18.294 2.366-35.869 6.672-45.652 9.31-5.655-16.112-8.861-33.362-9.175-51.305 8.203-1.538 22.854-4.541 37.434-8.828 31.945-9.39 47.399-19.876 48.632-32.992.602-6.402 3.77-9.521 9.786-14.93 4.606-4.146 10.343-9.304 14.543-17.419a7.823 7.823 0 00.864-3.113l2.829-44.959a7.894 7.894 0 00-.25-2.516 79.64 79.64 0 00-14.659-29.041c20.207-8.808 42.504-13.705 65.933-13.705 37.932 0 76.583 14.308 106.905 39.4zm-6.487 61.78c-19.155-.12-34.836-5.492-46.686-16.025-14.761-13.119-20.606-31.597-22.881-42.752 56.426 10.1 67.47 43.797 69.567 58.776zM180.925 357.803c-66.413 0-123.786-39.277-149.985-95.742 41.41-11.149 86.278-14.927 94.026-.42 3.853 7.21 7.527 15.245 11.078 23.014 9.882 21.61 19.214 42.023 33.99 50.579 12.505 7.241 24.013 14.899 32.862 21.11a166.57 166.57 0 01-21.971 1.46zM114.073 74.198l-2.635 41.898c-2.807 4.808-6.476 8.108-10.343 11.586-6.43 5.78-13.716 12.335-14.922 25.135-.28 2.985-8.455 10.876-37.388 19.38-12.144 3.57-24.342 6.211-32.47 7.805 4.531-54.618 36.083-103.475 84.364-130.243 3.887 4.373 9.993 12.647 13.394 24.44zm220.603 59.062c-8.326 3.125-22.559 8.61-37.111 14.838V137.55c.015-.43.034-1.278 0-2.498V107.51c.507.006 1.027.025 1.53.025 7.678 0 14.99-.607 21.93-1.818a169.4 169.4 0 0113.65 27.544zm22.777-61.348c-15.02 13.407-34.984 20.072-59.445 19.892.833-7.015 3.286-18.341 10.401-30.053 14.288-23.52 40.361-38.52 77.58-44.671-2.399 13.294-9.264 37.632-28.536 54.832z"/><path d="M285.37 253.667l.205.134a7.346 7.346 0 004.022 1.199 7.386 7.386 0 006.21-3.387c2.224-3.441 1.249-8.045-2.179-10.282l-.205-.133c-3.425-2.234-8.006-1.254-10.23 2.19-2.225 3.442-1.248 8.046 2.178 10.28z"/></g></svg>