<svg xmlns="http://www.w3.org/2000/svg" width="10" height="18" viewBox="0 0 10 18"><path fill="#FFF" d="M6.177 18H3.355a.865.865 0 01-.854-.873v-6.502H.855A.865.865 0 010 9.752V6.966c0-.481.383-.873.855-.873H2.5V4.698c0-1.384.425-2.56 1.23-3.404C4.537.448 5.666 0 6.994 0l2.152.004c.47 0 .853.392.853.873v2.586a.865.865 0 01-.854.874h-1.45c-.441 0-.553.09-.578.118-.04.046-.086.176-.086.536v1.102h2.005c.15 0 .297.038.423.11a.88.88 0 01.44.763l-.002 2.786a.865.865 0 01-.854.873H7.032v6.502a.865.865 0 01-.855.873zm-2.643-1.055h2.465v-6.792c0-.322.256-.583.57-.583h2.296l.001-2.422H6.57A.577.577 0 016 6.565V4.991c0-.413.04-.882.345-1.234.368-.426.948-.475 1.353-.475h1.27V1.058l-1.973-.004c-2.134 0-3.46 1.396-3.46 3.643v1.867a.578.578 0 01-.57.583H1.032V9.57h1.93c.315 0 .57.261.57.583v6.792z"/></svg>