<svg xmlns="http://www.w3.org/2000/svg" width="50" height="50" viewBox="0 0 50 50"><g fill="none" fill-rule="evenodd"><circle cx="17" cy="17" r="17" fill="#FFD12D"/><path fill="#282828" fill-rule="nonzero" d="M48.67 34.051L49 33.5l-.33-.551c-.055-.092-1.382-2.285-3.959-4.482C41.283 25.545 37.245 24 33.033 24c-4.211 0-8.26 1.544-11.707 4.465-2.592 2.196-3.933 4.387-3.99 4.479L17 33.5l.337.556c.056.092 1.397 2.283 3.99 4.48C24.772 41.455 28.821 43 33.032 43c4.212 0 8.25-1.545 11.678-4.467 2.577-2.197 3.904-4.39 3.96-4.482zm-5.332 2.907c-3.084 2.609-6.55 3.932-10.305 3.932-3.756 0-7.234-1.324-10.339-3.935a19.725 19.725 0 01-3.227-3.455 19.726 19.726 0 013.227-3.456c3.105-2.61 6.583-3.934 10.339-3.934 3.754 0 7.221 1.323 10.305 3.932A19.474 19.474 0 0146.54 33.5a19.478 19.478 0 01-3.203 3.458z"/><path fill="#282828" fill-rule="nonzero" d="M33 27c-3.308 0-6 2.692-6 6s2.692 6 6 6 6-2.692 6-6-2.692-6-6-6zm0 10.003A4.008 4.008 0 0128.997 33 4.008 4.008 0 0133 28.997 4.008 4.008 0 0137.003 33 4.008 4.008 0 0133 37.003zM17.943 17.967H22V16h-6v6h1.943zM44 16v1.967h4.057V22H50v-6zM17.943 44H16v6h6v-1.967h-4.057zm30.114 4.033H44V50h6v-6h-1.943z"/></g></svg>