<svg xmlns="http://www.w3.org/2000/svg" width="50" height="50" viewBox="0 0 50 50"><g fill="none" fill-rule="evenodd"><path fill="#FFD12D" d="M0 0h34v34H0z"/><path fill="#282828" fill-rule="nonzero" d="M49.888 48.5l-3.577-7.548v-20.88c0-.587-.485-1.072-1.087-1.072H15.726c-.595 0-1.087.479-1.087 1.073v20.88l-3.577 7.546c-.304 1.22.595 1.501.977 1.501h36.873c.381 0 1.43-.479.976-1.5zM16.806 21.144h27.332v19.003H16.806V21.145zm-3.092 26.767l2.71-5.619h28.154l2.658 5.619H13.714z"/><path fill="#282828" fill-rule="nonzero" d="M33.798 44h-6.596c-.658 0-1.202.446-1.202 1 0 .548.537 1 1.202 1h6.596c.658 0 1.202-.446 1.202-1s-.544-1-1.202-1zm4.422-14.414C38.749 26.821 36.738 22 31.773 22c-2.306 0-5.854 1.53-6.503 5.65a5.443 5.443 0 00-1.008-.12c-2.9 0-5.262 2.35-5.262 5.235C19 35.649 21.363 38 24.262 38H37.74c2.363 0 4.26-1.88 4.26-4.239 0-2.112-1.65-3.936-3.78-4.175zm-.473 6.12H24.325a2.896 2.896 0 01-2.899-2.885 2.885 2.885 0 012.899-2.877c.529 0 1.065.175 1.538.47.416.239.888.239 1.297 0 .416-.239.53-.709.53-1.179-.297-3.649 2.658-4.821 4.14-4.821 1.537 0 5.38 1.41 3.723 6.063-.176.47-.176 1.004.177 1.355.352.35.888.47 1.298.294 1.594-.589 2.659.71 2.659 1.769-.05.926-.875 1.81-1.94 1.81z"/></g></svg>