<svg xmlns="http://www.w3.org/2000/svg" width="16" height="16" viewBox="0 0 16 16"><path d="M2.644 4H.356C.159 4 0 4.23 0 4.512v10.976c0 .283.16.512.356.512h2.288c.197 0 .356-.23.356-.512V4.512C3 4.23 2.84 4 2.644 4zm-.356 10.975H.712v-9.95h1.576v9.95zM1.5 0C.673 0 0 .673 0 1.5S.673 3 1.5 3 3 2.327 3 1.5 2.327 0 1.5 0zm0 2.288a.789.789 0 010-1.576.789.789 0 010 1.576zM11.291 4c-.748 0-1.485.187-2.146.536a.5.5 0 00-.49-.464H5.492a.501.501 0 00-.492.51V15.49a.5.5 0 00.492.509h3.163a.5.5 0 00.492-.51v-6c0-.771.607-1.4 1.353-1.4s1.353.629 1.353 1.4v6a.5.5 0 00.492.51h3.163a.5.5 0 00.492-.51V8.874C16 6.186 13.888 4 11.291 4zm3.725 10.981h-2.179v-5.49c0-1.334-1.048-2.419-2.337-2.419-1.288 0-2.337 1.085-2.337 2.419v5.49H5.984v-9.89h2.179v.376a.51.51 0 00.28.459.48.48 0 00.52-.062 3.606 3.606 0 012.328-.845c2.054 0 3.725 1.728 3.725 3.854v6.108z" fill="#FFF"/></svg>