<svg xmlns="http://www.w3.org/2000/svg" xmlns:xlink="http://www.w3.org/1999/xlink" height="213.76" width="240" viewBox="0 0 240 213.763"><path fill="#4dc7e4" d="M174.26 1.607c11.16-.046 18.35 9.022 18.384 18.361l.034 123.94c-.053 10.039-7.997 18.399-18.502 18.43H58.436c-10.775-.02-18.388-8.88-18.388-18.5l.004-123.87C40.044 9.624 48.774 1.482 58.485 1.535l115.78.072"/><defs><path id="a" d="M240 0H0v213.76h240V0z"/></defs><clipPath id="b"><use xlink:href="#a" height="213.763" width="240"/></clipPath><path d="M174.26 1.607c11.16-.046 18.35 9.022 18.384 18.361l.034 123.94c-.053 10.039-7.997 18.399-18.502 18.43H58.436c-10.775-.02-18.388-8.88-18.388-18.5l.004-123.87C40.044 9.624 48.774 1.482 58.485 1.535l115.78.072z" clip-path="url(#b)" stroke="#FFF" stroke-width=".788" fill="none"/><path fill="#FFF" d="M127.48 59.755l42.879-20.232c.172-.091.268.172.396.214l-29.65 37.065 43.317 20.934c.218.129.435.305.138.521l-47.566.046 10.878 47.262-.305.267-31.11-38.015h-.396l-30.79 38.068c-.175.133-.263.133-.438.003l10.726-47.431-47.475-.126c-.176-.133-.176-.263-.176-.396L91.07 77.158l.301-.305-29.75-37.012c-.087-.217.088-.309.222-.483l42.922 20.235 11.236-46.034h.305l11.16 46.194"/><path fill="#231f20" d="M0 213.75v-33.77h8.992l11.385 25.05 11.222-25.05h8.606v33.77h-7.41v-19.33l-8.554 19.33h-7.898l-8.657-19.23v19.23H0m52.295 0h-8.718l14.979-33.77h10.737l15.084 33.77H75.77l-2.968-6.755-17.63.053-2.877 6.702m17.729-13.072l-6.127-13.949-5.989 13.949h12.116zm17.893 13.072v-33.77h32.263v6.75H95.709v6.76h20.981v6.7H95.709V207h24.471v6.75H87.917"/><defs><path id="c" d="M240 0H0v213.76h240V0z"/></defs><clipPath id="d"><use xlink:href="#c" height="213.763" width="240"/></clipPath><path fill="#231f20" d="M126.44 213.75v-33.77h27.62s1.779-.201 3.658 1.627c1.684 1.635 1.405 4.035 1.405 4.035v11.347s.332 2.084-1.657 3.867c-1.92 1.719-4.713 1.346-4.713 1.346l6.428 11.548h-8.443l-6.378-11.548h-10.018v11.548h-7.902m7.903-18.3h16.94v-8.718h-16.94v8.718zm38.987 18.3h-2.675s-2.348-.045-3.681-1.451c-1.543-1.635-1.49-3.506-1.49-3.506v-4.412h7.846v2.62h16.669v-6.813h-19.13s-2.358.239-3.811-1.254c-1.615-1.653-1.44-3.646-1.44-3.646v-10.131s-.034-1.703 1.113-3.216c1.649-2.176 4.194-1.959 4.194-1.959l21.855.016s1.783-.126 3.528 1.565c1.913 1.845 1.471 3.811 1.471 3.811v4.031h-7.788v-2.671h-16.669v6.756h19.065s2.237-.164 3.811 1.634c1.581 1.799 1.581 3.811 1.581 3.811v9.533s.256 1.871-1.242 3.57c-1.699 1.936-3.985 1.714-3.985 1.714h-19.229" clip-path="url(#d)"/><path fill="#231f20" d="M205.25 213.74v-33.78h8v13.51l15.25-13.51h10.85l-18.19 15.69L240 213.74h-11.22l-15.53-15.37v15.37h-8"/></svg>