<svg xmlns="http://www.w3.org/2000/svg" width="411" height="200" viewBox="0 0 411 200"><path fill="rgba(50, 50, 50,0.6)" d="M409.422 93.325c-7.576-5.36-15.152-11.034-23.044-16.078-1.578-.946-3.788-1.576-5.682-1.576-2.21 0-3.788-.315-5.367-2.207-.63-.63-2.21-1.26-2.525-.946-.947.63-1.578.63-2.21.316-2.525-2.207-11.364-9.773-15.152-11.665-4.419-2.522-13.258-9.142-14.52-7.881-1.263.946 7.26 7.25 10.101 8.512 1.894.945 9.786 5.674 15.152 8.827 1.263 1.576 2.525 3.152 4.104 4.729-6.63.945-5.682 5.674-5.05 10.088-6.63-1.892-13.259-3.468-19.572-5.044-4.104-.946-8.208-1.892-11.996-3.468-3.788-1.576-7.26-3.468-11.364-3.783-1.894 0-3.472 0-5.366-.63-8.839-2.207-17.678-4.73-26.516-6.936-.947-.316-1.579-.63-2.841-.946l1.894-4.729c4.735 2.837 8.207 7.882 14.52 5.99a18.078 18.078 0 00-3.472-3.468c-3.157-1.891-6.629-3.783-10.101-5.674-1.579-.946-3.473-2.207-4.42-3.784-1.578-2.206-2.84-5.044-4.103-7.566-.316-.63-1.263-1.26-1.894-1.891-2.21-1.576-4.104-2.837-6.314-4.098-2.21-1.262-4.103-2.838-6.629-3.784-1.262-.63-2.84 0-4.42.316 0 1.26 0 2.837.317 3.783.63 1.26 1.578 2.522 2.525 3.468 3.472 3.467 7.26 6.305 11.995 7.566.947.315 1.263 1.26 2.21 1.891-.631.63-1.263.946-1.578 1.577-.947 1.26-1.894 2.206-2.21 3.467-.316.946 0 2.207.316 3.783-8.839-2.206-17.362-4.728-25.885-6.935-.631-.315-1.263-1.577-1.263-2.522 0-2.207-1.262-3.783-3.156-5.044-5.682-3.468-11.365-6.62-18.31-3.468-.946.63-2.525.63-3.472.946-2.525 1.26-5.05.315-7.576 0-3.788-.316-3.472-3.783-4.735-5.99-.631-.946-.947-2.207-1.578-3.153-.947-1.891-1.894-3.468-4.104-4.413-1.578-.63-2.84-3.153-2.84-4.73-.632-5.359-9.47-13.87-10.733-14.186-.316.946-.947 2.207-.632 3.153.947 2.207 2.526 4.413 3.788 6.935 1.263 2.207 2.526 4.73 4.104 6.936-5.682 2.522-11.048 4.729-16.1 6.936-.315.315-.946.315-1.262 0-5.05-1.577-10.732-1.577-14.836-5.044-.632-.316-1.263-.63-2.21-.63h-6.313c4.42 1.89 8.207 3.782 12.627 5.989-3.789 0-6.63 0-9.47-1.892-5.367-2.837-11.049-5.044-16.415-7.566-4.104-1.891-7.892-4.098-11.68-5.99v-.315c3.472.63 6.945 1.576 10.733 2.207 0-.315.315-.315.315-.63-.947-.946-1.578-1.892-2.525-2.838-.947-.946-2.525-1.26-3.472-2.207-1.579-1.576-3.473-3.152-4.42-5.044C132.896 7.26 121.532-.306 120.27.01c-.632.316-.632 2.523-.316 3.784 1.263 3.467 3.788 5.674 6.945 6.935.947.315 1.578 1.261 2.525 1.892-.631.63-1.263 1.576-1.894 2.207-.316.315-.316.315-.316.63 2.526.946 4.735 1.892 6.945 2.837-2.525 0-5.05-.315-7.576-.315-.316-2.207-2.21-2.207-3.472-1.891-2.841.315-5.682.945-7.892 2.206-7.26 4.414-6.945 3.783-4.104 11.665.316 1.26 1.263 2.522 1.263 3.783-.316 4.098-.631 8.197-1.263 12.61-.315 0-1.262.315-1.894.63v5.045c.316 3.152 0 6.305.947 9.457.632 2.207.316 3.468-.947 4.73-2.21-.947-4.735-3.153-6.629-.316-1.263 1.892-.947 4.729-1.263 7.25-7.891-.314-16.099-.945-24.306-1.26-6.629-.315-8.523-2.207-8.523-9.143 0-5.674-2.21-10.403-5.366-14.817-.632-.945-2.841-1.26-4.42-1.26-1.894 0-2.21 1.26-2.525 2.837-1.263 6.305.631 11.664 5.05 16.393.632.63.632 1.892.948 3.153-.947-.316-2.526-.631-3.157-1.261a78.751 78.751 0 01-7.26-7.251c-3.473-3.783-7.576-7.251-6.63-13.241.316-1.576.632-2.837.948-4.414.315-2.206.63-4.098-1.894-5.359-2.526-1.261-2.841-2.207-.632-4.414 2.526-2.522 3.788-5.359 2.21-8.827-.316-.946-1.578-2.522-2.525-2.522-1.263 0-3.157.63-4.104 1.576-2.21 2.207-3.157 5.36-2.841 8.828 0 1.891-.316 4.098-1.578 5.359-1.895 1.576-2.842 2.837-2.842 5.675.316 1.891-2.21 4.413 1.263 5.674.316 0 .316 1.261.316 1.892 0 1.26 0 2.522.315 3.783.316 1.576.948 2.837 2.842 1.891 1.894-.63 3.156.316 4.103 1.892 3.157 5.36 6.314 11.034 9.786 16.708-.947.316-1.578.63-2.21.63-7.576.947-15.152 2.208-22.728 3.153L3.788 81.661c-1.263.315-2.525.63-3.788 1.26 0 .316 0 .947.316 1.262 1.578 0 3.472.315 5.05.315 13.574-1.261 27.148-2.522 40.722-3.468.947 0 1.894.946 2.84 1.261 1.263.63 2.526 1.577 3.473 1.261.947 0 1.894-1.26 2.525-2.206.632-.631.632-1.262.947-2.207 2.526 1.891 3.473 3.783 3.473 6.62 0 1.261 0 2.837.315 4.098 0 .63 1.263 1.577 1.263 1.577 3.472-1.261 5.366.315 6.313 3.467.316.631.947 1.262 1.579 1.892 2.21 2.207 4.419 4.414 6.313 6.936 4.42 5.674 8.839 11.98 13.574 17.654 3.156 3.783 5.682 7.566 5.05 12.925 0 .316 0 .631.316.946.316 1.576.947 2.838 3.157 1.892 2.21-.946 3.788 0 5.366 1.891 6.63 7.882 11.68 16.394 15.784 25.536.63 1.576.315 2.207-.947 2.837-2.841 1.261-1.579 3.468-.947 5.675.315 2.207 1.894 2.837 3.788 2.837 2.21 0 3.472-.946 4.103-3.152.316-.946.632-2.207 1.263-4.099 3.157 4.414 6.629 8.197 8.839 12.61.947 1.577.315 4.414.631 6.62 0 .947.316 1.577.316 2.523 0 1.576.947 1.891 2.525 1.891 1.894 0 3.788.631 5.998.316 1.894 0 3.788-.63 5.682-1.261.631-.316 1.262-1.261 1.894-2.522 3.788 6.305 6.629 12.925 15.783 10.718-1.578-8.512-5.05-15.762-11.048-21.437-1.894-1.892-2.841-3.468-2.21-6.305.631-2.207-.316-4.098-2.21-5.36-3.472-1.891-5.05-4.728-5.366-8.827-.316-5.359-2.525-9.773-5.05-14.186-1.579-2.837-3.789-5.36-5.367-8.197-.631-1.26-.947-2.837-.631-4.098 3.788-10.719 7.891-21.122 11.995-31.84.316-.631.631-1.892.947-2.208 3.472-1.576 3.157-4.729 3.472-7.566 0-1.26.316-2.522.316-3.468 1.578.946 2.525 1.577 3.788 2.522-.316 0-.631.316-.947.63h-1.263c1.579 3.469 2.841 3.784 5.367.947.631-.63 1.894-.946 3.156-1.577-.947 5.044.632 8.828 4.104 10.72 6.945 3.467 13.89 3.467 21.15 1.26.631-.315 1.578-.63 1.578-1.26.632-1.892 2.21-1.892 3.473-1.262 2.525.946 4.735 2.522 7.26 2.837 4.42.63 9.154 1.577 13.574.946 5.05-.946 10.101-3.152 14.836-5.044 2.841-.946 3.472-4.414.947-6.305-.631-.63-1.578-1.261-2.21-1.576 1.894-1.577 3.788-2.522 5.367-4.099 1.262-1.26 2.525-1.891 4.103-1.576 14.206.63 28.41.946 42.616 1.261 9.47.315 18.94 0 28.41.946 5.366.63 10.417 1.26 15.783-.315.632-.316 1.263.315 1.894.315-.315.63-.631 1.26-1.262 1.891-1.579 1.261-1.579 3.783-.316 5.675.947 1.261 3.788 1.576 4.735.315 1.578-1.576 1.894-4.098.316-5.36-1.894-1.26-1.263-2.206 0-3.467 1.262-1.261 2.84-1.891 4.735-1.261 10.417 2.837 21.15 5.675 31.882 8.512 1.578.315 2.21.946 2.21 2.522.315 3.153.947 3.153 3.472 1.261 1.263-.946 2.525-2.207 4.42-1.261 2.525 1.261 3.472-.315 4.419-2.207.947-2.522 0-4.098-1.894-5.36.947-1.575 1.894-2.836 2.21-3.467a680.37 680.37 0 0021.465 10.719c1.894.945 4.42 1.576 6.629 1.576.947 0 2.21-.946 2.841-1.576-.316.945-.947-.316-1.578-.63zM53.664 78.823c-.947.316-2.21.631-3.157.946 0-.315-.316-.946-.316-1.26 1.263-.316 2.21-.631 3.473-.947 0 .316.315 1.261 0 1.261zm65.343-58.322c2.21-.63 4.42-1.26 6.629-2.207.316 1.261.631 2.522.947 4.414-1.578.946-3.157 1.891-5.05 2.837-2.21.946-2.842-.946-3.789-2.522-.947-1.26.316-1.891 1.263-2.522zm5.05 51.702c-.946 0-2.21.63-3.156.315-.316 0-.631-1.576-.631-2.206.315 0 .315-.316.63-.316.948.63 1.895 1.261 3.158 1.577-.316 0-.316.315 0 .63zm-19.57-3.468c.946.316 1.578.63 2.84.946-.947 1.261-1.578 2.522-2.84 4.414v-5.36zM75.76 84.498c-.947-1.576-1.578-3.468-2.525-5.044-.947-1.576-.631-2.837 1.263-2.522 8.207.315 16.73.946 25.253 1.576-4.104 6.62-9.786 9.773-16.73 10.719-1.579.315-3.157-.63-5.051-.63-2.525-.631-1.578-2.838-2.21-4.099zm19.572 28.058c-.316 1.891-1.894 2.207-2.841.946-4.104-4.73-7.892-9.773-11.996-15.133 2.841-2.206 5.051-3.783 6.945-5.359 2.525 5.36 5.05 10.403 7.576 15.447.316 1.262.316 2.838.316 4.099zm42.615 50.125c.631.631.631 3.153.631 3.153-1.578.63-2.84 2.522-4.735.63-2.525-2.837-4.735-5.99-6.944-9.142-.316-.315-.316-.946-.316-1.26.316-1.577.631-3.469.947-5.676.947 1.577 1.894 3.153 3.157 4.099 2.21 2.837 4.735 5.36 7.26 8.196zm5.998-72.508c0 .315-.316.63-.316.63 1.263 5.36-2.525 9.458-4.104 14.187-2.84 7.881-5.997 15.447-8.838 23.329-.632 1.576-1.263 2.522-3.473 2.837-3.472 0-4.103.63-3.788 4.413 0 1.892 0 3.784.632 5.675.947 2.837-.316 5.36-1.579 7.566-6.313-3.152-9.47-8.512-13.258-13.24-.631-.631-.947-1.577-1.578-2.207 4.104-2.522 4.104-2.838 3.157-7.566-.947-4.099-1.579-8.197-4.42-11.665-1.262-1.576-2.84-2.522-4.104-3.783-.315-.315-.63-.946-.63-1.576.946-5.044-.632-9.458-3.473-13.556-.947-1.261-2.21-2.838-3.157-4.414 3.157-2.837 6.945-5.36 9.47-8.827 2.841-3.468 5.998-2.837 9.47-2.522.632 0 1.263.946 2.21 1.576.631.63 1.578 1.577 2.21 1.892.947 0 1.894-.946 2.84-1.261.632-.315 1.579-1.261 2.21-1.261 4.735.315 9.786.63 14.521.946.631 0 1.578.63 2.21.945 1.262.63 2.84 1.261 4.735 2.207-.316.946-.632 3.468-.947 5.675zm34.723-43.82l-6.629 1.89-13.258 3.784-6.629 1.891c-.947.316-2.21.63-3.157.946l-.63.315h-.317c-.315.316-.315.316-.315.63 0 0-.316.316-.316.631-.947 1.892-1.578 4.099-2.21 6.305l-1.894 5.99 4.104 3.468.316.315v8.828c-.316-2.838-.632-5.36-.947-8.197l-4.42-3.468h-.631v-.63c.631-2.207.947-4.414 1.578-6.62.632-2.208 1.263-4.414 2.21-6.621 0-.315.316-.63.316-.946.315-.315.315-.63.631-.946.316-.315 0 0 0 0h.316l.631-.315.947-.315c1.263-.316 2.21-.63 3.157-.946l6.629-1.892c4.42-1.26 8.838-2.206 13.258-3.152 2.21-.63 4.42-.946 6.629-1.576 2.21-.316 4.42-.946 6.629-1.261-1.578.63-3.788 1.26-5.998 1.891zm38.512 25.535c-1.263 1.576-2.21 2.837-3.473 4.098-.947-4.098-.315-4.729 3.473-4.098zm-14.521-29.95c-4.104 2.838-6.629 2.838-10.733-.315 3.473 2.522 7.26 2.522 10.733.316zm-15.152-4.098c2.84-1.576 4.735-2.522 7.26-3.783.316 2.207.632 3.783.632 5.99-2.526-.63-5.051-1.261-7.892-2.207zm12.942 63.682c-1.894-.946-4.103-1.576-5.997-2.522.315-.315.315-.946.63-1.261l5.683 2.837c-.316.315-.316.63-.316.946zm22.728-4.098c-3.788 1.576-7.26 3.152-11.048 3.783-3.157.315-6.629 0-9.47-1.261-3.472-1.261-6.945-3.783-11.048-5.99 5.682-2.207 10.101-4.73 15.467-.946 4.42 3.153 9.155 4.414 14.521.946.631-.316 2.21.63 3.472.945-.63.631-.947 2.207-1.894 2.523zm5.998-14.817c-.316.63-.316 1.576-.947 2.206l-.947-.315.947.315c-.947 2.207-2.84 4.099-4.735 5.044-1.894.946-4.104 1.577-5.998.946-.315 0-.63-.315-1.262-.315-1.894-.946-3.157-2.522-3.788-4.414-.632-1.891-.632-4.098 0-6.305.315-.63.315-1.576.947-2.207.947-2.206 2.84-4.098 4.735-5.044 1.894-.945 4.103-1.576 5.997-.945.316 0 .632.315 1.263.315 1.894.946 3.157 2.522 3.788 4.413.631 1.892.631 4.099 0 6.306zm1.894-2.838c-1.578-4.413-1.263-6.62 2.21-7.566a96.396 96.396 0 01-2.21 7.566zm78.286.315c-.316 2.207-1.579 1.892-3.157 1.892-23.044-.63-45.772-1.261-68.816-2.207-.63 0-.947 0-1.894-.315.947-3.153 1.894-6.305 2.526-9.142 1.578-1.577 3.157-3.468 4.735-5.045.631-.63 1.263-1.26 1.894-1.26 2.21-.316 3.157-2.838 6.313-1.892 8.523 2.522 17.046 4.729 25.57 6.936 1.578.315 2.84.945 3.156 2.837.316 1.891 1.578 2.837 3.472 1.26 1.894-1.575 3.788-1.575 5.998-.945 5.998 1.576 11.995 3.153 17.993 5.044 1.263.315 2.21.946 2.21 2.837z"/></svg>