<svg width="39" height="39" viewBox="0 0 39 39" xmlns="http://www.w3.org/2000/svg" xmlns:xlink="http://www.w3.org/1999/xlink"><defs><linearGradient x1="0%" y1="49.987%" x2="100%" y2="49.987%" id="b"><stop stop-color="#5F8AC7" offset="0%"/><stop stop-color="#004687" offset="55%"/><stop stop-color="#002961" offset="100%"/></linearGradient><linearGradient x1="1.872%" y1="19.707%" x2="98.429%" y2="78.094%" id="d"><stop stop-color="#94969A" offset="0%"/><stop stop-color="#E4E5E6" offset="50%"/><stop stop-color="#94969A" offset="100%"/></linearGradient><linearGradient x1="10.888%" y1="41.756%" x2="98.265%" y2="65.455%" id="e"><stop stop-color="#94969A" offset="0%"/><stop stop-color="#E4E5E6" offset="50%"/><stop stop-color="#94969A" offset="100%"/></linearGradient><linearGradient x1="1.29%" y1="48.53%" x2="73.635%" y2="51.316%" id="f"><stop stop-color="#94969A" offset="0%"/><stop stop-color="#E4E5E6" offset="50%"/><stop stop-color="#94969A" offset="100%"/></linearGradient><path d="M.42 38.98V13.89C.442 6.443 6.473.412 13.92.39h25.09v25.08c-.022 7.447-6.053 13.478-13.5 13.5l-25.09.01z" id="a"/></defs><g transform="translate(-.42 -.39)" fill="none" fill-rule="evenodd"><mask id="c" fill="#fff"><use xlink:href="#a"/></mask><use fill="url(#b)" fill-rule="nonzero" xlink:href="#a"/><path d="M32.8 12.02a5 5 0 003.62-1.33 5 5 0 01-2.29.49c-5 0-7.33-5.08-9-11.17h-3.26c2.67 6.32 5.95 12.01 10.93 12.01z" fill="#FFF" fill-rule="nonzero" mask="url(#c)"/><path d="M30.26 12.28C26.09 11.07 23.03 5.7 20.42 0h-1.5c3.12 5.97 6.71 11.66 11.34 12.28z" fill="url(#d)" fill-rule="nonzero" mask="url(#c)"/><path d="M30.36 20.06c-6.94 0-16.49-11.67-22.14-18.83a14 14 0 00-4.59 3.35c6.25 5.92 18.58 17.11 25.91 17.11a8.15 8.15 0 006.88-4 9.11 9.11 0 01-6.06 2.37z" fill="#FFF" fill-rule="nonzero" mask="url(#c)"/><path d="M2.11 6.6c-.5.805-.915 1.66-1.24 2.55 7 5.14 20.44 14.61 27.67 13.73a7.76 7.76 0 001.72-.41 7.91 7.91 0 01-1.06.13c-7.45.39-20.64-10.49-27.09-16z" fill="url(#e)" fill-rule="nonzero" mask="url(#c)"/><path d="M26.77 30.39c-6.19 0-18.53-6.27-26.74-10.86v6.75c7.39 2.92 16.87 6.43 25.47 6.43 10 0 10.92-8.44 10.92-8.44a10.56 10.56 0 01-9.65 6.12z" fill="#FFF" fill-rule="nonzero" mask="url(#c)"/><path d="M26 33.98c-8.63.57-18.38-2.35-26-4.79v3.27c7.62 1.71 17.13 3.55 25.34 2.29a13.12 13.12 0 004.89-1.68 13.76 13.76 0 01-4.23.91z" fill="url(#f)" fill-rule="nonzero" mask="url(#c)"/></g></svg>