<svg xmlns="http://www.w3.org/2000/svg" width="17" height="14" viewBox="0 0 17 14"><path fill="#FFF" d="M6.468 14c-2.837 0-5.08-.494-6.152-1.356l-.021-.017-.019-.02a.869.869 0 01-.229-.914l.01-.028a.889.889 0 01.81-.556c.727-.013 1.362-.099 1.938-.266-.92-.427-1.558-1.165-1.938-2.234a.79.79 0 01.277-.923.81.81 0 01.242-.123 5.344 5.344 0 01-1.1-1.965L.28 5.576l-.005-.023c-.071-.358.09-.726.383-.884a.825.825 0 01.392-.11 4.128 4.128 0 01-.313-.954C.564 2.714.707 1.82 1.162.95l.106-.21A.59.59 0 012.21.585l.192.192c1.517 1.587 2.876 2.34 5.226 2.855.105-.9.495-1.737 1.125-2.395A3.949 3.949 0 0111.568.001h.007c.778 0 1.744.443 2.328.755.5-.163 1.104-.416 1.73-.684a.792.792 0 01.885.155.774.774 0 01.168.852c-.045.126-.097.25-.154.372a.792.792 0 01.23.158c.2.2.284.513.213.797l-.008.027c-.24.772-.7 1.4-1.31 1.794C15.555 9.635 11.472 14 6.468 14zm-5.196-1.91c1.01.57 2.938.916 5.196.916 2.172 0 4.222-.93 5.771-2.62 1.563-1.702 2.423-3.963 2.423-6.366v-.027c0-.218.12-.416.313-.519.392-.207.71-.56.916-1.01a.586.586 0 01-.566-.924 3.32 3.32 0 00.222-.35 16.39 16.39 0 01-1.5.564.64.64 0 01-.49-.053c-.794-.441-1.533-.705-1.979-.706-1.644.025-2.981 1.43-2.981 3.133a.584.584 0 01-.702.576C5.185 4.17 3.579 3.373 1.91 1.699a2.929 2.929 0 00-.194 1.717c.112.576.41 1.154.863 1.67a.583.583 0 01.057.697.584.584 0 01-.65.256 2.697 2.697 0 01-.549-.21c.35.756.95 1.454 1.703 1.97a.586.586 0 01-.376 1.068 2.649 2.649 0 01-.78-.168c.423.859 1.098 1.331 2.14 1.512a.588.588 0 01.174 1.096c-.887.47-1.857.721-3.026.783z"/></svg>