<svg xmlns="http://www.w3.org/2000/svg" width="50" height="50" viewBox="0 0 50 50"><g fill="none"><path fill="#FFD12D" d="M18 0C8.059 0 0 8.059 0 18s8.059 18 18 18 18-8.059 18-18S27.941 0 18 0z"/><path fill="#FFF" d="M24.28 11l-8.55 8.999-4.38-4.545L9 17.88 15.907 25 27 13.884z"/><path fill="#282828" d="M48.954 33.774l.332-.56-.332-.56c-.055-.093-1.388-2.318-3.976-4.549-3.443-2.966-7.5-4.534-11.73-4.534s-8.297 1.568-11.76 4.532c-2.603 2.23-3.95 4.453-4.007 4.547l-.338.564.338.565c.056.093 1.404 2.317 4.007 4.546 3.463 2.965 7.53 4.532 11.76 4.532 4.23 0 8.287-1.568 11.73-4.534 2.588-2.23 3.921-4.456 3.976-4.55zm-5.356 2.95c-3.097 2.648-6.58 3.991-10.35 3.991-3.773 0-7.267-1.343-10.385-3.993a19.945 19.945 0 01-3.242-3.508 19.911 19.911 0 013.242-3.507c3.118-2.65 6.612-3.994 10.384-3.994 3.771 0 7.254 1.343 10.351 3.991a19.694 19.694 0 013.218 3.51 19.697 19.697 0 01-3.218 3.51z"/><path fill="#282828" d="M33.214 27.143a6.078 6.078 0 00-6.071 6.071 6.078 6.078 0 006.071 6.072 6.078 6.078 0 006.072-6.072 6.078 6.078 0 00-6.072-6.071zm0 10.122a4.055 4.055 0 01-4.05-4.05 4.055 4.055 0 014.05-4.051 4.055 4.055 0 014.05 4.05 4.055 4.055 0 01-4.05 4.05zm11.072-20.836v1.873h3.863v3.84H50V16.43zM18.28 44.286h-1.851V50h5.714v-1.874h-3.864z"/></g></svg>