<svg xmlns="http://www.w3.org/2000/svg" width="18" height="14" viewBox="0 0 18 14"><g fill="#FFF"><path d="M11.65 6.354l-3.656-2.26a.6.6 0 00-.665.013A.776.776 0 007 4.76v4.48c0 .27.122.513.327.652a.613.613 0 00.344.108.61.61 0 00.319-.091l3.656-2.221A.777.777 0 0012 7.022a.778.778 0 00-.35-.668zM7.97 8.677v-3.35l2.733 1.69-2.733 1.66z"/><path d="M17.867 3.304v-.008c-.016-.149-.167-1.472-.794-2.145-.724-.792-1.545-.888-1.94-.934a4.643 4.643 0 01-.09-.011l-.03-.004C12.632.025 9.038 0 9.002 0h-.006c-.036 0-3.63.025-6.031.202l-.032.004-.084.01c-.39.046-1.202.143-1.929.963-.596.666-.769 1.96-.787 2.106l-.002.02A39.413 39.413 0 000 6.32v1.383c0 1.48.127 2.953.132 3.015l.001.01c.016.146.167 1.445.79 2.118.682.765 1.543.867 2.006.921.073.009.136.016.179.024l.041.006c1.374.134 5.682.2 5.865.203h.011c.036 0 3.63-.025 6.01-.202l.03-.004.102-.011c.388-.043 1.195-.13 1.912-.94.596-.666.769-1.96.786-2.106l.002-.019A39.38 39.38 0 0018 7.703V6.32c0-1.48-.127-2.954-.133-3.016zM17 7.713a39.76 39.76 0 01-.128 2.95c-.045.362-.229 1.192-.521 1.521-.452.514-.915.565-1.254.602l-.113.013c-2.317.173-5.8.2-5.96.201-.18-.003-4.454-.07-5.795-.2a4.516 4.516 0 00-.221-.029c-.397-.047-.94-.111-1.359-.587l-.01-.01c-.287-.31-.465-1.087-.51-1.507C1.12 10.567 1 9.121 1 7.713V6.31c0-1.387.117-2.816.128-2.95.054-.426.24-1.206.521-1.522.466-.529.956-.587 1.28-.626l.087-.01C5.367 1.026 8.874 1 9 1c.126 0 3.632.027 5.962.201l.093.012c.334.039.838.098 1.301.609l.004.005c.288.31.466 1.1.511 1.528.008.094.129 1.544.129 2.955v1.403z"/></g></svg>