<?xml version="1.0" encoding="UTF-8"?>
<svg width="367px" height="153px" viewBox="0 0 154 31" version="1.1" xmlns="http://www.w3.org/2000/svg" xmlns:xlink="http://www.w3.org/1999/xlink">
    <!-- Generator: Sketch 62 (91390) - https://sketch.com -->
    <title>Centrica_logo</title>
    <desc>Created with Sketch.</desc>
    <defs>
        <radialGradient cx="68.4545103%" cy="119.809728%" fx="68.4545103%" fy="119.809728%" r="476.758603%" gradientTransform="translate(0.684545,1.198097),scale(0.191383,1.000000),translate(-0.684545,-1.198097)" id="radialGradient-1">
            <stop stop-color="#4957AE" offset="0%"></stop>
            <stop stop-color="#191935" offset="60%"></stop>
            <stop stop-color="#191935" offset="100%"></stop>
        </radialGradient>
    </defs>
    <g id="Home" stroke="none" stroke-width="1" fill="none" fill-rule="evenodd">
        <g id="Centrica_logo" fill="url(#radialGradient-1)" fill-rule="nonzero">
            <g id="g7870" transform="translate(77.000000, 15.500000) scale(-1, 1) rotate(-180.000000) translate(-77.000000, -15.500000) ">
                <g id="g7872">
                    <g id="g7878">
                        <g id="g7880">
                            <path d="M103.539526,29.2208 C101.268579,27.776 100.319526,25.1468 101.455,23.45 L101.455,23.45 C102.590474,21.7616 105.310526,21.6356 107.649263,23.0804 L107.649263,23.0804 C109.920211,24.5756 110.809947,27.146 109.742263,28.8428 L109.742263,28.8428 C109.123684,29.7836 108.030579,30.254 106.801895,30.254 L106.801895,30.254 C105.751158,30.254 104.590263,29.918 103.539526,29.2208 M74.5934211,26.3984 C72.1953684,26.3312 71.3734211,26.3312 71.3734211,26.3312 L71.3734211,26.3312 L70.1023684,20.7032 L66.6959474,20.7032 C66.6959474,20.7032 67.7043158,20.0732 68.2720526,18.9392 L68.2720526,18.9392 C68.7126842,17.8808 68.9075789,16.436 68.5855789,14.7392 L68.5855789,14.7392 C68.0263158,11.5556 67.3314737,8.4812 67.3314737,8.4812 L67.3314737,8.4812 C66.1197368,3.0296 68.3313684,1.2824 73.5172632,1.2824 L73.5172632,1.2824 C74.8476316,1.2824 76.7372632,1.4 78.0676316,1.652 L78.0676316,1.652 L79.1437895,6.7928 C77.949,6.5996 76.9321579,6.5408 76.2373158,6.5408 L76.2373158,6.5408 C75.1611579,6.5408 74.5256316,7.2296 74.5934211,8.036 L74.5934211,8.036 C74.5934211,8.7248 74.7798421,9.4808 74.9069474,10.1108 L74.9069474,10.1108 L76.178,15.8732 L81.1012105,15.8732 L82.2366842,20.7032 L77.0592632,20.7032 L78.3896316,26.5244 C78.3896316,26.5244 77.2541579,26.4572 74.5934211,26.3984 M0.202947368,10.0436 C0.202947368,5.9108 1.97394737,0.896 10.5662632,0.896 L10.5662632,0.896 C15.6250526,0.896 20.3618421,3.9704 21.5057895,9.3632 L21.5057895,9.3632 L14.2353684,9.3632 C13.6591579,7.7252 12.4050526,5.9108 10.5662632,5.9108 L10.5662632,5.9108 C8.35463158,5.9108 7.78689474,7.5404 7.97331579,10.2368 L7.97331579,10.2368 C8.10042105,11.6144 8.92236842,16.4948 12.2779474,16.4948 L12.2779474,16.4948 C14.676,16.4948 14.8708947,14.0588 14.8708947,13.118 L14.8708947,13.118 L22.1328421,13.118 C22.1921579,18.5696 18.218,21.5096 12.5236842,21.5096 L12.5236842,21.5096 C4.94821053,21.5096 0.202947368,15.6212 0.202947368,10.0436 M22.9547895,9.7328 C22.9547895,4.6592 25.9883684,1.022 33.0723684,1.022 L33.0723684,1.022 C40.3427895,1.022 42.8001579,6.0956 43.3085789,7.3472 L43.3085789,7.3472 L36.2245789,7.3472 C35.7246316,6.3476 34.962,5.6588 33.3858947,5.6588 L33.3858947,5.6588 C31.9962105,5.6588 31.2335789,6.3476 30.8522632,7.0364 L30.8522632,7.0364 C30.4794211,7.784 30.2845263,8.666 30.3523158,9.7328 L30.3523158,9.7328 L44.0712105,9.7328 C44.3169474,10.6736 44.4440526,11.7404 44.4440526,12.992 L44.4440526,12.992 C44.4440526,18.7544 40.1478947,21.392 35.0213158,21.392 L35.0213158,21.392 C29.4625789,21.392 22.9547895,17.9396 22.9547895,9.7328 M34.7755789,16.9316 C36.8601053,16.9316 37.8684737,15.7472 37.4956316,13.4876 L37.4956316,13.4876 L30.9793684,13.4876 C31.4962632,15.428 32.8096842,16.9316 34.7755789,16.9316 M129.646947,9.1028 C129.646947,5.6588 131.028158,1.2068 136.663158,1.2068 L136.663158,1.2068 C139.188316,1.2068 141.713474,2.5256 142.789632,3.9704 L142.789632,3.9704 L142.789632,3.9032 C142.789632,3.1556 142.848947,2.2736 143.170947,1.652 L143.170947,1.652 L150.500684,1.652 C150.119368,2.6516 150.119368,4.3484 150.56,6.3476 L150.56,6.3476 C150.941316,8.036 153.602053,20.7032 153.602053,20.7032 L153.602053,20.7032 L146.272316,20.7032 L145.696105,18.2504 C144.814842,20.0144 142.925211,21.1988 140.010263,21.1988 L140.010263,21.1988 C133.239789,21.1988 129.646947,14.6804 129.646947,9.1028 M137.349526,9.6656 C137.349526,12.6812 139.061211,16.2512 141.654158,16.2512 L141.654158,16.2512 C143.798,16.2512 144.560632,14.8064 144.560632,12.866 L144.560632,12.866 C144.560632,8.8508 142.603211,6.3476 140.196684,6.3476 L140.196684,6.3476 C138.493474,6.3476 137.349526,7.2884 137.349526,9.6656 M106.954421,9.9764 C107.013737,5.9108 108.911842,1.2068 117.377053,1.2068 L117.377053,1.2068 C122.376526,1.2068 127.121789,3.9704 128.316579,9.3632 L128.316579,9.3632 L121.046158,9.3632 C120.478421,7.7252 119.215842,6.2216 117.317737,6.2216 L117.317737,6.2216 C115.241684,6.2216 114.606158,7.5404 114.792579,10.2368 L114.792579,10.2368 C114.851895,11.6732 115.682316,16.2512 119.088737,16.2512 L119.088737,16.2512 C121.495263,16.2512 121.681684,13.9916 121.622368,13.118 L121.622368,13.118 L128.884316,13.118 C128.952105,18.5696 125.028789,21.1988 119.275158,21.1988 L119.275158,21.1988 C111.759,21.1988 106.954421,15.6212 106.954421,9.9764 M54.2989474,17.9984 L55.0615789,20.7032 L47.9775789,20.7032 L44.0034211,1.652 L51.3331579,1.652 L53.4854737,11.7404 C53.9261053,13.748 54.6887368,15.3692 57.0274737,15.3692 L57.0274737,15.3692 C58.2222632,15.3692 59.112,14.7392 59.112,13.5548 L59.112,13.5548 C59.112,12.7988 58.7306842,11.4884 58.5357895,10.3544 L58.5357895,10.3544 L56.6461579,1.652 L63.8487895,1.652 L66.1875263,12.4292 C66.5010526,13.8068 66.6959474,15.1844 66.6959474,16.0664 L66.6959474,16.0664 C66.6959474,20.0144 63.5267895,21.1988 61.0101053,21.1988 L61.0101053,21.1988 C57.8409474,21.1988 55.8242105,19.6952 54.2989474,17.9984 M90.3968421,17.3768 L90.3968421,17.444 L91.151,20.7032 L84.0754737,20.7032 L80.0843684,1.652 L87.4225789,1.652 L89.1342632,9.6068 C89.8884211,13.118 91.4052105,14.4956 93.7439474,14.4956 L93.7439474,14.4956 C94.8794211,14.4956 95.5742632,14.4284 96.7775263,13.9916 L96.7775263,13.9916 L98.1672105,20.51 C97.5994737,20.762 96.9639474,20.8208 96.0911579,20.8208 L96.0911579,20.8208 C93.7439474,20.8208 91.5323158,19.1912 90.3968421,17.3768 M100.056842,20.7032 L96.0911579,1.652 L103.412421,1.652 L107.395053,20.7032 L100.056842,20.7032 Z" id="path7890"></path>
                        </g>
                    </g>
                </g>
            </g>
        </g>
    </g>
</svg>