<svg xmlns="http://www.w3.org/2000/svg" width="142" height="108" viewBox="0 0 142 108">
    <path fill="#FFDC5E" fill-rule="nonzero" d="M129.52 0H29.12c-6.882 0-12.48 5.59-12.48 12.462v4.153h-4.16C5.568 16.615 0 22.24 0 29.077v66.461C0 102.41 5.6 108 12.48 108H112.88c6.885 0 12.48-5.605 12.48-12.462v-4.153h4.16c6.882 0 12.481-5.59 12.481-12.462V12.462C142 5.59 136.401 0 129.52 0zm-18.734 24.923L65.631 70.062a4.135 4.135 0 0 1-2.951 1.226 4.141 4.141 0 0 1-2.96-1.234l-45.147-45.13h96.213zM8.32 93.131V30.428l29.947 29.936L8.32 93.13zm104.559 6.561h-99.29l30.564-33.444 9.672 9.669a12.405 12.405 0 0 0 8.855 3.68c3.35 0 6.494-1.307 8.846-3.672l10.316-10.312 31.276 34.067c-.08.005-.158.012-.24.012zm4.16-8.035L87.727 59.73l29.312-29.301v61.23zm16.64-12.734a4.162 4.162 0 0 1-4.16 4.154h-4.16v-54c0-6.845-5.577-12.462-12.48-12.462H24.96v-4.153a4.162 4.162 0 0 1 4.16-4.154H129.52a4.162 4.162 0 0 1 4.16 4.154v66.461z"/>
</svg>
