<svg id="svg" version="1.1" width="400" height="400" viewBox="0 0 400 400" xmlns="http://www.w3.org/2000/svg" xmlns:xlink="http://www.w3.org/1999/xlink" ><g id="svgg"><path id="path0" d="M221.800 206.800 L 217.800 207.000 220.200 207.474 C 221.520 207.735,223.590 208.062,224.800 208.200 C 226.010 208.338,228.260 208.795,229.800 209.215 C 231.340 209.636,233.590 210.240,234.800 210.558 C 239.685 211.842,246.135 213.996,248.600 215.167 C 254.725 218.077,259.702 220.603,261.485 221.708 C 264.317 223.462,269.186 226.802,270.356 227.791 C 282.440 238.014,287.591 245.602,292.762 260.800 C 295.167 267.866,295.185 285.157,292.796 293.000 C 291.550 297.092,289.550 302.848,288.975 304.000 C 288.700 304.550,287.815 306.390,287.008 308.090 C 285.676 310.895,283.335 314.893,280.250 319.633 C 279.617 320.605,278.083 322.660,276.840 324.200 C 275.598 325.740,274.112 327.630,273.538 328.400 C 272.086 330.350,263.420 338.991,261.000 340.902 C 259.900 341.770,258.280 343.138,257.400 343.941 C 256.520 344.744,254.934 346.030,253.875 346.800 C 252.816 347.570,251.466 348.577,250.875 349.037 C 249.774 349.894,244.509 353.445,242.000 355.023 C 238.081 357.486,225.775 364.000,225.039 364.000 C 224.781 364.000,223.856 364.368,222.985 364.818 C 220.777 365.957,215.902 368.000,215.392 368.000 C 215.160 368.000,214.256 368.365,213.385 368.812 C 212.513 369.258,210.728 369.903,209.418 370.244 C 208.107 370.585,206.577 371.088,206.018 371.361 C 205.458 371.634,203.110 372.361,200.800 372.977 C 198.490 373.593,195.070 374.513,193.200 375.022 C 191.330 375.531,188.810 376.064,187.600 376.207 C 186.390 376.349,184.410 376.725,183.200 377.042 C 178.819 378.191,162.707 379.586,153.744 379.593 C 146.075 379.599,145.202 379.670,144.361 380.351 C 143.437 381.100,143.447 381.103,147.617 381.363 C 149.918 381.507,154.833 381.826,158.539 382.071 C 167.874 382.688,189.689 381.774,193.771 380.595 C 194.887 380.272,197.563 379.827,199.718 379.605 C 201.872 379.384,204.176 378.923,204.837 378.581 C 205.498 378.239,207.571 377.786,209.444 377.573 C 211.317 377.360,213.267 376.912,213.777 376.578 C 214.287 376.244,215.788 375.796,217.114 375.583 C 218.440 375.369,220.306 374.840,221.262 374.406 C 222.218 373.972,223.450 373.612,224.000 373.605 C 224.550 373.598,225.900 373.150,227.000 372.609 C 228.100 372.068,229.434 371.619,229.965 371.613 C 230.496 371.606,231.666 371.174,232.565 370.654 C 233.464 370.134,234.911 369.579,235.780 369.421 C 236.648 369.263,237.728 368.874,238.180 368.557 C 238.631 368.240,239.720 367.788,240.600 367.553 C 241.480 367.318,242.470 366.895,242.800 366.613 C 243.130 366.332,244.120 365.872,245.000 365.592 C 245.880 365.313,247.003 364.770,247.497 364.387 C 247.990 364.004,249.000 363.576,249.742 363.437 C 250.483 363.298,251.410 362.831,251.800 362.400 C 252.190 361.969,253.103 361.504,253.827 361.369 C 254.552 361.233,255.234 360.887,255.344 360.601 C 255.454 360.315,256.232 359.854,257.072 359.577 C 257.912 359.300,259.050 358.770,259.600 358.399 C 262.641 356.349,263.885 355.600,264.250 355.600 C 264.474 355.600,265.365 355.065,266.229 354.411 C 267.093 353.757,267.997 353.217,268.238 353.211 C 268.479 353.205,269.002 352.840,269.400 352.400 C 269.798 351.960,270.338 351.600,270.600 351.600 C 270.862 351.600,271.418 351.222,271.837 350.759 C 272.256 350.297,273.139 349.642,273.799 349.305 C 274.460 348.968,275.144 348.446,275.320 348.146 C 275.496 347.846,275.879 347.600,276.171 347.600 C 276.463 347.600,276.928 347.328,277.203 346.996 C 277.660 346.445,282.849 342.352,284.296 341.400 C 284.631 341.180,285.671 340.235,286.608 339.300 C 287.545 338.365,288.423 337.600,288.559 337.600 C 288.959 337.600,296.000 330.386,296.000 329.975 C 296.000 329.769,296.270 329.600,296.600 329.600 C 296.930 329.600,297.200 329.426,297.200 329.214 C 297.200 329.001,297.695 328.284,298.300 327.619 C 299.910 325.849,302.382 322.795,304.628 319.800 C 304.958 319.360,305.761 318.300,306.414 317.445 C 307.066 316.590,307.600 315.676,307.600 315.415 C 307.600 315.153,308.050 314.517,308.600 314.000 C 309.150 313.483,309.600 312.803,309.600 312.488 C 309.600 312.173,310.050 311.381,310.600 310.727 C 311.150 310.073,311.600 309.307,311.600 309.023 C 311.600 308.740,311.934 308.079,312.342 307.554 C 312.750 307.029,313.299 305.939,313.562 305.132 C 313.826 304.325,314.293 303.455,314.601 303.199 C 314.909 302.944,315.280 301.937,315.427 300.963 C 315.573 299.988,316.035 298.754,316.455 298.221 C 316.874 297.688,317.407 296.205,317.640 294.926 C 317.872 293.647,318.310 292.212,318.615 291.739 C 318.919 291.265,319.364 289.285,319.603 287.339 C 319.843 285.392,320.300 282.784,320.619 281.542 C 321.373 278.610,321.372 271.732,320.617 269.062 C 320.297 267.928,319.835 265.490,319.591 263.645 C 319.347 261.800,318.898 259.910,318.594 259.445 C 318.289 258.980,317.921 257.790,317.774 256.800 C 317.628 255.810,317.096 254.370,316.592 253.600 C 316.088 252.830,315.558 251.634,315.415 250.941 C 315.272 250.249,314.805 249.366,314.377 248.979 C 313.950 248.593,313.600 247.972,313.600 247.600 C 313.600 247.228,313.256 246.613,312.837 246.233 C 312.417 245.853,311.841 244.970,311.557 244.271 C 311.273 243.572,310.716 242.765,310.320 242.477 C 309.924 242.190,309.600 241.689,309.600 241.365 C 309.600 241.040,309.345 240.677,309.033 240.557 C 308.722 240.438,308.015 239.678,307.464 238.870 C 306.190 237.004,302.484 233.184,299.439 230.600 C 298.142 229.500,296.650 228.195,296.123 227.700 C 295.595 227.205,294.984 226.800,294.764 226.800 C 294.544 226.800,293.955 226.395,293.456 225.900 C 292.957 225.405,291.885 224.688,291.074 224.306 C 290.263 223.925,289.600 223.444,289.600 223.238 C 289.600 223.032,289.079 222.749,288.441 222.609 C 287.804 222.469,286.976 222.015,286.600 221.600 C 286.224 221.185,285.420 220.736,284.813 220.603 C 284.205 220.469,283.339 220.016,282.888 219.596 C 282.437 219.176,281.558 218.709,280.934 218.558 C 280.310 218.407,279.350 217.972,278.800 217.591 C 278.250 217.211,277.223 216.775,276.519 216.622 C 275.814 216.470,274.824 216.022,274.319 215.629 C 273.813 215.235,272.558 214.788,271.528 214.636 C 270.499 214.484,269.239 214.038,268.728 213.645 C 268.218 213.253,266.564 212.731,265.054 212.486 C 263.544 212.242,262.014 211.789,261.654 211.480 C 261.294 211.171,259.537 210.719,257.748 210.476 C 255.960 210.232,253.890 209.768,253.148 209.443 C 252.407 209.118,249.797 208.668,247.349 208.442 C 244.900 208.217,242.200 207.769,241.349 207.447 C 239.641 206.802,228.882 206.446,221.800 206.800 M134.400 378.800 C 133.994 379.062,135.158 379.172,138.000 379.140 C 141.557 379.100,141.894 379.045,140.200 378.782 C 137.369 378.341,135.100 378.348,134.400 378.800 " stroke="none" fill="#2a2520" fill-rule="evenodd"></path><path id="path1" d="M212.200 205.663 C 196.759 206.221,193.876 207.060,204.200 207.993 C 209.976 208.514,221.857 211.375,225.911 213.221 C 226.852 213.649,227.827 214.000,228.079 214.000 C 229.015 214.000,237.083 217.980,238.754 219.266 C 239.279 219.670,239.888 220.000,240.108 220.000 C 241.405 220.000,253.600 230.541,253.600 231.662 C 253.600 231.832,254.118 232.563,254.750 233.286 C 261.569 241.075,264.997 259.911,261.373 269.674 C 261.021 270.623,260.420 272.480,260.039 273.800 C 259.657 275.120,259.145 276.560,258.901 277.000 C 258.657 277.440,257.791 279.199,256.977 280.908 C 256.162 282.618,255.345 284.111,255.160 284.225 C 254.974 284.339,254.457 285.191,254.010 286.117 C 253.563 287.042,252.789 288.340,252.290 289.000 C 251.791 289.660,250.841 290.938,250.178 291.840 C 240.098 305.564,215.936 323.406,200.706 328.371 C 199.884 328.639,199.115 329.013,198.998 329.203 C 198.881 329.392,197.754 329.846,196.493 330.212 C 195.232 330.577,194.020 331.010,193.800 331.173 C 193.354 331.505,187.985 333.336,182.800 334.924 C 169.048 339.136,146.652 342.374,135.000 341.834 C 126.280 341.430,107.658 338.477,105.000 337.077 C 104.560 336.845,103.300 336.432,102.200 336.158 C 83.304 331.451,66.911 315.621,63.412 298.703 C 61.981 291.782,61.087 290.579,60.391 294.635 C 60.167 295.936,59.683 298.530,59.315 300.400 C 58.412 304.983,58.396 313.232,59.282 317.200 C 59.651 318.850,60.071 320.974,60.215 321.921 C 60.681 324.975,63.971 333.972,65.510 336.400 C 65.998 337.170,66.398 337.926,66.399 338.080 C 66.400 338.437,68.360 341.369,71.159 345.200 C 75.216 350.753,83.320 358.114,90.600 362.859 C 94.350 365.303,104.358 370.400,105.407 370.400 C 105.575 370.400,106.452 370.742,107.356 371.160 C 108.260 371.578,110.530 372.484,112.400 373.173 C 114.270 373.862,116.250 374.671,116.800 374.970 C 117.350 375.269,118.926 375.799,120.302 376.149 C 121.679 376.499,123.209 377.042,123.702 377.356 C 124.196 377.670,125.652 378.140,126.938 378.400 C 128.224 378.660,129.844 379.104,130.538 379.387 C 131.232 379.670,132.700 380.024,133.800 380.175 C 134.900 380.325,137.060 380.791,138.600 381.211 C 140.140 381.631,143.830 382.163,146.800 382.393 C 149.770 382.623,153.190 383.033,154.400 383.305 C 157.379 383.975,178.153 383.974,181.200 383.304 C 182.410 383.038,186.100 382.626,189.400 382.389 C 192.700 382.151,196.300 381.707,197.400 381.401 C 198.500 381.095,201.020 380.569,203.000 380.231 C 204.980 379.893,207.584 379.343,208.787 379.008 C 209.990 378.674,211.397 378.400,211.913 378.400 C 212.429 378.400,213.695 378.047,214.726 377.616 C 215.757 377.185,217.770 376.632,219.200 376.387 C 220.630 376.142,222.194 375.688,222.675 375.378 C 223.156 375.068,224.416 374.625,225.475 374.393 C 227.400 373.972,229.862 373.101,234.000 371.377 C 235.210 370.873,236.869 370.338,237.686 370.188 C 238.503 370.039,239.379 369.666,239.632 369.361 C 239.886 369.056,240.837 368.608,241.747 368.366 C 242.656 368.124,243.670 367.695,244.000 367.413 C 244.330 367.132,245.320 366.676,246.200 366.400 C 247.080 366.124,248.070 365.682,248.400 365.417 C 248.730 365.152,249.855 364.620,250.900 364.235 C 251.945 363.849,252.800 363.388,252.800 363.210 C 252.800 363.032,253.295 362.765,253.900 362.616 C 254.505 362.468,255.408 362.082,255.906 361.760 C 256.404 361.437,258.204 360.443,259.906 359.550 C 261.608 358.657,263.270 357.695,263.600 357.411 C 263.930 357.128,264.813 356.586,265.562 356.206 C 266.312 355.826,267.122 355.347,267.362 355.143 C 267.603 354.938,268.947 354.012,270.348 353.085 C 276.861 348.778,278.051 347.967,278.800 347.323 C 279.130 347.040,281.200 345.337,283.400 343.539 C 292.013 336.498,306.400 321.397,306.400 319.397 C 306.400 319.233,307.642 317.492,309.810 314.619 C 310.135 314.189,310.400 313.663,310.400 313.450 C 310.400 313.237,310.650 312.779,310.957 312.431 C 311.710 311.577,316.400 302.528,316.400 301.929 C 316.400 301.667,316.747 300.721,317.171 299.826 C 318.267 297.514,319.942 292.326,320.242 290.311 C 320.382 289.370,320.862 287.250,321.308 285.600 C 322.384 281.617,322.477 268.518,321.449 265.562 C 321.098 264.550,320.553 262.390,320.239 260.762 C 319.925 259.133,319.383 257.260,319.036 256.600 C 318.689 255.940,318.404 255.200,318.402 254.956 C 318.397 254.046,314.586 246.553,312.488 243.328 C 307.592 235.802,292.803 222.000,289.634 222.000 C 289.455 222.000,288.835 221.628,288.256 221.173 C 287.070 220.240,278.882 216.007,278.226 215.987 C 277.992 215.981,276.725 215.441,275.410 214.787 C 274.096 214.134,272.706 213.600,272.321 213.600 C 271.936 213.600,270.852 213.257,269.911 212.838 C 267.904 211.944,262.407 210.189,260.400 209.801 C 259.630 209.652,257.920 209.209,256.600 208.816 C 255.280 208.423,252.940 207.972,251.400 207.814 C 249.860 207.656,247.160 207.192,245.400 206.785 C 242.425 206.096,240.025 205.933,225.800 205.452 C 223.600 205.378,217.480 205.473,212.200 205.663 M241.349 207.447 C 242.200 207.769,244.900 208.217,247.349 208.442 C 249.797 208.668,252.407 209.118,253.148 209.443 C 253.890 209.768,255.960 210.232,257.748 210.476 C 259.537 210.719,261.294 211.171,261.654 211.480 C 262.014 211.789,263.544 212.242,265.054 212.486 C 266.564 212.731,268.218 213.253,268.728 213.645 C 269.239 214.038,270.499 214.484,271.528 214.636 C 272.558 214.788,273.813 215.235,274.319 215.629 C 274.824 216.022,275.814 216.470,276.519 216.622 C 277.223 216.775,278.250 217.211,278.800 217.591 C 279.350 217.972,280.310 218.407,280.934 218.558 C 281.558 218.709,282.437 219.176,282.888 219.596 C 283.339 220.016,284.205 220.469,284.813 220.603 C 285.420 220.736,286.224 221.185,286.600 221.600 C 286.976 222.015,287.804 222.469,288.441 222.609 C 289.079 222.749,289.600 223.032,289.600 223.238 C 289.600 223.444,290.263 223.925,291.074 224.306 C 291.885 224.688,292.957 225.405,293.456 225.900 C 293.955 226.395,294.544 226.800,294.764 226.800 C 294.984 226.800,295.595 227.205,296.123 227.700 C 296.650 228.195,298.142 229.500,299.439 230.600 C 302.484 233.184,306.190 237.004,307.464 238.870 C 308.015 239.678,308.722 240.438,309.033 240.557 C 309.345 240.677,309.600 241.040,309.600 241.365 C 309.600 241.689,309.924 242.190,310.320 242.477 C 310.716 242.765,311.273 243.572,311.557 244.271 C 311.841 244.970,312.417 245.853,312.837 246.233 C 313.256 246.613,313.600 247.228,313.600 247.600 C 313.600 247.972,313.950 248.593,314.377 248.979 C 314.805 249.366,315.272 250.249,315.415 250.941 C 315.558 251.634,316.088 252.830,316.592 253.600 C 317.096 254.370,317.628 255.810,317.774 256.800 C 317.921 257.790,318.289 258.980,318.594 259.445 C 318.898 259.910,319.347 261.800,319.591 263.645 C 319.835 265.490,320.297 267.928,320.617 269.062 C 321.372 271.732,321.373 278.610,320.619 281.542 C 320.300 282.784,319.843 285.392,319.603 287.339 C 319.364 289.285,318.919 291.265,318.615 291.739 C 318.310 292.212,317.872 293.647,317.640 294.926 C 317.407 296.205,316.874 297.688,316.455 298.221 C 316.035 298.754,315.573 299.988,315.427 300.963 C 315.280 301.937,314.909 302.944,314.601 303.199 C 314.293 303.455,313.826 304.325,313.562 305.132 C 313.299 305.939,312.750 307.029,312.342 307.554 C 311.934 308.079,311.600 308.740,311.600 309.023 C 311.600 309.307,311.150 310.073,310.600 310.727 C 310.050 311.381,309.600 312.173,309.600 312.488 C 309.600 312.803,309.150 313.483,308.600 314.000 C 308.050 314.517,307.600 315.153,307.600 315.415 C 307.600 315.676,307.066 316.590,306.414 317.445 C 305.761 318.300,304.958 319.360,304.628 319.800 C 302.382 322.795,299.910 325.849,298.300 327.619 C 297.695 328.284,297.200 329.001,297.200 329.214 C 297.200 329.426,296.930 329.600,296.600 329.600 C 296.270 329.600,296.000 329.769,296.000 329.975 C 296.000 330.386,288.959 337.600,288.559 337.600 C 288.423 337.600,287.545 338.365,286.608 339.300 C 285.671 340.235,284.631 341.180,284.296 341.400 C 282.849 342.352,277.660 346.445,277.203 346.996 C 276.928 347.328,276.463 347.600,276.171 347.600 C 275.879 347.600,275.496 347.846,275.320 348.146 C 275.144 348.446,274.460 348.968,273.799 349.305 C 273.139 349.642,272.256 350.297,271.837 350.759 C 271.418 351.222,270.862 351.600,270.600 351.600 C 270.338 351.600,269.798 351.960,269.400 352.400 C 269.002 352.840,268.479 353.205,268.238 353.211 C 267.997 353.217,267.093 353.757,266.229 354.411 C 265.365 355.065,264.474 355.600,264.250 355.600 C 263.885 355.600,262.641 356.349,259.600 358.399 C 259.050 358.770,257.912 359.300,257.072 359.577 C 256.232 359.854,255.454 360.315,255.344 360.601 C 255.234 360.887,254.552 361.233,253.827 361.369 C 253.103 361.504,252.190 361.969,251.800 362.400 C 251.410 362.831,250.483 363.298,249.742 363.437 C 249.000 363.576,247.990 364.004,247.497 364.387 C 247.003 364.770,245.880 365.313,245.000 365.592 C 244.120 365.872,243.130 366.332,242.800 366.613 C 242.470 366.895,241.480 367.318,240.600 367.553 C 239.720 367.788,238.631 368.240,238.180 368.557 C 237.728 368.874,236.648 369.263,235.780 369.421 C 234.911 369.579,233.464 370.134,232.565 370.654 C 231.666 371.174,230.496 371.606,229.965 371.613 C 229.434 371.619,228.100 372.068,227.000 372.609 C 225.900 373.150,224.550 373.598,224.000 373.605 C 223.450 373.612,222.218 373.972,221.262 374.406 C 220.306 374.840,218.440 375.369,217.114 375.583 C 215.788 375.796,214.287 376.244,213.777 376.578 C 213.267 376.912,211.317 377.360,209.444 377.573 C 207.571 377.786,205.498 378.239,204.837 378.581 C 204.176 378.923,201.872 379.384,199.718 379.605 C 197.563 379.827,194.887 380.272,193.771 380.595 C 189.689 381.774,167.874 382.688,158.539 382.071 C 154.833 381.826,149.918 381.507,147.617 381.363 C 143.447 381.103,143.437 381.100,144.361 380.351 C 145.202 379.670,146.075 379.599,153.744 379.593 C 162.707 379.586,178.819 378.191,183.200 377.042 C 184.410 376.725,186.390 376.349,187.600 376.207 C 188.810 376.064,191.330 375.531,193.200 375.022 C 195.070 374.513,198.490 373.593,200.800 372.977 C 203.110 372.361,205.458 371.634,206.018 371.361 C 206.577 371.088,208.107 370.585,209.418 370.244 C 210.728 369.903,212.513 369.258,213.385 368.812 C 214.256 368.365,215.160 368.000,215.392 368.000 C 215.902 368.000,220.777 365.957,222.985 364.818 C 223.856 364.368,224.781 364.000,225.039 364.000 C 225.775 364.000,238.081 357.486,242.000 355.023 C 244.509 353.445,249.774 349.894,250.875 349.037 C 251.466 348.577,252.816 347.570,253.875 346.800 C 254.934 346.030,256.520 344.744,257.400 343.941 C 258.280 343.138,259.900 341.770,261.000 340.902 C 263.420 338.991,272.086 330.350,273.538 328.400 C 274.112 327.630,275.598 325.740,276.840 324.200 C 278.083 322.660,279.617 320.605,280.250 319.633 C 283.335 314.893,285.676 310.895,287.008 308.090 C 287.815 306.390,288.700 304.550,288.975 304.000 C 289.550 302.848,291.550 297.092,292.796 293.000 C 295.185 285.157,295.167 267.866,292.762 260.800 C 287.591 245.602,282.440 238.014,270.356 227.791 C 269.186 226.802,264.317 223.462,261.485 221.708 C 259.702 220.603,254.725 218.077,248.600 215.167 C 246.135 213.996,239.685 211.842,234.800 210.558 C 233.590 210.240,231.340 209.636,229.800 209.215 C 228.260 208.795,226.010 208.338,224.800 208.200 C 223.590 208.062,221.520 207.735,220.200 207.474 L 217.800 207.000 221.800 206.800 C 228.882 206.446,239.641 206.802,241.349 207.447 M140.200 378.782 C 141.894 379.045,141.557 379.100,138.000 379.140 C 135.158 379.172,133.994 379.062,134.400 378.800 C 135.100 378.348,137.369 378.341,140.200 378.782 " stroke="none" fill="#29853b" fill-rule="evenodd"></path><path id="path2" d="M176.410 12.588 C 176.013 13.067,176.053 14.164,176.610 18.072 C 178.223 29.379,174.926 44.660,168.254 56.800 C 167.589 58.010,166.675 59.720,166.222 60.600 C 165.770 61.480,165.053 62.740,164.628 63.400 C 161.928 67.600,158.418 72.722,155.995 76.000 C 153.388 79.527,152.302 81.032,150.511 83.600 C 150.127 84.150,148.997 85.680,147.998 87.000 C 147.000 88.320,145.827 89.920,145.391 90.556 C 144.956 91.192,144.240 92.203,143.800 92.804 C 140.757 96.954,133.700 107.685,132.360 110.200 C 131.891 111.080,131.282 112.070,131.007 112.400 C 129.585 114.104,122.003 129.345,121.998 130.509 C 121.996 130.779,121.711 131.540,121.364 132.200 C 121.017 132.860,120.398 134.660,119.988 136.200 C 119.578 137.740,118.985 139.810,118.670 140.800 C 118.160 142.403,117.570 145.035,116.426 150.800 C 113.840 163.837,114.114 186.010,116.904 189.558 C 119.109 192.362,121.116 191.081,125.000 184.389 C 127.033 180.885,130.816 175.269,134.009 171.011 C 135.003 169.685,136.121 168.150,136.492 167.600 C 137.813 165.642,143.262 158.822,159.183 139.200 C 168.415 127.821,175.960 117.538,177.671 114.000 C 177.937 113.450,178.435 112.667,178.777 112.260 C 179.490 111.413,180.040 110.383,183.500 103.414 C 184.875 100.645,186.000 98.182,186.000 97.940 C 186.000 97.698,186.434 96.488,186.964 95.250 C 190.853 86.167,192.756 73.484,192.236 60.115 C 191.881 50.978,191.359 47.274,189.346 39.600 C 189.028 38.390,188.510 36.250,188.193 34.844 C 187.877 33.438,187.368 31.905,187.062 31.438 C 186.755 30.971,186.381 29.961,186.230 29.194 C 185.831 27.175,183.476 21.901,180.405 16.151 C 178.851 13.240,177.137 11.712,176.410 12.588 M198.168 55.785 C 197.905 56.832,197.969 57.785,198.817 65.467 C 199.255 69.432,199.262 71.100,198.856 74.467 C 198.582 76.740,198.189 80.220,197.982 82.200 C 197.581 86.046,196.359 91.853,195.331 94.800 C 194.986 95.790,194.448 97.648,194.137 98.929 C 193.826 100.210,193.217 101.917,192.785 102.723 C 192.353 103.529,192.000 104.409,192.000 104.679 C 192.000 105.087,188.482 112.460,186.438 116.335 C 184.680 119.670,177.280 130.084,171.046 137.998 C 169.921 139.427,168.789 140.867,168.531 141.198 C 168.274 141.529,166.294 143.997,164.131 146.683 C 161.969 149.368,158.220 154.030,155.800 157.042 C 153.380 160.055,149.690 164.644,147.600 167.241 C 141.456 174.877,136.343 182.095,131.054 190.601 C 128.230 195.144,123.816 204.417,121.155 211.400 C 120.484 213.160,119.593 215.500,119.174 216.600 C 118.755 217.700,118.242 219.500,118.035 220.600 C 117.828 221.700,117.289 224.040,116.839 225.800 C 114.931 233.255,115.164 248.472,117.326 257.600 C 117.665 259.030,118.120 261.010,118.337 262.000 C 118.554 262.990,119.044 264.700,119.425 265.800 C 121.258 271.093,122.503 274.328,123.217 275.654 C 123.648 276.454,124.000 277.358,124.000 277.662 C 124.000 277.966,124.425 278.841,124.944 279.607 C 125.462 280.373,126.017 281.411,126.175 281.913 C 126.646 283.409,130.739 289.102,131.977 289.983 C 135.735 292.660,138.036 289.460,136.821 283.245 C 135.718 277.602,136.986 266.465,139.581 259.000 C 144.230 245.631,157.266 228.759,175.304 212.765 C 177.337 210.963,180.239 208.388,181.754 207.044 C 183.269 205.700,184.640 204.510,184.802 204.400 C 185.195 204.132,190.685 199.224,194.182 196.014 C 202.055 188.789,211.184 178.002,214.379 172.150 C 214.844 171.297,215.843 169.610,216.597 168.400 C 217.352 167.190,217.976 165.965,217.984 165.679 C 217.993 165.392,218.450 164.495,219.000 163.686 C 219.550 162.877,220.000 161.953,220.000 161.633 C 220.000 161.314,220.355 160.320,220.788 159.425 C 226.141 148.367,229.397 125.764,227.418 113.400 C 227.101 111.420,226.557 108.000,226.209 105.800 C 225.416 100.794,223.655 94.902,220.290 86.000 C 219.255 83.260,214.216 73.261,212.899 71.333 C 212.473 70.710,211.602 69.390,210.963 68.401 C 207.583 63.170,200.102 54.800,198.806 54.800 C 198.591 54.800,198.304 55.243,198.168 55.785 " stroke="none" fill="#d2372c" fill-rule="evenodd"></path><path id="path3" d="M0.000 200.000 L 0.000 400.000 200.000 400.000 L 400.000 400.000 400.000 200.000 L 400.000 0.000 200.000 0.000 L 0.000 0.000 0.000 200.000 M178.966 13.951 C 179.391 14.474,180.038 15.464,180.405 16.151 C 183.476 21.901,185.831 27.175,186.230 29.194 C 186.381 29.961,186.755 30.971,187.062 31.438 C 187.368 31.905,187.877 33.438,188.193 34.844 C 188.510 36.250,189.028 38.390,189.346 39.600 C 194.138 57.863,193.156 80.788,186.964 95.250 C 186.434 96.488,186.000 97.698,186.000 97.940 C 186.000 98.182,184.875 100.645,183.500 103.414 C 180.040 110.383,179.490 111.413,178.777 112.260 C 178.435 112.667,177.937 113.450,177.671 114.000 C 175.960 117.538,168.415 127.821,159.183 139.200 C 143.262 158.822,137.813 165.642,136.492 167.600 C 136.121 168.150,135.003 169.685,134.009 171.011 C 130.816 175.269,127.033 180.885,125.000 184.389 C 121.116 191.081,119.109 192.362,116.904 189.558 C 114.114 186.010,113.840 163.837,116.426 150.800 C 117.570 145.035,118.160 142.403,118.670 140.800 C 118.985 139.810,119.578 137.740,119.988 136.200 C 120.398 134.660,121.017 132.860,121.364 132.200 C 121.711 131.540,121.996 130.779,121.998 130.509 C 122.003 129.345,129.585 114.104,131.007 112.400 C 131.282 112.070,131.891 111.080,132.360 110.200 C 133.700 107.685,140.757 96.954,143.800 92.804 C 144.240 92.203,144.956 91.192,145.391 90.556 C 145.827 89.920,147.000 88.320,147.998 87.000 C 148.997 85.680,150.127 84.150,150.511 83.600 C 152.302 81.032,153.388 79.527,155.995 76.000 C 158.418 72.722,161.928 67.600,164.628 63.400 C 165.053 62.740,165.770 61.480,166.222 60.600 C 166.675 59.720,167.589 58.010,168.254 56.800 C 174.926 44.660,178.223 29.379,176.610 18.072 C 175.699 11.681,176.288 10.651,178.966 13.951 M202.169 57.622 C 205.026 60.336,208.516 64.614,210.963 68.401 C 211.602 69.390,212.473 70.710,212.899 71.333 C 214.216 73.261,219.255 83.260,220.290 86.000 C 223.655 94.902,225.416 100.794,226.209 105.800 C 226.557 108.000,227.101 111.420,227.418 113.400 C 229.397 125.764,226.141 148.367,220.788 159.425 C 220.355 160.320,220.000 161.314,220.000 161.633 C 220.000 161.953,219.550 162.877,219.000 163.686 C 218.450 164.495,217.993 165.392,217.984 165.679 C 217.976 165.965,217.352 167.190,216.597 168.400 C 215.843 169.610,214.844 171.297,214.379 172.150 C 211.184 178.002,202.055 188.789,194.182 196.014 C 190.685 199.224,185.195 204.132,184.802 204.400 C 184.640 204.510,183.269 205.700,181.754 207.044 C 180.239 208.388,177.337 210.963,175.304 212.765 C 157.266 228.759,144.230 245.631,139.581 259.000 C 136.986 266.465,135.718 277.602,136.821 283.245 C 138.036 289.460,135.735 292.660,131.977 289.983 C 130.739 289.102,126.646 283.409,126.175 281.913 C 126.017 281.411,125.462 280.373,124.944 279.607 C 124.425 278.841,124.000 277.966,124.000 277.662 C 124.000 277.358,123.648 276.454,123.217 275.654 C 122.503 274.328,121.258 271.093,119.425 265.800 C 119.044 264.700,118.554 262.990,118.337 262.000 C 118.120 261.010,117.665 259.030,117.326 257.600 C 115.164 248.472,114.931 233.255,116.839 225.800 C 117.289 224.040,117.828 221.700,118.035 220.600 C 118.242 219.500,118.755 217.700,119.174 216.600 C 119.593 215.500,120.484 213.160,121.155 211.400 C 123.816 204.417,128.230 195.144,131.054 190.601 C 136.343 182.095,141.456 174.877,147.600 167.241 C 149.690 164.644,153.380 160.055,155.800 157.042 C 158.220 154.030,161.969 149.368,164.131 146.683 C 166.294 143.997,168.274 141.529,168.531 141.198 C 168.789 140.867,169.921 139.427,171.046 137.998 C 177.280 130.084,184.680 119.670,186.438 116.335 C 188.482 112.460,192.000 105.087,192.000 104.679 C 192.000 104.409,192.353 103.529,192.785 102.723 C 193.217 101.917,193.826 100.210,194.137 98.929 C 194.448 97.648,194.986 95.790,195.331 94.800 C 196.359 91.853,197.581 86.046,197.982 82.200 C 198.189 80.220,198.582 76.740,198.856 74.467 C 199.262 71.100,199.255 69.432,198.817 65.467 C 197.469 53.251,197.497 53.185,202.169 57.622 M236.000 205.816 C 239.829 205.957,243.424 206.327,245.400 206.785 C 247.160 207.192,249.860 207.656,251.400 207.814 C 252.940 207.972,255.280 208.423,256.600 208.816 C 257.920 209.209,259.630 209.652,260.400 209.801 C 262.407 210.189,267.904 211.944,269.911 212.838 C 270.852 213.257,271.936 213.600,272.321 213.600 C 272.706 213.600,274.096 214.134,275.410 214.787 C 276.725 215.441,277.992 215.981,278.226 215.987 C 278.882 216.007,287.070 220.240,288.256 221.173 C 288.835 221.628,289.455 222.000,289.634 222.000 C 292.803 222.000,307.592 235.802,312.488 243.328 C 314.586 246.553,318.397 254.046,318.402 254.956 C 318.404 255.200,318.689 255.940,319.036 256.600 C 319.383 257.260,319.925 259.133,320.239 260.762 C 320.553 262.390,321.098 264.550,321.449 265.562 C 322.477 268.518,322.384 281.617,321.308 285.600 C 320.862 287.250,320.382 289.370,320.242 290.311 C 319.942 292.326,318.267 297.514,317.171 299.826 C 316.747 300.721,316.400 301.667,316.400 301.929 C 316.400 302.528,311.710 311.577,310.957 312.431 C 310.650 312.779,310.400 313.237,310.400 313.450 C 310.400 313.663,310.135 314.189,309.810 314.619 C 307.642 317.492,306.400 319.233,306.400 319.397 C 306.400 321.397,292.013 336.498,283.400 343.539 C 281.200 345.337,279.130 347.040,278.800 347.323 C 278.051 347.967,276.861 348.778,270.348 353.085 C 268.947 354.012,267.603 354.938,267.362 355.143 C 267.122 355.347,266.312 355.826,265.562 356.206 C 264.813 356.586,263.930 357.128,263.600 357.411 C 263.270 357.695,261.608 358.657,259.906 359.550 C 258.204 360.443,256.404 361.437,255.906 361.760 C 255.408 362.082,254.505 362.468,253.900 362.616 C 253.295 362.765,252.800 363.032,252.800 363.210 C 252.800 363.388,251.945 363.849,250.900 364.235 C 249.855 364.620,248.730 365.152,248.400 365.417 C 248.070 365.682,247.080 366.124,246.200 366.400 C 245.320 366.676,244.330 367.132,244.000 367.413 C 243.670 367.695,242.656 368.124,241.747 368.366 C 240.837 368.608,239.886 369.056,239.632 369.361 C 239.379 369.666,238.503 370.039,237.686 370.188 C 236.869 370.338,235.210 370.873,234.000 371.377 C 229.862 373.101,227.400 373.972,225.475 374.393 C 224.416 374.625,223.156 375.068,222.675 375.378 C 222.194 375.688,220.630 376.142,219.200 376.387 C 217.770 376.632,215.757 377.185,214.726 377.616 C 213.695 378.047,212.429 378.400,211.913 378.400 C 211.397 378.400,209.990 378.674,208.787 379.008 C 207.584 379.343,204.980 379.893,203.000 380.231 C 201.020 380.569,198.500 381.095,197.400 381.401 C 196.300 381.707,192.700 382.151,189.400 382.389 C 186.100 382.626,182.410 383.038,181.200 383.304 C 178.153 383.974,157.379 383.975,154.400 383.305 C 153.190 383.033,149.770 382.623,146.800 382.393 C 143.830 382.163,140.140 381.631,138.600 381.211 C 137.060 380.791,134.900 380.325,133.800 380.175 C 132.700 380.024,131.232 379.670,130.538 379.387 C 129.844 379.104,128.224 378.660,126.938 378.400 C 125.652 378.140,124.196 377.670,123.702 377.356 C 123.209 377.042,121.679 376.499,120.302 376.149 C 118.926 375.799,117.350 375.269,116.800 374.970 C 116.250 374.671,114.270 373.862,112.400 373.173 C 110.530 372.484,108.260 371.578,107.356 371.160 C 106.452 370.742,105.575 370.400,105.407 370.400 C 104.358 370.400,94.350 365.303,90.600 362.859 C 83.320 358.114,75.216 350.753,71.159 345.200 C 68.360 341.369,66.400 338.437,66.399 338.080 C 66.398 337.926,65.998 337.170,65.510 336.400 C 63.971 333.972,60.681 324.975,60.215 321.921 C 60.071 320.974,59.651 318.850,59.282 317.200 C 58.396 313.232,58.412 304.983,59.315 300.400 C 59.683 298.530,60.167 295.936,60.391 294.635 C 61.087 290.579,61.981 291.782,63.412 298.703 C 66.911 315.621,83.304 331.451,102.200 336.158 C 103.300 336.432,104.560 336.845,105.000 337.077 C 107.658 338.477,126.280 341.430,135.000 341.834 C 146.652 342.374,169.048 339.136,182.800 334.924 C 187.985 333.336,193.354 331.505,193.800 331.173 C 194.020 331.010,195.232 330.577,196.493 330.212 C 197.754 329.846,198.881 329.392,198.998 329.203 C 199.115 329.013,199.884 328.639,200.706 328.371 C 215.936 323.406,240.098 305.564,250.178 291.840 C 250.841 290.938,251.791 289.660,252.290 289.000 C 252.789 288.340,253.563 287.042,254.010 286.117 C 254.457 285.191,254.974 284.339,255.160 284.225 C 255.345 284.111,256.162 282.618,256.977 280.908 C 257.791 279.199,258.657 277.440,258.901 277.000 C 259.145 276.560,259.657 275.120,260.039 273.800 C 260.420 272.480,261.021 270.623,261.373 269.674 C 264.997 259.911,261.569 241.075,254.750 233.286 C 254.118 232.563,253.600 231.832,253.600 231.662 C 253.600 230.541,241.405 220.000,240.108 220.000 C 239.888 220.000,239.279 219.670,238.754 219.266 C 237.083 217.980,229.015 214.000,228.079 214.000 C 227.827 214.000,226.852 213.649,225.911 213.221 C 221.857 211.375,209.976 208.514,204.200 207.993 C 197.197 207.360,196.364 207.075,199.800 206.488 C 203.068 205.930,219.990 205.256,225.800 205.452 C 228.000 205.526,232.590 205.690,236.000 205.816 " stroke="none" fill="none" fill-rule="evenodd"></path></g></svg>
