<svg xmlns="http://www.w3.org/2000/svg" xmlns:xlink="http://www.w3.org/1999/xlink" width="224" height="86" viewBox="0 0 224 86">
    <defs>
        <path id="a" d="M0 .062h31.31V44.53H0z"/>
    </defs>
    <g fill="none" fill-rule="evenodd">
        <path fill="#484848" d="M85.763 85.697c-.773.15-13.217.128-13.727-.016.332-.52.813-.884 1.228-1.302.41-.412.854-.791 1.238-1.144v-5.994l-5.329-5.276 6.93-6.674v-2.24l-4.604-4.566v-9.72l-6.656-6.585v-1.385l-2.905-2.884v-4.149l1.222-1.257v-3.342l-4.36-4.337c.252-.332.546-.202.799-.22.269-.02.54-.005.82-.005l1.275-1.218h.576c.496.268.496.268 1.304.22.272-.253.576-.532.87-.803h.963l.631.536c.723 0 1.494.018 2.264-.01.259-.009.51-.162.77-.198.267-.036.542-.008.93-.008l1.053 1.23 1.006.062.836.758.567.027.764-.685h.628l.147.43c.296.235.75-.023 1.02.421l.101.512 1.372.108.174.487h1.02c.587-.34.59-.688 1.537.151l1.085.578.632-.247c.207.155.37.28.548.412h.59l1.255-1.188h1.414c.018.325.047.607.047.89.002 5.562.002 11.126.002 16.69 0 13.649 0 27.298-.002 40.948 0 .325-.023.65-.035.993"/>
        <g transform="translate(0 .6)">
            <mask id="b" fill="#fff">
                <use xlink:href="#a"/>
            </mask>
            <path fill="#484848" d="M31.306 43.421c-.407.029-.507.428-.782.642-.396.054-.507-.365-.883-.542h-1.049l-.391.352c-.034.19-.065.37-.1.579l-.332.077c-.293-.49.178-.674.355-.998v-.66c-.387-.31-.809-.1-1.27-.243l-1.933-1.912-.86-.097-.094-.885-.874-.845c-.349-.057-.673-.1-.992-.166-.295-.063-.585-.153-.937-.246l-.116-.684.066-.067-.579-.553-.939-.055c-.3-.29-.626-.601-.959-.92H17.01l-1.051 1.006-1.032-.978h-1.34l-.126-1.492-.995-.112-.486-.576-.074-.857-1.156-.07c-.529-.23-.329-.717-.43-1.124-.05-.059-.112-.141-.184-.213-.98-.975-1.962-1.95-2.968-2.948l-.615-.184-1.23-1.347-.621-.12-.683-.644-.537-.082-.438-.351-.777-.045-.777-.69H.132C0 24.814-.048 15.87.06 14.173c.255.03.35.25.51.393l.044.81c.74.738 1.511 1.511 2.286 2.28.761.756 1.526 1.507 2.201 2.174.169.407-.055.801.392 1.045.383-.384.938-.627.976-1.331-.152-.165-.3-.334-.458-.493-.598-.6-1.2-1.195-1.797-1.795-.276-.276-.536-.573-1.003-.621l-.104-.804-2.195-2.197v-1.111l-.326-.507-.059-.674-.475-.553V.183C.088.148.102.132.117.12.133.107.15.091.167.089.25.076.331.061.414.061c4.01 0 8.022.002 12.034.006.06 0 .118.026.231.052.104.618.037 1.254.05 1.886.011.639.002 1.278.002 1.917v1.93l13.673 13.639.055 1.062 1.088 1.133v7.152l1.557 1.602v1.245l-.717.8v6.58l2.363 2.383v1.107c.119.342.624.432.553.865h.003z" mask="url(#b)"/>
        </g>
        <path fill="#484848" d="M42.745 45.74l.714-.094.615-.534.877-.132c.215.892.98 1.408 1.586 2.049.329.347.646.706.935 1.022h1.226c.489.368 1.01.39 1.6.215l.049-.557-.73-.703h-1.471l-1.834-1.854-.168-.569c.158-.188.382-.104.581-.117.187-.013.376-.003.54-.003.381-.25.66-.507.427-1.055l-1.892-.054c-.05-2.105.01-4.17-.035-6.288-.624-.56-1.259-1.13-1.825-1.64v-5.395l.955-.9h1.422l4.386-4.332v-1.902c.409-.215.687-.038.975.19h1.447l1.401 1.503.039.83.426.375c.488 0 .987.082 1.443-.022.485-.111.94.184 1.442-.022l.177-.427.61-.246 4.369 4.314v2.94l-1.243 1.278-.039 4.033c-.296.02-.538.048-.78.048-1.906.004-3.812.002-5.718.002h-.805l-3.804 3.75h-1.525l-.856.867v2.539l2.404 2.233v1.746l2.864 2.843v2.45c3.34 3.305 6.7 6.628 10.106 10v3.367l4.815 4.76.63.034 5.319 5.255v5.457L71.499 85.8h-9.396l-5.671-5.61h-5.326c-2.84-2.805-5.672-5.611-8.506-8.416l.058-.135H44.5l3.413-3.372 3.363 3.34-.127 1.022.592.646.093.669.683.118 1.37 1.312.737-.613h.992c.06-.25.11-.465.16-.67l.826-.294.626.76v1.791l.672.731.085.851.838.09.962.896h1.96l.549.404h.606l.26-.41c.093.013.187.002.249.04.243.151.49.221.81.104l.16-.57.616-.628c.748.06 1.49-.195 2.132.217h1l.064-.499c-.23-.54-.677-.438-1.085-.495l-.47-.325h-.672l-.397.249c-.8.166-1.576-.18-2.29.307-.203-.487-.04-.951-.15-1.451l-.355-.464v-.898l-.474-.436-1.816-.27c-.546.436-1.13.29-1.718.256l-.148-.64-.531-.562c-.11-.347-.212-.614-.277-.89a2.748 2.748 0 0 1-.06-.611c-.005-1.243-.003-2.485-.003-3.75l-.748-.81v-2.75l-.806-.853v-4.015l-1.255-1.287-.093-.747-2.007-1.895c-.105-.348.18-.77-.235-1.022-.46.155-.692.573-.997.834-.157.234.002.564-.321.671-.487-.295-2.037-1.854-2.278-2.317l.6-.033.689.621c.327.009.695.17.962-.301l-.918-.962-.181-.93.205-.095.367.301.952-.062v-1.714l-.768-.036-.719.638h-3.293l-1.462-1.552-.04-.541c-.158-.3-.38-.411-.736-.338l-.257.277-1.014-.375c-.363-.192-.32-.501-.211-.863l.554-.053.489.347c.441.052.894.068 1.4-.034l.037-.59-1.038-.597h-1.349l.24-.17c.086-.281-.052-.449-.294-.534-.154-.055-.326-.059-.49-.086l.014.019zM57.6 23.135V21.77l2.7-2.767v-4.516l2.623-2.545v-.818c0-3.456-.001-6.912.002-10.368 0-.245.03-.489.049-.757h22.755c.024.273.067.534.067.795.006 2.2.004 4.399.004 6.598 0 4.021 0 8.043-.002 12.064 0 .288-.027.575-.045.915h-1.4l-.516.393-.556.106-.158.46-.6.738-1.673.228-.527-.41h-.82l-.913-.845h-.602c-.451.369-.972.793-1.493 1.217l.091.086-.49.812h-.778l-1.216-.417c-.263-.611-.057-1.195.087-1.874l-.504-.439c-.423-.073-.788-.075-1.06.214h-1.479l-.317.34c-.553.138-1.146-.15-1.66.313-.052-.118-.093-.202-.125-.29-.029-.077-.046-.158-.075-.258l-.329-.143-.236-.452h-1.295l-.447-.357c-.216-.114-.52.002-.684-.336.467-.409 1.041-.574 1.652-.693.03-.077.067-.15.088-.226.02-.08.026-.163.037-.234l.925-.562v-.792l-1.943-1.958c-.967.014-2.01-.096-3.094.083l-.204-.603h-.716l-.083 1.295-.806.134c-.116.577-.058.674.596 1.003.007.086.022.188.023.29 0 .104-.012.207-.023.375l-2.668 2.642-.076.686-1.488 1.555c-.122.304.123.716-.293.947-.102-.09-.207-.18-.305-.265"/>
        <path fill="#484848" d="M30.082 54.337l-.73-.804v-2.65a679.66 679.66 0 0 0-.472-.58v-2.267l.414-.45h1.702l1.452-1.451-.488-.637v-1.695l.037-.003v1.654l.445.475h1.436l.508.382h3.242l.653.732-1.305 1.373v3.91h-1.548l-3.003 3.032v4.381l2.85 2.877v2.024l15.713 15.783h4.952l5.26 5.286c-.08.023-.183.071-.291.082-.164.016-.33.006-.496.006l-23.893-.001c-.304 0-.61-.026-.968-.042-.028-.29-.07-.53-.071-.771-.008-1.06-.003-2.12-.003-3.188l-1.08-1.128v-1.816l-.842-.904v-.952l.384-.488c.035-.534.12-1.076-.164-1.577-.245-.43-.26-.906-.263-1.475l-.86-.81h-2.499l-1.221 1.012.051.43c-.082-.007-.18 0-.186-.019-.056-.192-.097-.389-.147-.61l-.688-.133c-.064-.183-.18-.402-.216-.634-.223-1.422-.121-2.856-.138-4.286-.001-.122.018-.243.03-.394l.71-.136c.01-.236.03-.459.031-.681.004-.957.004-1.914.001-2.871-.001-.279.01-.546.334-.738l.697-.052c.341-.374.717-.785 1.145-1.256V58.99l-.475-.561v-4.092zM31.948 40.924c-.163.325-.163.325-.622.476l-2.424-2.423v-6.195l.72-.789v-1.6l-1.564-1.333.065-.103c-.014-.266-.039-.533-.04-.8-.003-1.888-.002-3.776-.002-5.664v-.917L27 20.679v-1.065l7.525-7.487V.102c.533-.11 18.92-.143 19.86-.04.015.224.038.462.046.702.008.248.002.496.002.748l-3.315 3.242v9.756l-.851.898v2.813l1.861 1.823h2.035c.993.846 3.181 3.092 3.437 3.531-.227.047-.441.09-.678.14l-.413-.307-.686-.071c-.067-.19-.133-.38-.17-.481l-1.769-1.788c-.597-.052-.597-.052-.968.699l-.2-.49h-1.235l-.25-.503c-.27-.033-.551-.162-.793.107l.012-.015c-.188-.081-.399-.132-.56-.25-.172-.129-.298-.32-.442-.481.148-.317.53-.48.329-.885l-1.947-2.199v-1.505c.194-.342.691-.566.395-1.11l-.66-.128-.146-.489c-.283-.076-.628-.085-.766-.572v-1.34l.317-.166v-.884l-1.217-.913-.533-.045c-.14-.114-.301-.242-.454-.364h-.756l-.143.47-.452.246.032.532.683.1.101.567c.255.513.766.257 1.164.442.242.69-.06 1.463.194 2.17l.71.381v2.341l.46.991-.122.095 1.493 1.338-.022.504.646.733c-.176.379-.176.379-.473.42-.304-.365-.567-.726-.875-1.043-.84-.863-1.7-1.707-2.553-2.558-.146-.145-.3-.283-.479-.453h-1.959l-2.427-2.542h-1.076l-.82-.75-.68.035.049.637-2.548 2.544h-.358l-.11-.54c-.544-.167-1.24-.17-1.831-.004-.016.166-.008.355-.058.527-.043.148-.152.276-.236.42h-1.452c-.254.168-.478.315-.414.686l.384.197.367.686v4.534l-.509.62v1.505l-1.052.126c-.244.58-.101.856.47.887.393.021.788.004 1.201.004.1.14.19.269.282.4.23.03.453.061.698.095l.225.475c.105.04.237.093.364.143.029.039.073.07.076.104.032.394.33.608.57.86.168.176.405.327.255.624-.27.232-.46-.047-.74-.118l-.948.865h-1.609l-.046.873c.17.46.524.495.916.606l-.418.347v.538l.395.495c-.01.185-.02.386-.03.613l-.958.117v1.267l.492.52c.185.033.366.065.554.1.32.366.816.597.843 1.196.645.044.914.608 1.393.96.142.02.324.048.555.083l.139.647.44.593c-.097.142-.175.256-.26.383l-1.188.055.43.816c-.624.272-.766-.233-1.079-.48l.317-.48v-.6l-1.486-1.365h-1.222c-.027.347-.052.666-.075.981l.73.835-.059.066-.973-.546-.434.33c.336.35.633.66.923.96l.915.128.093 1.016c.21.18.388.12.565.055l-.012-.016z"/>
        <path fill="#484848" d="M34.14 12.451L26.741 19.8 13.2 6.321V.694C13.71.589 33.351.564 34.06.66c.135.496.193 9.75.08 11.791M60.499 56.945L56.23 52.7v-1.58l-3.789-3.757h-1.446l-2.395-2.4V42.75l.612-.613h1.56l3.685-3.737h7.337l2.962 2.954v1.286l6.644 6.64v7.596c-.519.122-9.723.17-10.901.069M51.22 5.43l3.297-3.163.09-1.667h7.716c.024.121.074.254.074.388.004 3.6.003 7.202.001 10.803 0 .08-.016.161-.036.341l-2.572 2.44v4.445l-2.738 2.72V22.8c-.606-.448-1.023-.946-1.49-1.391-.475-.454-.94-.919-1.42-1.39H52.03L50.4 18.32v-2.467l.82-.86V5.429z"/>
        <path fill="#484848" d="M52.31 47.402l3.455 3.453v1.6l4.435 4.423c3.539.002 7.163-.002 10.845.002v1.817L75.6 63.27v1.992L68.69 72h-.426l-4.505-4.51v-3.357l-9.98-9.985v-2.479L51 48.873v-1.435c.26-.014.478-.03.697-.035.226-.006.452-.001.613-.001M36 64.831v-2.005l1.344-1.366v-1.633l1.05-1.07v-4.975l-.687-.765v-4.248c.252-.267.467-.569.85-.769l.286 1.935.346.47.089.62.472.18.432.801-.394.204v.733l.716.74v.53c-.095 0-.19.024-.207-.002-.11-.167-.203-.344-.344-.59h-.62c-.226.39-.005.66.21.952l-.755.797v2.796l.599.183-.109.406.317.89c.052.275.421.42.27.789-.287.464-.667.106-1.077.077l-.41.27v.849l.669.125.706 1.285h1.253c.204.332.166.622.058.946-.346-.01-.576-.46-1.003-.15l-.06.471.426.447h2.165l.728.644h1.024l1.849 1.957.079-.064.639.132.143.693.946.067c-.226.419-2.17 2.395-3.169 3.217h-2.174L36 64.831M50.4 22.8v1.937l-3.971 4.01h-1.423l-1.148 1.172v5.465l1.735 1.564c.062 2.168.027 4.198.023 6.23l-.136.022c-.038-.094-.106-.187-.109-.282-.012-.432-.005-.865-.005-1.305l-.492-.615v-3.452l-.52-.404h-.338l-.908-.877-.763-.055-.24-.576-.754-.05-.212.45-.657.344c-.678-.551-1.235-1.267-1.93-1.87l-.916-.042-.574-.697.456-.282c.106-.497-.258-.66-.557-.883v-.65c-.053-.39-.444-.473-.345-.826l.833.284.095.536.376.359h.752l.07-.604c-.133-.423-.531-.54-.559-.948.353-.183.736-.038 1.077-.132.341-.094.668-.242 1.07-.267l.615-.625v-1.208l-.439-.546.156-1.012c.227.084.45.154.662.249.2.09.39.206.658.35h1.59c.23-.211.468-.432.737-.682h1.75l.804-.962.072.058.084-.57.3-.248.073-.512 1.811-1.848H50.4z"/>
        <path fill="#484848" d="M37.8 53.79v4.706l-1.008 1.134v1.653L35.648 62.4c-.37-.233-2.19-2.102-2.648-2.723v-4.015l2.752-2.862h1.24l.808.99M44.997 44.3c-.217.042-.433.116-.65.12-.76.015-1.518.002-2.277.009-.224.002-.447.038-.67.058l.017.013c.214-.041.428-.115.643-.12.737-.015 1.474 0 2.21-.01.244-.003.487-.046.73-.07h-.003zM58.8 24.562L58.2 24l.54.6.06-.038M51.023 21.602v.598l-.062-.003.078-.597-.016.002zM45.61 44.435c-.015-.052-.031-.103-.011-.039.01-.066.002-.015-.006.035l.017.004z"/>
        <path fill="#484848" d="M45.585 44.389l-.585.019.004-.001.596.004-.015-.022zM31.114 43.839l.157-.078.015.037-.169.04h-.003z"/>
        <path fill="#484848" d="M45.673 44.316l-.163.145.008.023.172-.164-.017-.004zM41.467 44.345l-.151.094.015.016.153-.097-.017-.013zM41.364 45.088l.087-.16-.015-.016-.087.167.015.009z"/>
        <path fill="#484848" d="M41.328 45.052l.158-.095-.015-.009-.157.09.014.014z"/>
        <path fill="#484848" d="M41.447 44.922l-.108.142.016.014.106-.142-.014-.014zM40.862 44.94l-.14.106.015.015.14-.108-.015-.014z"/>
        <path fill="#484848" d="M40.759 45.082l.097-.15-.014-.014-.098.153.015.011zM40.733 45.657l.149-.103-.015-.01-.149.098.015.015z"/>
        <path fill="#484848" d="M40.85 45.526l-.116.134.016.014.116-.133-.015-.015z"/>
        <path fill="#484848" d="M40.858 45.535l-.132.115.015.015.133-.116-.016-.014zM40.156 45.68l.105-.145-.015-.014-.107.145.017.013z"/>
        <path fill="#484848" d="M40.268 45.546l-.153.093.014.015.156-.095-.017-.013zM40.241 46.116l-.097.154.017.014.095-.153-.015-.015zM43.179 46.314l.054-.21-.013-.018-.053.217.012.011z"/>
        <path fill="#484848" d="M40.267 46.145l-.15.095.013.015.154-.097-.017-.013zM42.594 46.194l.012.012-.012-.012z"/>
        <path fill="#484848" d="M40.241 46.118l-.096.152.015.012.095-.149-.014-.015zM50.344 21.561l.1.09.012-.015-.095-.087-.017.012zM39.558 46.252l.1-.088-.013-.016-.103.09.016.014zM39.657 46.734l-.13.118.016.014.13-.118-.016-.014z"/>
        <path fill="#484848" d="M39.555 46.878l.107-.142-.015-.014-.11.143.018.013z"/>
        <path fill="#484848" d="M39.667 46.745l-.151.095.014.015.154-.097-.017-.013zM39.041 46.718l-.096.152.015.012.095-.149-.014-.015zM39.526 46.282l.161-.152-.015-.012-.16.148.014.016zM38.972 47.462l.075-.11-.014-.017-.08.13.019-.003z"/>
        <path fill="#484848" d="M39.004 47.407l-.026-.014.044.012zM50.501 21.666l-.191-.135-.011.016.187.122.015-.003zM50.484 21.073l-.156-.159-.012.016.151.156.017-.013zM31.781 41.408l.05-.016h-.062l.012.016z"/>
        <path fill="#484848" d="M38.926 47.483l.161-.154-.015-.012-.159.15.013.016zM125.413 4.365c0-2.256-.955-3.384-2.865-3.384-.637 0-1.054.105-1.25.316-.092.09-.137.323-.137.699v6c.12.016.257.023.41.023 1 0 1.848-.218 2.546-.654.864-.542 1.296-1.541 1.296-3m2.387-.022c0 1.45-.63 2.578-1.887 3.385-.789.508-1.79.762-3.001.762-.516 0-1.1-.053-1.751-.157v6.365c0 .344.015.56.045.65.076.21.243.337.5.381.44.06.865.09 1.274.09.166 0 .25.053.25.157 0 .15-.106.224-.318.224h-5.23c-.455 0-.682-.074-.682-.224 0-.105.16-.158.477-.158.713 0 1.122-.067 1.228-.201.121-.06.19-.21.205-.45V1.925c0-.464-.13-.748-.387-.854-.151-.06-.417-.089-.795-.089h-.388c-.227 0-.34-.06-.34-.18 0-.134.212-.201.636-.201h5.003c1.728 0 2.993.299 3.797.897.91.672 1.364 1.621 1.364 2.846M139.8 12.916c0 .052-.014.372-.04.958-.028.586-.04 1.147-.04 1.681v.645c-1.317-.078-3.923-.117-7.819-.117H129.383c-.256 0-.383-.053-.383-.158 0-.07.04-.11.12-.122.041 0 .296-.018.766-.053.35-.025.561-.097.635-.215.074-.118.111-.425.111-.922V3.595c0-.38-.057-.605-.171-.677-.115-.071-.48-.108-1.099-.108-.214 0-.322-.055-.322-.166 0-.11.148-.166.443-.166H138.026a7.23 7.23 0 0 0 1.11-.078c.026.56.086 1.336.18 2.326l.081.84c.013.066.02.15.02.255 0 .13-.06.195-.181.195-.148 0-.256-.164-.323-.492-.255-1.18-.672-1.927-1.249-2.242-.43-.236-1.558-.354-3.385-.354h-1.652v5.747h.483c1.505 0 2.421-.111 2.75-.333.33-.221.555-.866.676-1.935.027-.274.1-.41.221-.41.148 0 .222.117.222.351 0 .235-.014.58-.04 1.036-.027.457-.04.802-.04 1.036 0 1.395.02 2.353.064 2.874.01.13.016.241.016.332 0 .17-.074.254-.22.254-.094 0-.158-.055-.191-.166-.033-.11-.09-.472-.17-1.085-.108-.768-.435-1.244-.983-1.427-.241-.078-.87-.117-1.886-.117h-.902v6.548c2.955 0 4.688-.057 5.198-.173.887-.194 1.39-1.017 1.512-2.472.026-.321.113-.482.261-.482.134 0 .202.136.202.41M153.6 2.596c0 .13-.17.19-.508.176h-.812c-.217 0-.345.037-.386.108-.04.072-.06.29-.06.656V14.81c0 .692-.008 1.097-.02 1.214-.015.117-.055.176-.122.176-.081 0-.176-.072-.284-.217l-2.594-3.668a481.71 481.71 0 0 1-5.49-8.015v10.977c.014.17.117.279.308.325.192.046.65.076 1.375.088.178 0 .267.053.267.157 0 .131-.176.196-.528.196-.122 0-.508-.02-1.158-.059-.216-.012-.426-.02-.63-.02.014 0-.104.014-.354.04-.251.026-.634.04-1.148.04h-.203c-.312 0-.467-.06-.467-.177 0-.118.135-.177.406-.177.799-.013 1.262-.062 1.391-.147.129-.085.193-.364.193-.835V5.03c0-1.086-.23-1.766-.69-2.041-.217-.132-.603-.197-1.158-.197-.352 0-.528-.069-.528-.206 0-.124.102-.186.305-.186.27 0 .615.013 1.035.04.42.026.643.038.67.038.041 0 .23-.006.57-.02.446 0 .879-.019 1.299-.058l7.006 10.095V3.772c0-.405-.007-.65-.02-.735-.014-.085-.068-.15-.163-.196-.095-.046-.42-.069-.975-.069-.487 0-.73-.058-.73-.176 0-.13.162-.196.487-.196H153.154c.297 0 .446.066.446.196M160.2 16.031c0 .113-.083.169-.248.169h-.207c-.083-.04-1.021-.06-2.814-.06-.345 0-.69.014-1.034.04-.18.014-.456.02-.828.02-.18 0-.269-.06-.269-.179 0-.105.179-.165.538-.178.552-.013.876-.076.972-.19.097-.112.145-.494.145-1.145V4.032c0-.65-.034-1.015-.104-1.095-.085-.133-.468-.212-1.153-.24-.266-.01-.398-.057-.398-.14 0-.104.084-.157.25-.157h2.815c.208 0 .611.007 1.21.02l.792-.02c.222 0 .333.056.333.17 0 .1-.307.163-.922.187-.349.014-.562.073-.639.18-.077.105-.115.383-.115.833v10.603c0 .755.035 1.165.104 1.231.151.146.6.232 1.344.258.152 0 .228.057.228.17M174 2.596c0 .13-.17.19-.508.176h-.812c-.217 0-.345.037-.386.108-.04.072-.06.29-.06.656V14.81c0 .692-.008 1.097-.02 1.214-.015.117-.055.176-.122.176-.081 0-.176-.072-.284-.217l-2.594-3.668a481.71 481.71 0 0 1-5.49-8.015v10.977c.014.17.117.279.308.325.192.046.65.076 1.375.088.178 0 .267.053.267.157 0 .131-.176.196-.528.196-.122 0-.508-.02-1.158-.059-.216-.012-.426-.02-.63-.02.014 0-.104.014-.354.04-.251.026-.634.04-1.148.04h-.203c-.312 0-.467-.06-.467-.177 0-.118.135-.177.406-.177.799-.013 1.262-.062 1.391-.147.129-.085.193-.364.193-.835V5.03c0-1.086-.23-1.766-.69-2.041-.217-.132-.603-.197-1.158-.197-.352 0-.528-.069-.528-.206 0-.124.102-.186.305-.186.27 0 .615.013 1.035.04.42.026.643.038.67.038.041 0 .23-.006.57-.02.446 0 .879-.019 1.299-.058l7.006 10.095V3.772c0-.405-.007-.65-.02-.735-.014-.085-.068-.15-.163-.196-.095-.046-.42-.069-.975-.069-.487 0-.73-.058-.73-.176 0-.13.162-.196.487-.196H173.554c.297 0 .446.066.446.196M183.6 12.666c0 1.145-.437 2.12-1.31 2.926-.873.805-1.924 1.208-3.15 1.208-.72 0-1.58-.22-2.58-.66-.267-.119-.467-.179-.6-.179-.16 0-.26.185-.3.553-.014.19-.1.286-.26.286-.134 0-.2-.08-.2-.24 0-.106.006-.186.02-.24.106-.811.16-1.564.16-2.256 0-.133-.014-.506-.04-1.119a2.04 2.04 0 0 1-.02-.32c0-.199.08-.299.24-.299.133 0 .226.162.28.484.346 2.394 1.473 3.59 3.38 3.59.813 0 1.443-.229 1.89-.688.447-.46.67-1.109.67-1.948 0-.745-.217-1.381-.65-1.907-.434-.526-1.177-1.049-2.23-1.568-1.267-.626-2.147-1.231-2.64-1.817-.494-.586-.74-1.312-.74-2.177 0-1.105.357-2.018 1.07-2.737.713-.719 1.616-1.078 2.71-1.078.453 0 1.08.153 1.88.46.28.106.486.159.62.159.146 0 .243-.026.29-.08.046-.053.09-.193.13-.42.026-.132.1-.199.22-.199.133 0 .2.08.2.24 0 .107-.007.186-.02.24-.04.319-.06.705-.06 1.158 0 .639.033 1.145.1 1.518l.02.32c.013.146-.047.219-.18.219-.147 0-.247-.153-.3-.46-.147-.785-.494-1.44-1.04-1.967-.547-.526-1.16-.789-1.84-.789-.667 0-1.197.214-1.59.64-.393.426-.59 1.005-.59 1.737 0 .852.286 1.538.86 2.057.32.293 1.013.706 2.08 1.238 1.253.627 2.153 1.262 2.7 1.908.546.646.82 1.381.82 2.207M198 3.175c0 .105-.119.157-.357.157h-.673c-.33 0-.529.085-.594.254a1.77 1.77 0 0 0-.04.449v7.32c0 1.9-.36 3.282-1.08 4.147-.72.866-1.879 1.298-3.477 1.298-1.915 0-3.262-.534-4.041-1.603-.515-.716-.773-1.896-.773-3.538V3.821c-.04-.235-.2-.378-.482-.43a7.463 7.463 0 0 0-.742-.02c-.227-.026-.341-.09-.341-.195 0-.117.092-.176.277-.176h4.458c.225 0 .337.072.337.215 0 .09-.04.143-.12.156-.078.013-.343.026-.792.039-.185 0-.31.013-.376.039-.132.052-.205.143-.218.273-.013.052-.02.423-.02 1.113v6.987c0 1.718.278 2.889.832 3.513.555.625 1.38.937 2.477.937 2.007 0 3.143-1.123 3.407-3.371.04-.338.06-1.767.06-4.288V3.955c0-.286-.137-.461-.411-.526-.092-.026-.36-.04-.803-.04-.26 0-.391-.07-.391-.214 0-.116.092-.175.277-.175h3.15c.304 0 .456.058.456.175M209.398 14.51c0 .34-.02.904-.061 1.69h-.225c-.082 0-.28-.013-.593-.04a12.84 12.84 0 0 0-1.063-.039l-8.508-.059c-.232 0-.348-.059-.348-.177 0-.091.184-.15.553-.176.52-.026.83-.082.932-.168.103-.085.154-.33.154-.737V3.756c0-.484-.05-.766-.154-.845-.102-.079-.468-.118-1.096-.118-.26 0-.389-.072-.389-.216 0-.118.082-.177.246-.177h.184c.45.04 1.346.059 2.685.059.122 0 .361-.01.716-.03.356-.02.65-.029.882-.029h.225c.246 0 .369.066.369.197 0 .078-.038.127-.113.147-.075.02-.31.036-.707.05-.396.012-.632.075-.707.186-.075.111-.112.455-.112 1.032V15.61c.369.014.88.02 1.536.02 1.599 0 2.726-.079 3.382-.236.655-.157 1.099-.452 1.331-.885.233-.432.37-1.015.41-1.75.013-.17.092-.255.236-.255.17 0 .25.099.235.295v1.71zM218.47 11.77l-1.06-3.023-.946-2.81c-.553 1.495-1.218 3.44-1.994 5.833h4zm5.33 4.857c0 .115-.098.173-.295.173-.131 0-.25-.007-.354-.02l-2.499-.081-2.498.08c-.092.014-.19.021-.295.021-.263 0-.393-.07-.393-.212 0-.156.177-.234.53-.234 1.154-.013 1.732-.133 1.732-.358a1.23 1.23 0 0 0-.04-.159l-.161-.536-.101-.283c-.118-.42-.406-1.347-.865-2.781h-4.205c-.786 2.163-1.179 3.407-1.179 3.731 0 .19.079.305.236.345.04.014.367.04.984.081.38.014.57.081.57.203 0 .136-.17.203-.511.203-.604 0-1.305-.027-2.105-.081a8.96 8.96 0 0 0-.61-.02c-.21 0-.413.022-.61.067-.105.023-.19.034-.256.034-.183 0-.275-.06-.275-.183 0-.122.207-.19.62-.204.413-.013.71-.078.895-.193.183-.115.327-.336.433-.661 1.686-4.993 3.06-9.002 4.119-12.027.03-.16.092-.34.183-.539l.084-.37c.04-.149.092-.223.158-.223.04 0 .072.04.098.122.17.527.557 1.63 1.16 3.306.473 1.311 1.646 4.604 3.522 9.877.105.306.239.5.403.584.164.084.502.132 1.014.146.34.013.511.077.511.192zM126.001 35.268c0-1.886-.777-3.053-2.33-3.502-.457-.134-1.302-.202-2.536-.202v6.69c0 .433.046.68.137.74.152.105.579.157 1.28.157 1.05 0 1.888-.329 2.513-.988.624-.658.936-1.623.936-2.895m-.662-7.497c0-1.437-.336-2.394-1.006-2.873-.35-.255-1.013-.382-1.987-.382-.26 0-.663.023-1.21.068v6.509h.205l1.256-.045c.868-.03 1.542-.333 2.022-.909.48-.576.72-1.365.72-2.368m3.061 7.744c0 1.526-.708 2.656-2.125 3.39-.685.358-1.667.583-2.947.673-.35.015-1.386.022-3.107.022h-2.787c-.26 0-.388-.063-.388-.19 0-.128.236-.192.708-.192.548 0 .871-.056.97-.168.1-.112.15-.452.15-1.021V25.885c0-.658-.031-1.04-.092-1.144-.107-.18-.495-.277-1.165-.292-.411 0-.617-.079-.617-.236 0-.142.19-.213.57-.213h.275c.168.045.32.067.457.067h4.455c1.645.016 2.87.285 3.678.808.944.614 1.417 1.504 1.417 2.671 0 1.018-.389 1.852-1.165 2.503-.777.651-1.866 1.059-3.267 1.224v.134c1.385.09 2.467.374 3.244.853 1.157.718 1.736 1.804 1.736 3.255M138.07 34.57l-1.06-3.023-.946-2.81c-.553 1.495-1.218 3.44-1.994 5.833h4zm5.33 4.857c0 .115-.098.173-.295.173-.131 0-.25-.007-.354-.02l-2.499-.081-2.498.08c-.092.014-.19.021-.295.021-.263 0-.393-.07-.393-.212 0-.156.177-.234.53-.234 1.154-.013 1.732-.133 1.732-.358a1.23 1.23 0 0 0-.04-.159l-.161-.536-.101-.283a109.1 109.1 0 0 0-.865-2.781h-4.205c-.786 2.163-1.179 3.407-1.179 3.731 0 .19.079.305.236.345.04.014.367.04.984.081.38.014.57.081.57.203 0 .136-.17.203-.511.203-.604 0-1.305-.027-2.105-.081a8.96 8.96 0 0 0-.61-.02c-.21 0-.413.022-.61.067-.105.023-.19.034-.256.034-.183 0-.275-.06-.275-.183 0-.122.207-.19.62-.204.413-.013.71-.078.895-.193.183-.115.327-.336.433-.661 1.686-4.993 3.06-9.002 4.119-12.027.03-.16.092-.34.183-.539l.084-.37c.04-.149.092-.223.158-.223.04 0 .072.04.098.122.17.527.557 1.63 1.16 3.306.473 1.311 1.646 4.604 3.522 9.877.105.306.239.5.403.584.164.084.502.132 1.014.146.34.013.511.077.511.192zM154.8 25.398c0 .1-.113.15-.338.15-.727.013-1.177.14-1.349.38-.158.146-.727 1.28-1.706 3.399a48.38 48.38 0 0 1-1.23 2.472c-.265.49-.417.824-.457 1.002-.04.179-.06.566-.06 1.16v3.75c0 .437.057.695.17.774.112.08.506.14 1.18.179.357.025.536.087.536.186 0 .1-.093.15-.278.15h-.238l-2.778-.06c-.78 0-1.422.014-1.925.04-.08.014-.172.02-.277.02-.186 0-.278-.062-.278-.187s.152-.195.456-.209c.728-.026 1.158-.092 1.29-.197.132-.105.198-.42.198-.946v-4.158a94.8 94.8 0 0 0-1.15-2.315l-1.985-3.917a29.373 29.373 0 0 0-.714-1.286c-.146-.131-.46-.198-.943-.198-.482 0-.724-.072-.724-.217 0-.106.106-.158.318-.158.278 0 .833.013 1.666.04.477.012.82.019 1.032.019l2.302-.03c.092-.02.198-.03.317-.03.238 0 .358.067.358.2 0 .12-.226.179-.675.179-.82 0-1.23.145-1.23.437 0 .226.416 1.135 1.248 2.727l1.803 3.401c.329-.59.704-1.316 1.126-2.18l1.17-2.355c.443-.849.665-1.406.665-1.672 0-.172-.113-.272-.337-.298-.464-.066-.774-.093-.933-.08-.291.014-.437-.053-.437-.2 0-.105.126-.158.377-.158h1.806c1.35-.04 2.024.022 2.024.186M129.6 50.212c0 .194-.091.291-.273.291-.182 0-.31-.193-.386-.583l-.092-.806c-.106-.538-.28-.994-.523-1.367-.318-.494-.841-.807-1.569-.942-.47-.09-.85-.127-1.137-.112-.713.02-1.145.035-1.297.045v13.536c0 .539.145.876.433 1.01.151.075.576.12 1.273.135.182.014.273.078.273.19 0 .128-.121.191-.364.191a2.05 2.05 0 0 1-.318-.022c-.91-.03-1.555-.045-1.933-.045-.5 0-.97.011-1.41.034-.44.022-1.001.033-1.684.033-.349 0-.523-.06-.523-.18 0-.134.326-.209.978-.224.47 0 .774-.097.91-.292.076-.12.114-.426.114-.92V46.738c-1.501.015-2.433.09-2.798.224-.955.344-1.516 1.263-1.683 2.757-.045.448-.152.672-.318.672-.182 0-.273-.156-.273-.47 0-.165.008-.329.023-.494l.045-.515c.046-.687.114-1.592.205-2.712h1.024l4.64.067c.545.015 1.394.015 2.546 0l3.776-.067c.03.837.129 2.077.296 3.72a.77.77 0 0 0 .022.168.88.88 0 0 1 .023.124M138.074 51.34c0-1.941-.824-2.912-2.471-2.912-.438 0-.737.061-.897.183-.16.122-.24.34-.24.652v5.173c1.277.014 2.196-.224 2.761-.713s.847-1.283.847-2.382m4.126 10.203c0 .57-.465.856-1.395.856-1.037 0-1.847-.441-2.432-1.324-.252-.38-.415-.747-.488-1.1-.073-.353-.183-1.249-.329-2.688-.08-.87-.352-1.484-.817-1.843-.465-.36-1.222-.554-2.272-.581v6.416c0 .272.212.441.638.509.12.014.425.027.917.04.172 0 .259.055.259.164 0 .122-.113.183-.34.183h-4.683c-.292 0-.438-.061-.438-.183 0-.095.192-.15.578-.164.624-.013.963-.094 1.016-.244.053-.067.08-.332.08-.794V49.548c0-.543-.057-.869-.17-.978-.113-.108-.455-.169-1.026-.183-.332 0-.498-.06-.498-.183 0-.136.106-.204.319-.204.04 0 .1.007.179.02l2.651.062c.266 0 .638-.01 1.116-.027.531-.037.903-.055 1.116-.055 1.236 0 2.215.282 2.94.845.724.564 1.086 1.328 1.086 2.292 0 .95-.372 1.735-1.116 2.352-.744.618-1.754.981-3.03 1.09-.12.014-.186.034-.199.061 0 .055.066.082.2.082 1.395.245 2.354.745 2.88 1.5.524.757.873 2.122 1.046 4.096.106 1.116.478 1.675 1.116 1.675.2 0 .299-.041.299-.123 0-.013-.007-.027-.02-.04a.947.947 0 0 1-.1-.367c0-.285.146-.428.439-.428.319 0 .478.17.478.51M155.4 48.175c0 .105-.119.157-.357.157h-.673c-.33 0-.529.085-.594.254-.027.091-.04.24-.04.449v7.32c0 1.899-.36 3.282-1.08 4.147-.72.866-1.879 1.298-3.477 1.298-1.915 0-3.262-.534-4.041-1.603-.515-.717-.773-1.896-.773-3.538v-7.838c-.04-.235-.2-.378-.482-.43-.08-.013-.327-.02-.742-.02-.227-.026-.341-.091-.341-.195 0-.118.092-.176.277-.176h4.458c.225 0 .337.072.337.215 0 .09-.04.143-.12.156-.078.013-.343.026-.792.039-.185 0-.31.013-.376.039-.132.052-.205.143-.218.273-.013.052-.02.423-.02 1.112v6.988c0 1.717.278 2.889.832 3.513.555.625 1.38.937 2.477.937 2.007 0 3.143-1.123 3.407-3.371.04-.338.06-1.767.06-4.288V48.955c0-.286-.137-.461-.411-.526-.092-.027-.36-.04-.803-.04-.26 0-.391-.071-.391-.214 0-.117.092-.175.277-.175h3.15c.304 0 .456.058.456.175M165.6 58.266c0 1.145-.437 2.12-1.31 2.926s-1.924 1.208-3.15 1.208c-.72 0-1.58-.22-2.58-.66-.267-.119-.467-.179-.6-.179-.16 0-.26.185-.3.553-.014.19-.1.286-.26.286-.134 0-.2-.08-.2-.24 0-.106.006-.186.02-.24.106-.811.16-1.563.16-2.256 0-.133-.014-.506-.04-1.119a2.037 2.037 0 0 1-.02-.319c0-.2.08-.3.24-.3.133 0 .226.161.28.484.346 2.394 1.473 3.59 3.38 3.59.813 0 1.443-.229 1.89-.688.447-.46.67-1.109.67-1.948 0-.745-.217-1.381-.65-1.907-.434-.526-1.177-1.049-2.23-1.568-1.267-.625-2.147-1.231-2.64-1.818-.494-.585-.74-1.31-.74-2.176 0-1.105.357-2.018 1.07-2.737.713-.719 1.616-1.078 2.71-1.078.453 0 1.08.153 1.88.46.28.106.486.159.62.159.146 0 .243-.026.29-.08.046-.053.09-.193.13-.42.026-.132.1-.199.22-.199.133 0 .2.08.2.24 0 .106-.007.186-.02.24-.04.319-.06.705-.06 1.157 0 .64.033 1.146.1 1.519l.02.319c.013.147-.047.22-.18.22-.147 0-.247-.153-.3-.46-.147-.785-.494-1.44-1.04-1.967-.547-.526-1.16-.789-1.84-.789-.667 0-1.197.213-1.59.64-.393.426-.59 1.005-.59 1.737 0 .852.286 1.538.86 2.057.32.293 1.013.706 2.08 1.239 1.253.626 2.153 1.261 2.7 1.907.546.646.82 1.381.82 2.207M178.2 51.55c0 .171-.078.257-.234.257-.156 0-.267-.172-.331-.515l-.078-.714c-.091-.476-.24-.88-.449-1.21-.273-.436-.721-.714-1.345-.832-.403-.08-.728-.113-.975-.1-.61.018-.981.031-1.11.04V60.45c0 .477.123.774.37.893.13.067.494.107 1.091.12.156.012.234.069.234.168 0 .113-.104.169-.311.169-.105 0-.196-.007-.274-.02-.78-.026-1.332-.04-1.657-.04-.428 0-.832.01-1.208.03-.377.02-.858.03-1.443.03-.299 0-.448-.053-.448-.16 0-.118.28-.184.838-.198.403 0 .663-.085.78-.258.065-.106.098-.377.098-.814V48.476c-1.287.013-2.087.08-2.399.198-.818.305-1.3 1.117-1.442 2.44-.04.395-.13.594-.273.594-.156 0-.234-.139-.234-.416 0-.146.006-.291.02-.437l.038-.456c.04-.608.098-1.408.176-2.399h.877l3.977.06a57.45 57.45 0 0 0 2.183 0l3.237-.06c.025.74.11 1.838.253 3.292 0 .039.006.089.02.148.012.06.019.096.019.11M130.2 79.29c0-.03-.015.174-.045.61-.06.874-.089 1.718-.089 2.531 0 .09.015.275.045.554s.044.614.044 1.005v.204c0 .195-.06.293-.178.293-.12 0-.223-.113-.312-.339-.209-.497-.417-.82-.625-.971-1.07.949-2.356 1.423-3.858 1.423-2.185 0-3.995-.772-5.43-2.316-1.435-1.544-2.152-3.49-2.152-5.84 0-2.365.658-4.297 1.973-5.796 1.316-1.499 3.015-2.248 5.096-2.248.759 0 1.364.064 1.818.192.453.128 1.015.388 1.684.78.326.196.571.293.735.293.134 0 .26-.12.38-.361.193-.422.349-.633.468-.633.119 0 .178.06.178.18 0 .061-.015.159-.044.295-.164.723-.246 2.078-.246 4.067 0 .286-.022.451-.067.497a.238.238 0 0 1-.178.067c-.149 0-.245-.142-.29-.429-.193-1.205-.468-2.101-.825-2.688-.729-1.205-1.873-1.808-3.434-1.808-1.204 0-2.156.407-2.855 1.22-1.264 1.461-1.895 3.6-1.895 6.417 0 2.515.52 4.466 1.56 5.852.907 1.205 2.112 1.807 3.613 1.807.773 0 1.48-.192 2.12-.576a3.869 3.869 0 0 0 1.47-1.57 9.203 9.203 0 0 0 .826-2.508c.059-.362.156-.543.29-.543.148 0 .223.113.223.34M142.978 77.571c0-2.457-.496-4.37-1.489-5.74-.621-.86-1.488-1.29-2.599-1.29-1.059 0-1.878.33-2.46.987-1.072 1.21-1.608 3.176-1.608 5.902 0 2.162.374 3.841 1.121 5.036.748 1.195 1.796 1.793 3.145 1.793 1.257 0 2.203-.564 2.838-1.692.701-1.25 1.052-2.914 1.052-4.996m2.222-.1c0 1.995-.592 3.682-1.776 5.06-1.184 1.38-2.636 2.069-4.355 2.069-1.826 0-3.36-.7-4.604-2.099-1.243-1.399-1.865-3.123-1.865-5.171 0-2.089.598-3.8 1.796-5.132 1.197-1.332 2.728-1.998 4.593-1.998 1.76 0 3.235.696 4.425 2.089s1.786 3.12 1.786 5.181M162 84.432c0 .112-.138.168-.413.168h-4.922c-.275 0-.413-.06-.413-.178 0-.132.19-.199.573-.199.671 0 1.08-.072 1.225-.217.065-.066.098-.509.098-1.328V72.417c0 .013-.08.244-.237.692a505.392 505.392 0 0 0-2.302 7.196l-.917 3.148c-.185.62-.316.93-.395.93-.093 0-.192-.159-.297-.475-.38-1.2-1.455-4.195-3.226-8.984l-.784-2.112v7.457c0 2.413.02 3.632.06 3.659.091.17.408.257.948.257.434 0 .651.065.651.196 0 .146-.138.219-.414.219-.172 0-.33-.013-.475-.04a3.553 3.553 0 0 0-.493-.04l-2.272.08c-.237 0-.356-.06-.356-.178 0-.132.376-.205 1.126-.218.317 0 .5-.053.554-.158.052-.106.079-.45.079-1.03v-9.488c0-1.096-.014-1.69-.04-1.783a.539.539 0 0 0-.336-.376c-.17-.066-.54-.119-1.106-.159-.21-.013-.316-.072-.316-.178 0-.145.193-.218.58-.218H149.558c.786 0 1.338-.004 1.658-.014.065.172.447 1.209 1.146 3.112.3.792 1.142 3.101 2.525 6.928.249-.859.504-1.704.766-2.536l2.112-6.536c.13-.376.246-.687.347-.934l2.93-.02c.43 0 .677.02.742.06.065.04.097.1.097.179 0 .132-.111.198-.335.198-.369 0-.62.013-.75.04-.317.053-.534.158-.653.317-.066.093-.098.866-.098 2.32v9.225c0 .529.052.84.157.932.172.12.6.179 1.284.179h.119c.263 0 .395.056.395.168M170.678 74.13c0-1.995-.849-2.993-2.547-2.993-.565 0-.937.094-1.111.28-.081.08-.121.286-.121.618v5.308c.107.014.229.02.363.02.89 0 1.644-.193 2.264-.579.768-.478 1.152-1.363 1.152-2.654m2.122-.019c0 1.283-.56 2.28-1.678 2.994-.7.45-1.59.674-2.667.674-.459 0-.977-.046-1.556-.138v5.63c0 .305.012.496.04.575.067.186.215.298.444.338.391.053.768.079 1.133.079.147 0 .222.046.222.139 0 .132-.095.198-.283.198h-4.649c-.404 0-.606-.066-.606-.199 0-.092.141-.139.424-.139.633 0 .997-.06 1.092-.178.107-.053.168-.185.182-.397V71.97c0-.41-.115-.661-.344-.754-.135-.053-.37-.08-.707-.08h-.344c-.202 0-.303-.053-.303-.16 0-.118.188-.177.566-.177h4.446c1.536 0 2.661.265 3.375.793.809.595 1.213 1.435 1.213 2.518M180.07 79.57l-1.06-3.023-.946-2.811c-.553 1.496-1.218 3.44-1.994 5.834h4zm5.33 4.857c0 .115-.098.173-.295.173-.131 0-.25-.007-.354-.02l-2.499-.081-2.498.08c-.092.014-.19.021-.295.021-.263 0-.393-.07-.393-.213 0-.155.177-.233.53-.233 1.154-.013 1.732-.133 1.732-.358a1.24 1.24 0 0 0-.04-.159l-.161-.537-.101-.282c-.118-.42-.406-1.347-.865-2.781h-4.205c-.786 2.163-1.179 3.407-1.179 3.731 0 .19.079.305.236.345.04.014.367.04.984.081.38.014.57.081.57.203 0 .136-.17.203-.511.203a31.75 31.75 0 0 1-2.105-.081c-.197-.014-.4-.02-.61-.02-.21 0-.413.022-.61.067-.105.023-.19.034-.256.034-.183 0-.275-.061-.275-.183s.207-.19.62-.204c.413-.013.71-.078.895-.193.183-.116.327-.336.433-.661 1.686-4.993 3.06-9.002 4.119-12.027.03-.16.092-.34.183-.539l.084-.37c.04-.149.092-.223.158-.223.04 0 .072.04.098.121.17.528.557 1.63 1.16 3.306.473 1.312 1.646 4.605 3.522 9.878.105.306.239.5.403.583.164.084.502.133 1.014.147.34.013.511.077.511.192zM198.6 70.996c0 .131-.17.19-.508.177h-.812c-.217 0-.345.036-.386.107-.04.072-.06.29-.06.656V83.21c0 .692-.008 1.097-.02 1.214-.015.117-.055.176-.122.176-.081 0-.176-.072-.284-.217l-2.594-3.668a482.933 482.933 0 0 1-5.49-8.014v10.976c.014.17.117.279.308.325.192.046.65.076 1.375.089.178 0 .267.052.267.156 0 .13-.176.196-.528.196-.122 0-.508-.02-1.158-.059-.216-.013-.426-.019-.63-.019.014 0-.104.013-.354.039-.251.026-.634.04-1.148.04h-.203c-.312 0-.467-.06-.467-.177 0-.118.135-.177.406-.177.799-.013 1.262-.062 1.391-.147.129-.085.193-.364.193-.835V73.43c0-1.086-.23-1.766-.69-2.041-.217-.131-.603-.196-1.158-.196-.352 0-.528-.07-.528-.207 0-.124.102-.186.305-.186.27 0 .615.013 1.035.04.42.026.643.039.67.039.041 0 .23-.007.57-.02.446 0 .879-.02 1.299-.059l7.006 10.095v-8.723c0-.404-.007-.65-.02-.735-.014-.085-.068-.15-.163-.196-.095-.045-.42-.068-.975-.068-.487 0-.73-.06-.73-.177 0-.13.162-.196.487-.196H198.154c.297 0 .446.066.446.196M211.8 70.998c0 .1-.113.15-.338.15-.727.014-1.177.14-1.349.38-.158.146-.727 1.279-1.706 3.399-.437.936-.847 1.76-1.23 2.472-.265.49-.417.824-.457 1.002-.04.18-.06.566-.06 1.16v3.75c0 .437.057.695.17.774.112.08.506.14 1.18.179.357.025.536.087.536.186 0 .1-.093.15-.278.15h-.238l-2.778-.06c-.78 0-1.422.014-1.925.04-.08.014-.172.02-.277.02-.186 0-.278-.062-.278-.187s.152-.195.456-.209c.728-.026 1.157-.092 1.29-.197.132-.105.198-.42.198-.946v-4.158a94.8 94.8 0 0 0-1.15-2.315l-1.985-3.917a29.08 29.08 0 0 0-.714-1.286c-.146-.132-.46-.198-.943-.198-.482 0-.724-.072-.724-.217 0-.106.106-.158.318-.158.278 0 .833.013 1.666.04.477.012.82.02 1.032.02l2.302-.03c.092-.02.198-.03.317-.03.238 0 .358.066.358.199 0 .12-.226.179-.675.179-.82 0-1.23.145-1.23.437 0 .226.416 1.135 1.248 2.727l1.803 3.401c.329-.59.704-1.316 1.126-2.18l1.17-2.355c.443-.849.665-1.406.665-1.672 0-.172-.113-.272-.337-.298-.464-.066-.774-.093-.933-.08-.291.014-.437-.053-.437-.199 0-.106.126-.16.377-.16h1.806c1.35-.04 2.024.023 2.024.187"/>
        <path stroke="#FFF" stroke-width=".907" d="M103.2 12.6V78"/>
    </g>
</svg>
