<svg xmlns="http://www.w3.org/2000/svg" width="14" height="13" viewBox="0 0 14 13">
    <g fill="none" fill-rule="evenodd">
        <path d="M0 0h14v14H0z"/>
        <path fill="#FFCA0F" fill-rule="nonzero" stroke="#FFCA0F" stroke-width=".5" d="M10.47 9.635l2.53 2.53-.836.835-2.53-2.53A5.318 5.318 0 0 1 1 6.317 5.318 5.318 0 0 1 6.318 1a5.318 5.318 0 0 1 4.153 8.635zm-1.185-.439a4.134 4.134 0 0 0-2.968-7.015A4.134 4.134 0 0 0 2.18 6.317a4.134 4.134 0 0 0 7.015 2.968l.089-.089z"/>
    </g>
</svg>
